<svg width="24" height="24" viewBox="0 0 24 24" fill="none" xmlns="http://www.w3.org/2000/svg">
<path d="M8.5 8.56061H13.5M8.5 12.0006H15.5M7.44365 17.4961L8.60481 18.7851C9.19374 19.4389 10.2164 19.4477 10.8164 18.8041L12.0538 17.4771C12.3375 17.1728 12.7348 17 13.1509 17H18.5C19.3284 17 20 16.3284 20 15.5V5.5C20 4.67157 19.3284 4 18.5 4H5.5C4.67157 4 4 4.67157 4 5.5V15.5C4 16.3284 4.67157 17 5.5 17H6.32914C6.75415 17 7.1592 17.1803 7.44365 17.4961Z" stroke="black" strokeLinecap="round"
/>
</svg>