<svg width="24" height="24" viewBox="0 0 24 24" fill="none" xmlns="http://www.w3.org/2000/svg">
<path d="M9.25 20.5C9.25 20.5 10.097 21.5 12 21.5C13.903 21.5 14.75 20.5 14.75 20.5M5.68328 12.6334L3.72361 16.5528C3.39116 17.2177 3.87465 18 4.61803 18H19.382C20.1253 18 20.6088 17.2177 20.2764 16.5528L18.3167 12.6334C18.1084 12.2169 18 11.7575 18 11.2918V9C18 5.68629 15.3137 3 12 3V3C8.68629 3 6 5.68629 6 9V11.2918C6 11.7575 5.89156 12.2169 5.68328 12.6334Z" stroke="black" strokeLinecap="round" strokeLinejoin="round"
/>
</svg>