<svg width="80" height="80" viewBox="0 0 80 80" fill="none" xmlns="http://www.w3.org/2000/svg">
<rect width="80" height="80" rx="40" fill="#D7DBDF"/>
<path d="M18.5139 43.7969L14.3091 36.3281V46.7537H12.2739V32.5841H14.4819L19.4163 41.2433L24.3315 32.5841H26.5587V46.7537H24.5235V36.3281L20.2995 43.7969H18.5139ZM33.4782 45.1025C34.899 45.1025 35.859 43.9697 35.859 42.2225C35.859 40.4945 34.899 39.3425 33.4782 39.3425C32.0574 39.3425 31.0974 40.4753 31.0974 42.2225C31.0974 43.9697 32.0382 45.1025 33.4782 45.1025ZM33.4782 37.5953C36.0702 37.5953 37.8942 39.5153 37.8942 42.2225C37.8942 44.9105 36.0702 46.8497 33.4782 46.8497C30.8862 46.8497 29.0622 44.9105 29.0622 42.2225C29.0622 39.5153 30.8862 37.5953 33.4782 37.5953ZM44.6685 46.8689C44.0157 46.8689 42.8637 46.5809 42.0189 45.5057V46.7921H39.9837V33.0449H42.0189V38.9777C42.8637 37.8641 44.0157 37.6145 44.6877 37.6145C47.2221 37.6145 49.0461 39.5345 49.0461 42.2417C49.0461 44.9489 47.2221 46.8689 44.6685 46.8689ZM44.5533 45.1601C46.0317 45.1601 47.0109 44.0081 47.0109 42.2609C47.0109 40.5137 46.0317 39.3809 44.5533 39.3809C43.1517 39.3809 42.0189 40.6673 42.0189 42.2609C42.0189 43.8929 43.1517 45.1601 44.5533 45.1601ZM50.9671 33.0449H53.0023V46.7537H50.9671V33.0449ZM55.8118 37.5953H57.847V46.7537H55.8118V37.5953ZM56.8294 33.0257C57.5014 33.0257 57.9814 33.5057 57.9814 34.1777C57.9814 34.8497 57.5014 35.3297 56.8294 35.3297C56.1574 35.3297 55.6774 34.8497 55.6774 34.1777C55.6774 33.5057 56.1574 33.0257 56.8294 33.0257ZM64.7344 46.8113C62.1424 46.8113 60.3184 44.9105 60.3184 42.2225C60.3184 39.5153 62.1424 37.6145 64.7344 37.6145C67.576 37.6145 68.4784 39.9377 68.536 40.0913C69.0928 41.3969 68.92 42.8561 68.92 43.0097H62.3152C62.5456 44.2385 63.5824 45.0833 64.7344 45.0833C66.2512 45.0833 66.8656 44.2001 67.0192 43.9313L68.6512 44.6609C68.2096 45.6977 66.9232 46.8113 64.7344 46.8113ZM67 41.3969C66.808 40.2641 66.1552 39.3425 64.7344 39.3425C63.5056 39.3425 62.5456 40.2065 62.3152 41.3969H67Z" fill="white"/>
</svg>