<svg width="80" height="80" viewBox="0 0 80 80" fill="none" xmlns="http://www.w3.org/2000/svg">
<g clip-path="url(#clip0_907_10905)">
<rect width="80" height="80" rx="16" fill="#6C8DB7"/>
<g clip-path="url(#clip1_907_10905)">
<g filter="url(#filter0_i_907_10905)">
<path fill-rule="evenodd" clip-rule="evenodd" d="M62.885 9.23071H17.1158C11.7744 9.23071 7.44434 13.5608 7.44434 18.9022V130.328C7.44434 135.67 11.7744 140 17.1158 140H62.885C68.2265 140 72.5565 135.67 72.5565 130.328V18.9022C72.5565 13.5608 68.2265 9.23071 62.885 9.23071ZM16.2384 138.866C16.5269 138.895 16.8196 138.91 17.1158 138.91H62.885C67.6246 138.91 71.4668 135.068 71.4668 130.328V18.9022C71.4668 14.8776 68.6964 11.5001 64.9587 10.5727C68.6962 11.5003 71.4663 14.8777 71.4663 18.9021V130.328C71.4663 135.068 67.6241 138.91 62.8845 138.91H17.1153C16.8193 138.91 16.5267 138.895 16.2384 138.866Z" fill="white"/>
</g>
<rect x="11.8037" y="13.5896" width="56.3942" height="122.051" fill="#E9E9E9"/>
<rect x="10.249" y="12.3076" width="60" height="70.7692" rx="5.46875" fill="#2E435E"/>
<path d="M16.8223 33.8459H35.7154" stroke="#8979E6" stroke-width="1.25954" stroke-linecap="round"/>
<path d="M38.6543 33.8459H47.8909" stroke="#9AF3B3" stroke-width="1.25954" stroke-linecap="round"/>
<path d="M50.8301 33.8459H60.0667" stroke="white" stroke-width="1.25954" stroke-linecap="round"/>
<path d="M29.4189 42.2424H38.6556" stroke="#FF7483" stroke-width="1.25954" stroke-linecap="round"/>
<path d="M41.5947 42.2424H50.8314" stroke="white" stroke-width="1.25954" stroke-linecap="round"/>
<path d="M23.1221 46.4417H38.6564" stroke="#FF7483" stroke-width="1.25954" stroke-linecap="round"/>
<path d="M41.5957 46.4417H55.8705" stroke="#FFBB6F" stroke-width="1.25954" stroke-linecap="round"/>
<path d="M23.1221 50.8501H31.9389" stroke="#9AF3B3" stroke-width="1.25954" stroke-linecap="round"/>
<path d="M34.8779 50.8501H48.7329" stroke="#FF7483" stroke-width="1.25954" stroke-linecap="round"/>
<path d="M51.6719 50.8501H57.9696" stroke="#8979E6" stroke-width="1.25954" stroke-linecap="round"/>
<path d="M16.4033 64.2849H25.2201" stroke="#9AF3B3" stroke-width="1.25954" stroke-linecap="round"/>
<path d="M28.1592 64.2849H49.1516" stroke="#8979E6" stroke-width="1.25954" stroke-linecap="round"/>
<path d="M29.4189 55.4683H52.0907" stroke="#FFBB6F" stroke-width="1.25954" stroke-linecap="round"/>
<path d="M55.0293 55.4683H61.7469" stroke="white" stroke-width="1.25954" stroke-linecap="round"/>
<path d="M63.4268 59.8767H54.61" stroke="#FFBB6F" stroke-width="1.25954" stroke-linecap="round"/>
<path d="M51.6709 59.8767L32.3579 59.8767" stroke="#9AF3B3" stroke-width="1.25954" stroke-linecap="round"/>
<path d="M29.4189 59.8767H23.1212" stroke="white" stroke-width="1.25954" stroke-linecap="round"/>
<path d="M29.4189 38.0439H38.2358" stroke="#FFBB6F" stroke-width="1.25954" stroke-linecap="round"/>
<path d="M41.1748 38.0439L60.4878 38.0439" stroke="#8979E6" stroke-width="1.25954" stroke-linecap="round"/>
<path d="M31.1913 26.6554C31.1728 27.0615 31.1421 27.4 31.099 27.8061C31.0559 28.2677 30.7974 28.6308 30.2867 28.6308C29.7636 28.6308 29.5113 28.2677 29.4682 27.8061C29.3451 26.6369 29.3451 25.3508 29.4682 24.1877C29.5113 23.7323 29.7636 23.3692 30.2867 23.3692C30.5821 23.3692 30.7913 23.4861 30.9267 23.6708C31.2836 24.1815 31.6344 24.9446 31.9236 25.5846C31.9667 25.6646 32.0282 25.6646 32.0713 25.5846C32.3605 24.9446 32.7051 24.1815 33.0682 23.6708C33.1974 23.4861 33.4128 23.3692 33.7082 23.3692C34.2313 23.3692 34.4774 23.7323 34.5267 24.1877C34.6436 25.3508 34.6436 26.6369 34.5267 27.8061C34.4774 28.2677 34.2313 28.6308 33.7082 28.6308C33.1974 28.6308 32.939 28.2677 32.8959 27.8061C32.8528 27.4 32.8221 27.0615 32.8036 26.6554C32.939 26.36 33.0374 26.1384 33.1113 25.8615C33.1482 25.72 33.0005 25.6892 32.9697 25.8061C32.8282 26.2492 32.5944 26.7415 32.379 27.1354C32.2067 27.4492 31.7882 27.4492 31.6159 27.1354C31.4005 26.7415 31.1667 26.2492 31.0251 25.8061C30.9944 25.6892 30.8467 25.72 30.8836 25.8615C30.9574 26.1384 31.0559 26.36 31.1913 26.6554ZM34.7773 26.7969C34.7835 25.5969 35.5712 24.7415 36.7835 24.7415C38.0081 24.7415 38.5927 25.7815 38.5927 26.7969C38.5804 27.8246 37.8604 28.7354 36.765 28.7354C35.6204 28.7354 34.7773 27.9046 34.7773 26.7969ZM36.5004 27.1415C36.4512 27.2338 36.6296 27.3261 36.7158 27.2092C36.882 26.9631 36.925 26.6308 36.9312 26.3231C36.9373 26.1815 36.7281 26.1877 36.722 26.2923C36.6973 26.5938 36.6481 26.8461 36.5004 27.1415ZM40.0035 25.8123C40.0712 25.8246 40.0958 25.8 40.1327 25.7384C40.4281 25.1969 40.9389 24.9261 41.5604 24.9261C42.3358 24.9261 43.1296 25.3938 43.1296 26.6431C43.1296 28.2184 42.0466 28.6738 40.9881 28.6738C39.382 28.6738 38.7481 27.8861 38.7296 26.3908C38.7173 25.6892 38.7481 24.8461 38.8158 24.1877C38.8589 23.7323 39.142 23.3692 39.665 23.3692C40.1758 23.3692 40.4589 23.7323 40.502 24.1877C40.5204 24.36 40.545 24.8031 40.5512 25.0061C40.2927 25.16 40.0466 25.4554 39.9481 25.6461C39.905 25.7261 39.9358 25.7877 40.0035 25.8123ZM40.8281 26.6923C41.0743 26.8769 41.3696 26.9877 41.6712 27.0492C41.8066 27.0677 41.8373 26.8523 41.7389 26.8277C41.4435 26.7723 41.2035 26.68 40.9389 26.4954C40.8527 26.4338 40.7235 26.6123 40.8281 26.6923ZM45.041 27.24C45.4718 27.2831 45.7487 27.3938 45.7487 27.88C45.7487 28.5384 44.8441 28.6369 44.2226 28.6308C43.6995 28.6246 43.3918 28.2677 43.3487 27.8061C43.2318 26.6369 43.2318 25.3508 43.3487 24.1877C43.3918 23.7323 43.6503 23.3692 44.1734 23.3692C44.678 23.3692 44.9364 23.7323 44.9795 24.1877C45.0718 25.0861 45.1026 26.3046 45.041 27.24ZM46.6209 25.0184C46.2025 25.0184 45.8148 24.7108 45.8148 24.1631C45.8148 23.6523 46.2086 23.3077 46.6209 23.3077C47.0702 23.3077 47.4271 23.7384 47.4271 24.1815C47.4271 24.6369 47.0886 25.0184 46.6209 25.0184ZM45.7963 28.1138C45.6794 27.3877 45.6794 26.5815 45.7963 25.8554C45.8394 25.5723 46.0979 25.3384 46.6209 25.3384C47.1256 25.3384 47.3779 25.5723 47.4271 25.8554C47.5502 26.5815 47.5502 27.3877 47.4271 28.1138C47.3779 28.4031 47.1256 28.6308 46.6209 28.6308C46.0979 28.6308 45.8394 28.4031 45.7963 28.1138ZM48.4937 28.3969C47.9399 28.0461 47.6691 27.4061 47.6568 26.7723C47.6445 26.0092 47.9768 25.2461 48.6107 24.9508C48.9183 24.8092 49.263 24.7415 49.5891 24.7415C50.463 24.7415 51.2137 25.1723 51.1583 26.1446C51.1276 26.7292 50.8322 27 50.2107 27.1477C49.8907 27.2277 49.3984 27.2031 49.2137 26.9077C49.183 26.8584 49.0414 26.8584 49.0599 26.9754C49.0845 27.1538 49.3922 27.4 49.8291 27.4C49.9091 27.4 50.026 27.3754 50.0999 27.3569C50.6537 27.1969 50.8937 27.1908 51.066 27.7015C51.2014 28.0892 50.9922 28.3784 50.383 28.5692C50.0876 28.6615 49.8968 28.6738 49.5953 28.6738C49.2014 28.6738 48.8137 28.6 48.4937 28.3969ZM49.3122 26.0892C49.626 26.0031 49.8845 26.0154 50.1799 26.0769C50.2784 26.0892 50.3337 25.88 50.1922 25.8554C49.903 25.7938 49.5707 25.7446 49.2937 25.8615C49.1707 25.9108 49.2137 26.1138 49.3122 26.0892Z" fill="#6C8DB7"/>
<g filter="url(#filter1_i_907_10905)">
<path fill-rule="evenodd" clip-rule="evenodd" d="M71.4669 19.0383C71.4669 14.2235 67.5637 10.3203 62.7489 10.3203H17.2521C12.4373 10.3203 8.53418 14.2235 8.53418 19.0383V130.192C8.53418 135.007 12.4373 138.91 17.2521 138.91H62.7489C67.5637 138.91 71.4669 135.007 71.4669 130.192V19.0383ZM27.6047 18.0847C25.7991 18.0847 24.3355 16.6211 24.3355 14.8155V14.1344C24.3355 13.8335 24.0915 13.5895 23.7906 13.5895H17.2521C14.2429 13.5895 11.8034 16.029 11.8034 19.0383V130.192C11.8034 133.201 14.2429 135.641 17.2521 135.641H62.7489C65.7582 135.641 68.1976 133.201 68.1976 130.192V19.0383C68.1976 16.029 65.7582 13.5895 62.7489 13.5895H56.2105C55.9095 13.5895 55.6656 13.8335 55.6656 14.1344V14.8155C55.6656 16.6211 54.2019 18.0847 52.3964 18.0847H27.6047Z" fill="#FBFBFB"/>
</g>
<path d="M62.7489 10.3544C67.5449 10.3544 71.4328 14.2423 71.4328 19.0383V130.192C71.4328 134.988 67.5449 138.876 62.7489 138.876H17.2521C12.4561 138.876 8.56823 134.988 8.56823 130.192V19.0383C8.56823 14.2423 12.4561 10.3544 17.2521 10.3544H62.7489ZM27.6047 18.0507C25.818 18.0507 24.3695 16.6022 24.3695 14.8155V14.1344C24.3695 13.8147 24.1103 13.5555 23.7906 13.5555H17.2521C14.2241 13.5555 11.7694 16.0102 11.7694 19.0383V130.192C11.7694 133.22 14.2241 135.675 17.2521 135.675H62.7489C65.777 135.675 68.2317 133.22 68.2317 130.192V19.0383C68.2317 16.0102 65.777 13.5555 62.7489 13.5555H56.2105C55.8907 13.5555 55.6315 13.8147 55.6315 14.1344V14.8155C55.6315 16.6022 54.1831 18.0507 52.3964 18.0507H27.6047Z" stroke="#ECECEC" stroke-width="0.068109"/>
<g filter="url(#filter2_ii_907_10905)">
<path d="M72.2852 40.5477C72.2852 40.1043 72.343 39.6629 72.4572 39.2345C72.4843 39.1331 72.5761 39.0625 72.6811 39.0625H72.7625C72.7998 39.0625 72.83 39.0927 72.83 39.13V52.8892C72.83 52.9265 72.7998 52.9567 72.7625 52.9567H72.6811C72.5761 52.9567 72.4843 52.8862 72.4572 52.7848C72.343 52.3564 72.2852 51.9149 72.2852 51.4715V40.5477Z" fill="white"/>
</g>
<g filter="url(#filter3_ii_907_10905)">
<path d="M7.71777 48.752C7.71777 48.4386 7.65277 48.1286 7.52686 47.8417C7.51043 47.8042 7.47342 47.78 7.43253 47.78H7.24953C7.20721 47.78 7.1729 47.8143 7.1729 47.8567V56.1489C7.1729 56.1912 7.20721 56.2255 7.24953 56.2255H7.43253C7.47342 56.2255 7.51043 56.2014 7.52686 56.1639C7.65277 55.8769 7.71777 55.5669 7.71777 55.2535V48.752Z" fill="white"/>
</g>
<g filter="url(#filter4_ii_907_10905)">
<path d="M7.71777 36.7652C7.71777 36.4518 7.65277 36.1418 7.52686 35.8548C7.51043 35.8174 7.47342 35.7932 7.43253 35.7932H7.24953C7.20721 35.7932 7.1729 35.8275 7.1729 35.8698V44.1621C7.1729 44.2044 7.20721 44.2387 7.24953 44.2387H7.43253C7.47342 44.2387 7.51043 44.2145 7.52686 44.1771C7.65277 43.8901 7.71777 43.5801 7.71777 43.2667V36.7652Z" fill="white"/>
</g>
<g filter="url(#filter5_ii_907_10905)">
<path d="M7.71777 27.7862C7.71777 27.5807 7.6447 27.3819 7.51161 27.2253C7.50413 27.2165 7.49317 27.2114 7.48162 27.2114H7.2716C7.21709 27.2114 7.1729 27.2556 7.1729 27.3101V31.4717C7.1729 31.5262 7.21709 31.5704 7.2716 31.5704H7.48162C7.49317 31.5704 7.50413 31.5653 7.51161 31.5565C7.6447 31.4 7.71777 31.2012 7.71777 30.9957V27.7862Z" fill="white"/>
</g>
<rect x="71.4658" y="21.6267" width="1.08974" height="1.36218" fill="#7E818A" fill-opacity="0.5"/>
<rect x="7.44434" y="21.6267" width="1.08974" height="1.36218" fill="#7E818A" fill-opacity="0.5"/>
<circle cx="46.5385" cy="14.5431" r="0.817308" fill="#3F3F3F" stroke="#1B1B1B" stroke-width="0.272436"/>
<rect x="36.6288" y="14.0323" width="7.15144" height="1.02163" rx="0.510817" fill="#3F3F3F" stroke="#1B1B1B" stroke-width="0.068109"/>
</g>
</g>
<defs>
<filter id="filter0_i_907_10905" x="7.44434" y="9.23071" width="65.1123" height="130.769" filterUnits="userSpaceOnUse" color-interpolation-filters="sRGB">
<feFlood flood-opacity="0" result="BackgroundImageFix"/>
<feBlend mode="normal" in="SourceGraphic" in2="BackgroundImageFix" result="shape"/>
<feColorMatrix in="SourceAlpha" type="matrix" values="0 0 0 0 0 0 0 0 0 0 0 0 0 0 0 0 0 0 127 0" result="hardAlpha"/>
<feOffset/>
<feGaussianBlur stdDeviation="0.544872"/>
<feComposite in2="hardAlpha" operator="arithmetic" k2="-1" k3="1"/>
<feColorMatrix type="matrix" values="0 0 0 0 0.879152 0 0 0 0 0.879152 0 0 0 0 0.879152 0 0 0 0.56 0"/>
<feBlend mode="normal" in2="shape" result="effect1_innerShadow_907_10905"/>
</filter>
<filter id="filter1_i_907_10905" x="8.53418" y="10.3203" width="62.9326" height="128.998" filterUnits="userSpaceOnUse" color-interpolation-filters="sRGB">
<feFlood flood-opacity="0" result="BackgroundImageFix"/>
<feBlend mode="normal" in="SourceGraphic" in2="BackgroundImageFix" result="shape"/>
<feColorMatrix in="SourceAlpha" type="matrix" values="0 0 0 0 0 0 0 0 0 0 0 0 0 0 0 0 0 0 127 0" result="hardAlpha"/>
<feOffset dy="0.408654"/>
<feGaussianBlur stdDeviation="1.08974"/>
<feComposite in2="hardAlpha" operator="arithmetic" k2="-1" k3="1"/>
<feColorMatrix type="matrix" values="0 0 0 0 0 0 0 0 0 0 0 0 0 0 0 0 0 0 0.02 0"/>
<feBlend mode="normal" in2="shape" result="effect1_innerShadow_907_10905"/>
</filter>
<filter id="filter2_ii_907_10905" x="72.217" y="39.0625" width="0.613031" height="13.8943" filterUnits="userSpaceOnUse" color-interpolation-filters="sRGB">
<feFlood flood-opacity="0" result="BackgroundImageFix"/>
<feBlend mode="normal" in="SourceGraphic" in2="BackgroundImageFix" result="shape"/>
<feColorMatrix in="SourceAlpha" type="matrix" values="0 0 0 0 0 0 0 0 0 0 0 0 0 0 0 0 0 0 127 0" result="hardAlpha"/>
<feOffset dx="-0.068109"/>
<feGaussianBlur stdDeviation="0.272436"/>
<feComposite in2="hardAlpha" operator="arithmetic" k2="-1" k3="1"/>
<feColorMatrix type="matrix" values="0 0 0 0 0.396078 0 0 0 0 0.396078 0 0 0 0 0.396078 0 0 0 0.24 0"/>
<feBlend mode="normal" in2="shape" result="effect1_innerShadow_907_10905"/>
<feColorMatrix in="SourceAlpha" type="matrix" values="0 0 0 0 0 0 0 0 0 0 0 0 0 0 0 0 0 0 127 0" result="hardAlpha"/>
<feOffset/>
<feGaussianBlur stdDeviation="0.136218"/>
<feComposite in2="hardAlpha" operator="arithmetic" k2="-1" k3="1"/>
<feColorMatrix type="matrix" values="0 0 0 0 0 0 0 0 0 0 0 0 0 0 0 0 0 0 0.08 0"/>
<feBlend mode="normal" in2="effect1_innerShadow_907_10905" result="effect2_innerShadow_907_10905"/>
</filter>
<filter id="filter3_ii_907_10905" x="7.17285" y="47.78" width="0.613031" height="8.44556" filterUnits="userSpaceOnUse" color-interpolation-filters="sRGB">
<feFlood flood-opacity="0" result="BackgroundImageFix"/>
<feBlend mode="normal" in="SourceGraphic" in2="BackgroundImageFix" result="shape"/>
<feColorMatrix in="SourceAlpha" type="matrix" values="0 0 0 0 0 0 0 0 0 0 0 0 0 0 0 0 0 0 127 0" result="hardAlpha"/>
<feOffset dx="0.068109"/>
<feGaussianBlur stdDeviation="0.136218"/>
<feComposite in2="hardAlpha" operator="arithmetic" k2="-1" k3="1"/>
<feColorMatrix type="matrix" values="0 0 0 0 0.39579 0 0 0 0 0.39579 0 0 0 0 0.39579 0 0 0 0.24 0"/>
<feBlend mode="normal" in2="shape" result="effect1_innerShadow_907_10905"/>
<feColorMatrix in="SourceAlpha" type="matrix" values="0 0 0 0 0 0 0 0 0 0 0 0 0 0 0 0 0 0 127 0" result="hardAlpha"/>
<feOffset/>
<feGaussianBlur stdDeviation="0.136218"/>
<feComposite in2="hardAlpha" operator="arithmetic" k2="-1" k3="1"/>
<feColorMatrix type="matrix" values="0 0 0 0 0 0 0 0 0 0 0 0 0 0 0 0 0 0 0.08 0"/>
<feBlend mode="normal" in2="effect1_innerShadow_907_10905" result="effect2_innerShadow_907_10905"/>
</filter>
<filter id="filter4_ii_907_10905" x="7.17285" y="35.7932" width="0.613031" height="8.44556" filterUnits="userSpaceOnUse" color-interpolation-filters="sRGB">
<feFlood flood-opacity="0" result="BackgroundImageFix"/>
<feBlend mode="normal" in="SourceGraphic" in2="BackgroundImageFix" result="shape"/>
<feColorMatrix in="SourceAlpha" type="matrix" values="0 0 0 0 0 0 0 0 0 0 0 0 0 0 0 0 0 0 127 0" result="hardAlpha"/>
<feOffset dx="0.068109"/>
<feGaussianBlur stdDeviation="0.136218"/>
<feComposite in2="hardAlpha" operator="arithmetic" k2="-1" k3="1"/>
<feColorMatrix type="matrix" values="0 0 0 0 0.39579 0 0 0 0 0.39579 0 0 0 0 0.39579 0 0 0 0.24 0"/>
<feBlend mode="normal" in2="shape" result="effect1_innerShadow_907_10905"/>
<feColorMatrix in="SourceAlpha" type="matrix" values="0 0 0 0 0 0 0 0 0 0 0 0 0 0 0 0 0 0 127 0" result="hardAlpha"/>
<feOffset/>
<feGaussianBlur stdDeviation="0.136218"/>
<feComposite in2="hardAlpha" operator="arithmetic" k2="-1" k3="1"/>
<feColorMatrix type="matrix" values="0 0 0 0 0 0 0 0 0 0 0 0 0 0 0 0 0 0 0.08 0"/>
<feBlend mode="normal" in2="effect1_innerShadow_907_10905" result="effect2_innerShadow_907_10905"/>
</filter>
<filter id="filter5_ii_907_10905" x="7.17285" y="27.2114" width="0.613031" height="4.35889" filterUnits="userSpaceOnUse" color-interpolation-filters="sRGB">
<feFlood flood-opacity="0" result="BackgroundImageFix"/>
<feBlend mode="normal" in="SourceGraphic" in2="BackgroundImageFix" result="shape"/>
<feColorMatrix in="SourceAlpha" type="matrix" values="0 0 0 0 0 0 0 0 0 0 0 0 0 0 0 0 0 0 127 0" result="hardAlpha"/>
<feOffset dx="0.068109"/>
<feGaussianBlur stdDeviation="0.136218"/>
<feComposite in2="hardAlpha" operator="arithmetic" k2="-1" k3="1"/>
<feColorMatrix type="matrix" values="0 0 0 0 0.39579 0 0 0 0 0.39579 0 0 0 0 0.39579 0 0 0 0.24 0"/>
<feBlend mode="normal" in2="shape" result="effect1_innerShadow_907_10905"/>
<feColorMatrix in="SourceAlpha" type="matrix" values="0 0 0 0 0 0 0 0 0 0 0 0 0 0 0 0 0 0 127 0" result="hardAlpha"/>
<feOffset/>
<feGaussianBlur stdDeviation="0.136218"/>
<feComposite in2="hardAlpha" operator="arithmetic" k2="-1" k3="1"/>
<feColorMatrix type="matrix" values="0 0 0 0 0 0 0 0 0 0 0 0 0 0 0 0 0 0 0.08 0"/>
<feBlend mode="normal" in2="effect1_innerShadow_907_10905" result="effect2_innerShadow_907_10905"/>
</filter>
<clipPath id="clip0_907_10905">
<rect width="80" height="80" rx="16" fill="white"/>
</clipPath>
<clipPath id="clip1_907_10905">
<rect width="65.6571" height="130.769" fill="white" transform="translate(7.17188 9.23071)"/>
</clipPath>
</defs>
</svg>
