<svg width="20" height="21" viewBox="0 0 20 21" fill="none" xmlns="http://www.w3.org/2000/svg">
<g clip-path="url(#clip0_2487_27392)">
<rect y="0.5" width="20" height="20" rx="3.07692" fill="#BBC2C9"/>
<path d="M-2.25 17.625L20.875 4.25L19.1435 -5.75L8.63118 -2.91481L1.31151 0.133053L-2.97127 5.59086L-3.75 11.4031L-2.25 17.625Z" fill="#D7DBDF"/>
<path d="M16.6888 6.16382L10.3997 2.54403C10.2956 2.47892 10.1523 2.45288 9.99609 2.45288C9.83984 2.45288 9.69662 2.49194 9.59245 2.54403L3.34245 6.17684C3.12109 6.30705 2.96484 6.63257 2.96484 6.87996V14.1326C2.96484 14.2758 2.99089 14.4451 3.09505 14.5883L17.0013 6.51538C16.9232 6.35913 16.806 6.24194 16.6888 6.16382Z" fill="#D7DBDF"/>
<path d="M3.05859 14.5754C3.1237 14.6795 3.21484 14.7707 3.30599 14.8228L9.58203 18.4556C9.6862 18.5207 9.82943 18.5467 9.98568 18.5467C10.1419 18.5467 10.2852 18.5077 10.3893 18.4556L16.6393 14.8228C16.8607 14.6925 17.0169 14.367 17.0169 14.1196V6.86702C17.0169 6.74984 17.0039 6.61963 16.9388 6.50244L3.05859 14.5754Z" fill="#BBC2C9"/>
<path d="M12.7721 12.0754C12.2253 13.039 11.1836 13.69 9.9987 13.69C8.24089 13.69 6.80859 12.2577 6.80859 10.4999C6.80859 8.74211 8.24089 7.30981 9.9987 7.30981C11.1836 7.30981 12.2253 7.96086 12.7721 8.93742L14.4648 7.96086C13.5794 6.41138 11.9128 5.35669 9.9987 5.35669C7.16016 5.35669 4.85547 7.66138 4.85547 10.4999C4.85547 13.3385 7.16016 15.6431 9.9987 15.6431C11.8997 15.6431 13.5664 14.6015 14.4518 13.065L12.7721 12.0754Z" fill="#F5F6F7"/>
</g>
<defs>
<clipPath id="clip0_2487_27392">
<rect y="0.5" width="20" height="20" rx="3.07692" fill="white"/>
</clipPath>
</defs>
</svg>
