<svg width="24" height="24" viewBox="0 0 24 24" fill="none" xmlns="http://www.w3.org/2000/svg">
<g opacity="0.8">
<g clipPath="url(#clip0_907_9411)">
<rect width="24" height="24" rx="12" fill="#D7DBDF"/>
<path d="M-0.449805 19.2998L22.9913 5.66273L22.0501 -7.25732L10.4991 -3.83485L2.45617 -0.155642L-2.24979 6.43271L-3.10547 13.4489L-0.449805 19.2998Z" fill="#BBC2C9"/>
<path d="M20.0312 6.79687L12.4844 2.45312C12.3594 2.375 12.1875 2.34375 12 2.34375C11.8125 2.34375 11.6406 2.39063 11.5156 2.45312L4.01562 6.8125C3.75 6.96875 3.5625 7.35937 3.5625 7.65625V16.3594C3.5625 16.5312 3.59375 16.7344 3.71875 16.9062L20.4062 7.21875C20.3125 7.03125 20.1719 6.89062 20.0312 6.79687Z" fill="#BBC2C9"/>
<path d="M3.67188 16.8906C3.75 17.0156 3.85938 17.125 3.96875 17.1875L11.5 21.5469C11.625 21.625 11.7969 21.6562 11.9844 21.6562C12.1719 21.6562 12.3437 21.6094 12.4687 21.5469L19.9687 17.1875C20.2344 17.0312 20.4219 16.6406 20.4219 16.3438V7.64062C20.4219 7.5 20.4062 7.34375 20.3281 7.20312L3.67188 16.8906Z" fill="#D7DBDF"/>
<path d="M15.3281 13.8906C14.6719 15.0469 13.4219 15.8281 12 15.8281C9.89062 15.8281 8.17188 14.1094 8.17188 12C8.17188 9.89062 9.89062 8.17187 12 8.17187C13.4219 8.17187 14.6719 8.95312 15.3281 10.125L17.3594 8.95312C16.2969 7.09375 14.2969 5.82812 12 5.82812C8.59375 5.82812 5.82812 8.59375 5.82812 12C5.82812 15.4062 8.59375 18.1719 12 18.1719C14.2812 18.1719 16.2812 16.9219 17.3438 15.0781L15.3281 13.8906Z" fill="#F5F6F7"/>
</g>
</g>
<defs>
<clipPath id="clip0_907_9411">
<rect width="24" height="24" rx="12" fill="white"/>
</clipPath>
</defs>
</svg>