<svg width="100" height="100" viewBox="0 0 100 100" fill="none" xmlns="http://www.w3.org/2000/svg">
<g clipPath="url(#clip0_826_3549)">
<rect width="100" height="100" rx="50" fill="#03599C"/>
<path d="M-1.87614 80.4164L95.795 23.5953L91.8735 -30.2383L43.7443 -15.978L10.2321 -0.64794L-9.37609 26.8035L-12.9414 56.0376L-1.87614 80.4164Z" fill="#659AD3"/>
<path d="M83.4616 28.3203L52.0163 10.2214C51.4954 9.89583 50.7793 9.76562 49.998 9.76562C49.2168 9.76562 48.5006 9.96094 47.9798 10.2214L16.7298 28.3854C15.623 29.0365 14.8418 30.6641 14.8418 31.901V68.1641C14.8418 68.8802 14.972 69.7266 15.4928 70.4427L85.0241 30.0781C84.6335 29.2969 84.0475 28.7109 83.4616 28.3203Z" fill="#659AD3"/>
<path d="M15.2988 70.3775C15.6243 70.8984 16.0801 71.3541 16.5358 71.6145L47.916 89.7786C48.4368 90.1041 49.153 90.2343 49.9342 90.2343C50.7155 90.2343 51.4316 90.039 51.9525 89.7786L83.2025 71.6145C84.3092 70.9635 85.0905 69.3359 85.0905 68.0989V31.8359C85.0905 31.2499 85.0254 30.5989 84.6999 30.0129L15.2988 70.3775Z" fill="#03599C"/>
<path d="M63.8665 57.8774C61.1322 62.6951 55.9238 65.9504 49.9993 65.9504C41.2103 65.9504 34.0488 58.7889 34.0488 49.9998C34.0488 41.2108 41.2103 34.0493 49.9993 34.0493C55.9238 34.0493 61.1322 37.3045 63.8665 42.1873L72.3301 37.3045C67.903 29.5571 59.5697 24.2837 49.9993 24.2837C35.8066 24.2837 24.2832 35.8071 24.2832 49.9998C24.2832 64.1925 35.8066 75.716 49.9993 75.716C59.5046 75.716 67.8379 70.5076 72.265 62.8254L63.8665 57.8774Z" fill="white"/>
</g>
<defs>
<clipPath id="clip0_826_3549">
<rect width="100" height="100" rx="50" fill="white"/>
</clipPath>
</defs>
</svg>