<svg width="80" height="80" viewBox="0 0 80 80" fill="none" xmlns="http://www.w3.org/2000/svg">
<g clip-path="url(#clip0_726_4056)">
<rect width="80" height="80" rx="16" fill="#03599C"/>
<path d="M-1.5013 64.3331L89.3657 11.4841L73.4984 -24.1907L34.995 -12.7824L8.18529 -0.5184L-7.50126 21.4428L-10.3535 44.83L-1.5013 64.3331Z" fill="#659AD3"/>
<path d="M66.7708 22.6555L41.6146 8.17635C41.1979 7.91593 40.625 7.81177 40 7.81177C39.375 7.81177 38.8021 7.96802 38.3854 8.17635L13.3854 22.7076C12.5 23.2284 11.875 24.5305 11.875 25.5201V54.5305C11.875 55.1034 11.9792 55.7805 12.3958 56.3534L68.0208 24.0618C67.7083 23.4368 67.2396 22.968 66.7708 22.6555Z" fill="#659AD3"/>
<path d="M12.2383 56.3014C12.4987 56.7181 12.8633 57.0827 13.2279 57.291L38.332 71.8223C38.7487 72.0827 39.3216 72.1869 39.9466 72.1869C40.5716 72.1869 41.1445 72.0306 41.5612 71.8223L66.5612 57.291C67.4466 56.7702 68.0716 55.4681 68.0716 54.4785V25.4681C68.0716 24.9993 68.0195 24.4785 67.7591 24.0098L12.2383 56.3014Z" fill="#03599C"/>
<path d="M51.0925 46.3015C48.905 50.1557 44.7383 52.7598 39.9987 52.7598C32.9674 52.7598 27.2383 47.0307 27.2383 39.9994C27.2383 32.9682 32.9674 27.239 39.9987 27.239C44.7383 27.239 48.905 29.8432 51.0925 33.7494L57.8633 29.8432C54.3216 23.6453 47.6549 19.4265 39.9987 19.4265C28.6445 19.4265 19.4258 28.6453 19.4258 39.9994C19.4258 51.3536 28.6445 60.5723 39.9987 60.5723C47.6029 60.5723 54.2695 56.4057 57.8112 50.2598L51.0925 46.3015Z" fill="white"/>
</g>
<defs>
<clipPath id="clip0_726_4056">
<rect width="80" height="80" rx="16" fill="white"/>
</clipPath>
</defs>
</svg>
