<svg width="81" height="80" viewBox="0 0 81 80" fill="none" xmlns="http://www.w3.org/2000/svg">
<g clip-path="url(#clip0_2154_9353)">
<g clip-path="url(#clip1_2154_9353)">
<rect width="80" height="80" transform="translate(0.798828 1)" fill="#6C8DB7"/>
<g clip-path="url(#clip2_2154_9353)">
<g filter="url(#filter0_i_2154_9353)">
<path fill-rule="evenodd" clip-rule="evenodd" d="M63.6829 10.2307H17.9137C12.5723 10.2307 8.24219 14.5608 8.24219 19.9022V131.328C8.24219 136.67 12.5723 141 17.9137 141H63.6829C69.0243 141 73.3544 136.67 73.3544 131.328V19.9022C73.3544 14.5608 69.0243 10.2307 63.6829 10.2307ZM17.0362 139.866C17.3247 139.895 17.6174 139.91 17.9137 139.91H63.6829C68.4225 139.91 72.2646 136.068 72.2646 131.328V19.9022C72.2646 15.8776 69.4943 12.5001 65.7565 11.5727C69.494 12.5003 72.2641 15.8777 72.2641 19.9021V131.328C72.2641 136.068 68.422 139.91 63.6824 139.91H17.9132C17.6171 139.91 17.3246 139.895 17.0362 139.866Z" fill="white"/>
</g>
<rect x="12.6035" y="14.5896" width="56.3942" height="122.051" fill="#E9E9E9"/>
<rect x="11.0469" y="13.3076" width="60" height="70.7692" rx="5.46875" fill="#2E435E"/>
<path d="M17.6211 34.8459H36.5142" stroke="#8979E6" stroke-width="1.25954" stroke-linecap="round"/>
<path d="M39.4531 34.8459H48.6898" stroke="#9AF3B3" stroke-width="1.25954" stroke-linecap="round"/>
<path d="M51.6289 34.8459H60.8656" stroke="white" stroke-width="1.25954" stroke-linecap="round"/>
<path d="M30.2168 43.2424H39.4534" stroke="#FF7483" stroke-width="1.25954" stroke-linecap="round"/>
<path d="M42.3926 43.2424H51.6292" stroke="white" stroke-width="1.25954" stroke-linecap="round"/>
<path d="M23.9199 47.4417H39.4543" stroke="#FF7483" stroke-width="1.25954" stroke-linecap="round"/>
<path d="M42.3926 47.4417H56.6674" stroke="#FFBB6F" stroke-width="1.25954" stroke-linecap="round"/>
<path d="M23.9199 51.8501H32.7367" stroke="#9AF3B3" stroke-width="1.25954" stroke-linecap="round"/>
<path d="M35.6758 51.8501H49.5308" stroke="#FF7483" stroke-width="1.25954" stroke-linecap="round"/>
<path d="M52.4688 51.8501H58.7665" stroke="#8979E6" stroke-width="1.25954" stroke-linecap="round"/>
<path d="M17.2012 65.2849H26.018" stroke="#9AF3B3" stroke-width="1.25954" stroke-linecap="round"/>
<path d="M28.957 65.2849H49.9494" stroke="#8979E6" stroke-width="1.25954" stroke-linecap="round"/>
<path d="M30.2168 56.4683H52.8886" stroke="#FFBB6F" stroke-width="1.25954" stroke-linecap="round"/>
<path d="M55.8281 56.4683H62.5457" stroke="white" stroke-width="1.25954" stroke-linecap="round"/>
<path d="M64.2246 60.8767H55.4078" stroke="#FFBB6F" stroke-width="1.25954" stroke-linecap="round"/>
<path d="M52.4688 60.8767L33.1557 60.8767" stroke="#9AF3B3" stroke-width="1.25954" stroke-linecap="round"/>
<path d="M30.2168 60.8767H23.9191" stroke="white" stroke-width="1.25954" stroke-linecap="round"/>
<path d="M30.2168 39.0439H39.0336" stroke="#FFBB6F" stroke-width="1.25954" stroke-linecap="round"/>
<path d="M41.9727 39.0439L61.2857 39.0439" stroke="#8979E6" stroke-width="1.25954" stroke-linecap="round"/>
<path d="M31.9891 27.6554C31.9707 28.0615 31.9399 28.4 31.8968 28.8061C31.8537 29.2677 31.5953 29.6308 31.0845 29.6308C30.5614 29.6308 30.3091 29.2677 30.2661 28.8061C30.143 27.6369 30.143 26.3508 30.2661 25.1877C30.3091 24.7323 30.5614 24.3692 31.0845 24.3692C31.3799 24.3692 31.5891 24.4861 31.7245 24.6708C32.0814 25.1815 32.4322 25.9446 32.7214 26.5846C32.7645 26.6646 32.8261 26.6646 32.8691 26.5846C33.1584 25.9446 33.503 25.1815 33.8661 24.6708C33.9953 24.4861 34.2107 24.3692 34.5061 24.3692C35.0291 24.3692 35.2753 24.7323 35.3245 25.1877C35.4414 26.3508 35.4414 27.6369 35.3245 28.8061C35.2753 29.2677 35.0291 29.6308 34.5061 29.6308C33.9953 29.6308 33.7368 29.2677 33.6937 28.8061C33.6507 28.4 33.6199 28.0615 33.6014 27.6554C33.7368 27.36 33.8353 27.1384 33.9091 26.8615C33.9461 26.72 33.7984 26.6892 33.7676 26.8061C33.6261 27.2492 33.3922 27.7415 33.1768 28.1354C33.0045 28.4492 32.5861 28.4492 32.4137 28.1354C32.1984 27.7415 31.9645 27.2492 31.823 26.8061C31.7922 26.6892 31.6445 26.72 31.6814 26.8615C31.7553 27.1384 31.8537 27.36 31.9891 27.6554ZM35.5752 27.7969C35.5813 26.5969 36.369 25.7415 37.5813 25.7415C38.806 25.7415 39.3906 26.7815 39.3906 27.7969C39.3783 28.8246 38.6583 29.7354 37.5629 29.7354C36.4183 29.7354 35.5752 28.9046 35.5752 27.7969ZM37.2983 28.1415C37.249 28.2338 37.4275 28.3261 37.5137 28.2092C37.6798 27.9631 37.7229 27.6308 37.729 27.3231C37.7352 27.1815 37.526 27.1877 37.5198 27.2923C37.4952 27.5938 37.446 27.8461 37.2983 28.1415ZM40.8013 26.8123C40.869 26.8246 40.8937 26.8 40.9306 26.7384C41.226 26.1969 41.7367 25.9261 42.3583 25.9261C43.1337 25.9261 43.9275 26.3938 43.9275 27.6431C43.9275 29.2184 42.8444 29.6738 41.786 29.6738C40.1798 29.6738 39.546 28.8861 39.5275 27.3908C39.5152 26.6892 39.546 25.8461 39.6137 25.1877C39.6567 24.7323 39.9398 24.3692 40.4629 24.3692C40.9737 24.3692 41.2567 24.7323 41.2998 25.1877C41.3183 25.36 41.3429 25.8031 41.349 26.0061C41.0906 26.16 40.8444 26.4554 40.746 26.6461C40.7029 26.7261 40.7337 26.7877 40.8013 26.8123ZM41.626 27.6923C41.8721 27.8769 42.1675 27.9877 42.469 28.0492C42.6044 28.0677 42.6352 27.8523 42.5367 27.8277C42.2413 27.7723 42.0013 27.68 41.7367 27.4954C41.6506 27.4338 41.5213 27.6123 41.626 27.6923ZM45.8389 28.24C46.2697 28.2831 46.5466 28.3938 46.5466 28.88C46.5466 29.5384 45.642 29.6369 45.0204 29.6308C44.4974 29.6246 44.1897 29.2677 44.1466 28.8061C44.0297 27.6369 44.0297 26.3508 44.1466 25.1877C44.1897 24.7323 44.4481 24.3692 44.9712 24.3692C45.4758 24.3692 45.7343 24.7323 45.7774 25.1877C45.8697 26.0861 45.9004 27.3046 45.8389 28.24ZM47.4188 26.0184C47.0003 26.0184 46.6126 25.7108 46.6126 25.1631C46.6126 24.6523 47.0065 24.3077 47.4188 24.3077C47.868 24.3077 48.225 24.7384 48.225 25.1815C48.225 25.6369 47.8865 26.0184 47.4188 26.0184ZM46.5942 29.1138C46.4773 28.3877 46.4773 27.5815 46.5942 26.8554C46.6373 26.5723 46.8957 26.3384 47.4188 26.3384C47.9234 26.3384 48.1757 26.5723 48.225 26.8554C48.348 27.5815 48.348 28.3877 48.225 29.1138C48.1757 29.4031 47.9234 29.6308 47.4188 29.6308C46.8957 29.6308 46.6373 29.4031 46.5942 29.1138ZM49.2916 29.3969C48.7377 29.0461 48.467 28.4061 48.4547 27.7723C48.4424 27.0092 48.7747 26.2461 49.4085 25.9508C49.7162 25.8092 50.0608 25.7415 50.387 25.7415C51.2608 25.7415 52.0116 26.1723 51.9562 27.1446C51.9254 27.7292 51.63 28 51.0085 28.1477C50.6885 28.2277 50.1962 28.2031 50.0116 27.9077C49.9808 27.8584 49.8393 27.8584 49.8577 27.9754C49.8824 28.1538 50.19 28.4 50.627 28.4C50.707 28.4 50.8239 28.3754 50.8977 28.3569C51.4516 28.1969 51.6916 28.1908 51.8639 28.7015C51.9993 29.0892 51.79 29.3784 51.1808 29.5692C50.8854 29.6615 50.6947 29.6738 50.3931 29.6738C49.9993 29.6738 49.6116 29.6 49.2916 29.3969ZM50.11 27.0892C50.4239 27.0031 50.6824 27.0154 50.9777 27.0769C51.0762 27.0892 51.1316 26.88 50.99 26.8554C50.7008 26.7938 50.3685 26.7446 50.0916 26.8615C49.9685 26.9108 50.0116 27.1138 50.11 27.0892Z" fill="#6C8DB7"/>
<g filter="url(#filter1_i_2154_9353)">
<path fill-rule="evenodd" clip-rule="evenodd" d="M72.2667 20.0383C72.2667 15.2235 68.3635 11.3203 63.5487 11.3203H18.0519C13.2371 11.3203 9.33398 15.2235 9.33398 20.0383V131.192C9.33398 136.007 13.2371 139.91 18.0519 139.91H63.5487C68.3635 139.91 72.2667 136.007 72.2667 131.192V20.0383ZM28.4045 19.0847C26.599 19.0847 25.1353 17.6211 25.1353 15.8155V15.1344C25.1353 14.8335 24.8913 14.5895 24.5904 14.5895H18.0519C15.0427 14.5895 12.6032 17.029 12.6032 20.0383V131.192C12.6032 134.201 15.0427 136.641 18.0519 136.641H63.5487C66.558 136.641 68.9974 134.201 68.9974 131.192V20.0383C68.9974 17.029 66.558 14.5895 63.5487 14.5895H57.0103C56.7093 14.5895 56.4654 14.8335 56.4654 15.1344V15.8155C56.4654 17.6211 55.0017 19.0847 53.1962 19.0847H28.4045Z" fill="#FBFBFB"/>
</g>
<path d="M63.5487 11.3544C68.3447 11.3544 72.2326 15.2423 72.2326 20.0383V131.192C72.2326 135.988 68.3447 139.876 63.5487 139.876H18.0519C13.256 139.876 9.36804 135.988 9.36804 131.192V20.0383C9.36804 15.2423 13.2559 11.3544 18.0519 11.3544H63.5487ZM28.4045 19.0507C26.6178 19.0507 25.1693 17.6022 25.1693 15.8155V15.1344C25.1693 14.8147 24.9101 14.5555 24.5904 14.5555H18.0519C15.0239 14.5555 12.5692 17.0102 12.5692 20.0383V131.192C12.5692 134.22 15.0239 136.675 18.0519 136.675H63.5487C66.5768 136.675 69.0315 134.22 69.0315 131.192V20.0383C69.0315 17.0102 66.5768 14.5555 63.5487 14.5555H57.0103C56.6905 14.5555 56.4313 14.8147 56.4313 15.1344V15.8155C56.4313 17.6022 54.9829 19.0507 53.1962 19.0507H28.4045Z" stroke="#ECECEC" stroke-width="0.068109"/>
<g filter="url(#filter2_ii_2154_9353)">
<path d="M73.082 41.5477C73.082 41.1043 73.1399 40.6629 73.2541 40.2345V40.2345C73.2812 40.1331 73.373 40.0625 73.478 40.0625H73.5594C73.5967 40.0625 73.6269 40.0927 73.6269 40.13V53.8892C73.6269 53.9265 73.5967 53.9567 73.5594 53.9567H73.478C73.373 53.9567 73.2812 53.8862 73.2541 53.7848V53.7848C73.1399 53.3564 73.082 52.9149 73.082 52.4715V41.5477Z" fill="white"/>
</g>
<g filter="url(#filter3_ii_2154_9353)">
<path d="M8.51562 49.752C8.51562 49.4386 8.45062 49.1286 8.32471 48.8417V48.8417C8.30828 48.8042 8.27127 48.78 8.23039 48.78H8.04738C8.00506 48.78 7.97075 48.8143 7.97075 48.8567V57.1489C7.97075 57.1912 8.00506 57.2255 8.04738 57.2255H8.23039C8.27127 57.2255 8.30828 57.2014 8.32471 57.1639V57.1639C8.45062 56.8769 8.51562 56.5669 8.51562 56.2535V49.752Z" fill="white"/>
</g>
<g filter="url(#filter4_ii_2154_9353)">
<path d="M8.51562 37.7652C8.51562 37.4518 8.45062 37.1418 8.32471 36.8548V36.8548C8.30828 36.8174 8.27127 36.7932 8.23039 36.7932H8.04738C8.00506 36.7932 7.97075 36.8275 7.97075 36.8698V45.1621C7.97075 45.2044 8.00506 45.2387 8.04738 45.2387H8.23039C8.27127 45.2387 8.30828 45.2145 8.32471 45.1771V45.1771C8.45062 44.8901 8.51562 44.5801 8.51562 44.2667V37.7652Z" fill="white"/>
</g>
<g filter="url(#filter5_ii_2154_9353)">
<path d="M8.51562 28.7862C8.51562 28.5807 8.44255 28.3819 8.30947 28.2253V28.2253C8.30199 28.2165 8.29102 28.2114 8.27947 28.2114H8.06946C8.01494 28.2114 7.97075 28.2556 7.97075 28.3101V32.4717C7.97075 32.5262 8.01494 32.5704 8.06946 32.5704H8.27947C8.29102 32.5704 8.30199 32.5653 8.30947 32.5565V32.5565C8.44255 32.4 8.51562 32.2012 8.51562 31.9957V28.7862Z" fill="white"/>
</g>
<rect x="72.2637" y="22.6267" width="1.08974" height="1.36218" fill="#7E818A" fill-opacity="0.5"/>
<rect x="8.24219" y="22.6267" width="1.08974" height="1.36218" fill="#7E818A" fill-opacity="0.5"/>
<circle cx="47.3383" cy="15.5431" r="0.817308" fill="#3F3F3F" stroke="#1B1B1B" stroke-width="0.272436"/>
<rect x="37.4286" y="15.0323" width="7.15144" height="1.02163" rx="0.510817" fill="#3F3F3F" stroke="#1B1B1B" stroke-width="0.068109"/>
</g>
</g>
</g>
<defs>
<filter id="filter0_i_2154_9353" x="8.24219" y="10.2307" width="65.1113" height="130.769" filterUnits="userSpaceOnUse" color-interpolation-filters="sRGB">
<feFlood flood-opacity="0" result="BackgroundImageFix"/>
<feBlend mode="normal" in="SourceGraphic" in2="BackgroundImageFix" result="shape"/>
<feColorMatrix in="SourceAlpha" type="matrix" values="0 0 0 0 0 0 0 0 0 0 0 0 0 0 0 0 0 0 127 0" result="hardAlpha"/>
<feOffset/>
<feGaussianBlur stdDeviation="0.544872"/>
<feComposite in2="hardAlpha" operator="arithmetic" k2="-1" k3="1"/>
<feColorMatrix type="matrix" values="0 0 0 0 0.879152 0 0 0 0 0.879152 0 0 0 0 0.879152 0 0 0 0.56 0"/>
<feBlend mode="normal" in2="shape" result="effect1_innerShadow_2154_9353"/>
</filter>
<filter id="filter1_i_2154_9353" x="9.33398" y="11.3203" width="62.9336" height="128.998" filterUnits="userSpaceOnUse" color-interpolation-filters="sRGB">
<feFlood flood-opacity="0" result="BackgroundImageFix"/>
<feBlend mode="normal" in="SourceGraphic" in2="BackgroundImageFix" result="shape"/>
<feColorMatrix in="SourceAlpha" type="matrix" values="0 0 0 0 0 0 0 0 0 0 0 0 0 0 0 0 0 0 127 0" result="hardAlpha"/>
<feOffset dy="0.408654"/>
<feGaussianBlur stdDeviation="1.08974"/>
<feComposite in2="hardAlpha" operator="arithmetic" k2="-1" k3="1"/>
<feColorMatrix type="matrix" values="0 0 0 0 0 0 0 0 0 0 0 0 0 0 0 0 0 0 0.02 0"/>
<feBlend mode="normal" in2="shape" result="effect1_innerShadow_2154_9353"/>
</filter>
<filter id="filter2_ii_2154_9353" x="73.0139" y="40.0625" width="0.613031" height="13.8943" filterUnits="userSpaceOnUse" color-interpolation-filters="sRGB">
<feFlood flood-opacity="0" result="BackgroundImageFix"/>
<feBlend mode="normal" in="SourceGraphic" in2="BackgroundImageFix" result="shape"/>
<feColorMatrix in="SourceAlpha" type="matrix" values="0 0 0 0 0 0 0 0 0 0 0 0 0 0 0 0 0 0 127 0" result="hardAlpha"/>
<feOffset dx="-0.068109"/>
<feGaussianBlur stdDeviation="0.272436"/>
<feComposite in2="hardAlpha" operator="arithmetic" k2="-1" k3="1"/>
<feColorMatrix type="matrix" values="0 0 0 0 0.396078 0 0 0 0 0.396078 0 0 0 0 0.396078 0 0 0 0.24 0"/>
<feBlend mode="normal" in2="shape" result="effect1_innerShadow_2154_9353"/>
<feColorMatrix in="SourceAlpha" type="matrix" values="0 0 0 0 0 0 0 0 0 0 0 0 0 0 0 0 0 0 127 0" result="hardAlpha"/>
<feOffset/>
<feGaussianBlur stdDeviation="0.136218"/>
<feComposite in2="hardAlpha" operator="arithmetic" k2="-1" k3="1"/>
<feColorMatrix type="matrix" values="0 0 0 0 0 0 0 0 0 0 0 0 0 0 0 0 0 0 0.08 0"/>
<feBlend mode="normal" in2="effect1_innerShadow_2154_9353" result="effect2_innerShadow_2154_9353"/>
</filter>
<filter id="filter3_ii_2154_9353" x="7.9707" y="48.78" width="0.613031" height="8.44556" filterUnits="userSpaceOnUse" color-interpolation-filters="sRGB">
<feFlood flood-opacity="0" result="BackgroundImageFix"/>
<feBlend mode="normal" in="SourceGraphic" in2="BackgroundImageFix" result="shape"/>
<feColorMatrix in="SourceAlpha" type="matrix" values="0 0 0 0 0 0 0 0 0 0 0 0 0 0 0 0 0 0 127 0" result="hardAlpha"/>
<feOffset dx="0.068109"/>
<feGaussianBlur stdDeviation="0.136218"/>
<feComposite in2="hardAlpha" operator="arithmetic" k2="-1" k3="1"/>
<feColorMatrix type="matrix" values="0 0 0 0 0.39579 0 0 0 0 0.39579 0 0 0 0 0.39579 0 0 0 0.24 0"/>
<feBlend mode="normal" in2="shape" result="effect1_innerShadow_2154_9353"/>
<feColorMatrix in="SourceAlpha" type="matrix" values="0 0 0 0 0 0 0 0 0 0 0 0 0 0 0 0 0 0 127 0" result="hardAlpha"/>
<feOffset/>
<feGaussianBlur stdDeviation="0.136218"/>
<feComposite in2="hardAlpha" operator="arithmetic" k2="-1" k3="1"/>
<feColorMatrix type="matrix" values="0 0 0 0 0 0 0 0 0 0 0 0 0 0 0 0 0 0 0.08 0"/>
<feBlend mode="normal" in2="effect1_innerShadow_2154_9353" result="effect2_innerShadow_2154_9353"/>
</filter>
<filter id="filter4_ii_2154_9353" x="7.9707" y="36.7932" width="0.613031" height="8.44556" filterUnits="userSpaceOnUse" color-interpolation-filters="sRGB">
<feFlood flood-opacity="0" result="BackgroundImageFix"/>
<feBlend mode="normal" in="SourceGraphic" in2="BackgroundImageFix" result="shape"/>
<feColorMatrix in="SourceAlpha" type="matrix" values="0 0 0 0 0 0 0 0 0 0 0 0 0 0 0 0 0 0 127 0" result="hardAlpha"/>
<feOffset dx="0.068109"/>
<feGaussianBlur stdDeviation="0.136218"/>
<feComposite in2="hardAlpha" operator="arithmetic" k2="-1" k3="1"/>
<feColorMatrix type="matrix" values="0 0 0 0 0.39579 0 0 0 0 0.39579 0 0 0 0 0.39579 0 0 0 0.24 0"/>
<feBlend mode="normal" in2="shape" result="effect1_innerShadow_2154_9353"/>
<feColorMatrix in="SourceAlpha" type="matrix" values="0 0 0 0 0 0 0 0 0 0 0 0 0 0 0 0 0 0 127 0" result="hardAlpha"/>
<feOffset/>
<feGaussianBlur stdDeviation="0.136218"/>
<feComposite in2="hardAlpha" operator="arithmetic" k2="-1" k3="1"/>
<feColorMatrix type="matrix" values="0 0 0 0 0 0 0 0 0 0 0 0 0 0 0 0 0 0 0.08 0"/>
<feBlend mode="normal" in2="effect1_innerShadow_2154_9353" result="effect2_innerShadow_2154_9353"/>
</filter>
<filter id="filter5_ii_2154_9353" x="7.9707" y="28.2114" width="0.613031" height="4.35889" filterUnits="userSpaceOnUse" color-interpolation-filters="sRGB">
<feFlood flood-opacity="0" result="BackgroundImageFix"/>
<feBlend mode="normal" in="SourceGraphic" in2="BackgroundImageFix" result="shape"/>
<feColorMatrix in="SourceAlpha" type="matrix" values="0 0 0 0 0 0 0 0 0 0 0 0 0 0 0 0 0 0 127 0" result="hardAlpha"/>
<feOffset dx="0.068109"/>
<feGaussianBlur stdDeviation="0.136218"/>
<feComposite in2="hardAlpha" operator="arithmetic" k2="-1" k3="1"/>
<feColorMatrix type="matrix" values="0 0 0 0 0.39579 0 0 0 0 0.39579 0 0 0 0 0.39579 0 0 0 0.24 0"/>
<feBlend mode="normal" in2="shape" result="effect1_innerShadow_2154_9353"/>
<feColorMatrix in="SourceAlpha" type="matrix" values="0 0 0 0 0 0 0 0 0 0 0 0 0 0 0 0 0 0 127 0" result="hardAlpha"/>
<feOffset/>
<feGaussianBlur stdDeviation="0.136218"/>
<feComposite in2="hardAlpha" operator="arithmetic" k2="-1" k3="1"/>
<feColorMatrix type="matrix" values="0 0 0 0 0 0 0 0 0 0 0 0 0 0 0 0 0 0 0.08 0"/>
<feBlend mode="normal" in2="effect1_innerShadow_2154_9353" result="effect2_innerShadow_2154_9353"/>
</filter>
<clipPath id="clip0_2154_9353">
<rect x="0.798828" width="80" height="80" rx="16" fill="white"/>
</clipPath>
<clipPath id="clip1_2154_9353">
<rect width="80" height="80" fill="white" transform="translate(0.798828 1)"/>
</clipPath>
<clipPath id="clip2_2154_9353">
<rect width="65.6571" height="130.769" fill="white" transform="translate(7.9707 10.2307)"/>
</clipPath>
</defs>
</svg>
