<svg width="81" height="80" viewBox="0 0 81 80" fill="none" xmlns="http://www.w3.org/2000/svg">
<rect x="0.398438" width="80" height="80" rx="16" fill="#FFE3DC"/>
<path d="M43.7549 9.65758L71.744 37.6452C73.3558 39.257 73.3542 41.8727 71.7419 43.4855L43.8833 71.3431C42.2695 72.9549 39.6533 72.9549 38.042 71.3431L10.0483 43.3555C8.436 41.7432 8.42584 39.129 10.0381 37.5157L37.9165 9.65758C39.5299 8.04578 42.1441 8.04578 43.7549 9.65758Z" fill="white"/>
<path d="M71.744 37.6452L43.7549 9.65758C42.1441 8.04578 39.5299 8.04578 37.9165 9.65758L32.1056 15.47L39.4781 22.8424C41.1919 22.264 43.1562 22.652 44.5217 24.0175C45.1724 24.6688 45.6267 25.4902 45.8327 26.3876C46.0386 27.285 45.9878 28.2222 45.6861 29.0921L52.7914 36.1984C54.5103 35.6058 56.4944 35.9887 57.8665 37.3638C59.786 39.2818 59.786 42.3912 57.8665 44.3102C57.4103 44.7666 56.8687 45.1286 56.2726 45.3756C55.6765 45.6226 55.0375 45.7497 54.3923 45.7497C53.747 45.7497 53.1081 45.6226 52.5119 45.3756C51.9158 45.1286 51.3742 44.7666 50.9181 44.3102C50.2327 43.6244 49.7655 42.7512 49.5753 41.8006C49.3851 40.8499 49.4804 39.8642 49.8491 38.9675L43.2232 32.3411L43.2222 49.7798C43.7029 50.0166 44.1418 50.3301 44.5217 50.7081C46.4407 52.6261 46.4407 55.7345 44.5217 57.6565C42.6026 59.5745 39.4923 59.5745 37.5753 57.6565C35.6568 55.735 35.4994 52.6266 37.4174 50.7081C37.8917 50.2343 38.3594 49.8763 38.8672 49.6366V32.0364C38.3594 31.7967 37.8922 31.4412 37.4169 30.9644C35.964 29.512 35.6923 27.3792 36.4378 25.5938L29.2101 18.3254L10.0381 37.5157C8.42584 39.129 8.436 41.7432 10.0483 43.3555L38.042 71.3431C39.6533 72.9549 42.2695 72.9549 43.8833 71.3431L71.7419 43.4855C73.3542 41.8727 73.3558 39.257 71.744 37.6452V37.6452Z" fill="#F34F29"/>
</svg>
