<svg width="81" height="80" viewBox="0 0 81 80" fill="none" xmlns="http://www.w3.org/2000/svg">
<rect x="0.599609" width="80" height="80" rx="16" fill="#F7DF1E"/>
<g clip-path="url(#clip0_2154_2613)">
<path d="M19.0731 6.66749H62.1287C63.6794 6.66599 65.2152 6.97815 66.6482 7.58612C68.0812 8.19409 69.3832 9.08592 70.4797 10.2106C71.5763 11.3352 72.4458 12.6706 73.0386 14.1403C73.6313 15.6101 73.9357 17.1852 73.9342 18.7757V61.2259C73.9357 62.8164 73.6313 64.3916 73.0386 65.8613C72.4458 67.331 71.5763 68.6664 70.4797 69.7911C69.3832 70.9157 68.0812 71.8076 66.6482 72.4155C65.2152 73.0235 63.6794 73.3356 62.1287 73.3342H19.0731C17.5224 73.3356 15.9866 73.0235 14.5536 72.4155C13.1206 71.8076 11.8186 70.9157 10.7221 69.7911C9.62555 68.6664 8.75602 67.331 8.16325 65.8613C7.57048 64.3916 7.26612 62.8164 7.26758 61.2259V18.7757C7.26612 17.1852 7.57048 15.6101 8.16325 14.1403C8.75602 12.6706 9.62555 11.3352 10.7221 10.2106C11.8186 9.08592 13.1206 8.19409 14.5536 7.58612C15.9866 6.97815 17.5224 6.66599 19.0731 6.66749Z" fill="#F7DF1E"/>
<path d="M52.1632 58.8309C53.5061 61.0235 55.2532 62.6352 58.3431 62.6352C60.9389 62.6352 62.5971 61.3378 62.5971 59.5452C62.5971 57.3971 60.8934 56.6362 58.0362 55.3865L56.4701 54.7145C51.9495 52.7886 48.9463 50.3759 48.9463 45.2754C48.9463 40.577 52.5262 37.0002 58.1209 37.0002C62.104 37.0002 64.9675 38.3865 67.0309 42.0161L62.1526 45.1484C61.0786 43.2225 59.9198 42.4637 58.1209 42.4637C56.286 42.4637 55.123 43.6278 55.123 45.1484C55.123 47.0278 56.287 47.7886 58.9749 48.9526L60.541 49.6235C65.8637 51.9061 68.869 54.233 68.869 59.4648C68.869 65.105 64.4384 68.195 58.4881 68.195C52.6701 68.195 48.9114 65.4225 47.0722 61.7886L52.1632 58.8309ZM30.0331 59.3738C31.0172 61.1198 31.9124 62.596 34.0648 62.596C36.123 62.596 37.4214 61.7907 37.4214 58.6595V37.3579H43.686V58.7442C43.686 65.2309 39.8828 68.1833 34.3315 68.1833C29.3156 68.1833 26.4108 65.5875 24.9336 62.4611L30.0331 59.3738Z" fill="black"/>
</g>
<defs>
<clipPath id="clip0_2154_2613">
<rect width="66.6667" height="66.6667" fill="white" transform="translate(7.26758 6.66724)"/>
</clipPath>
</defs>
</svg>
