<svg width="81" height="80" viewBox="0 0 81 80" fill="none" xmlns="http://www.w3.org/2000/svg">
<g clip-path="url(#clip0_2154_7257)">
<rect x="0.798828" width="80" height="80" rx="16" fill="#03599C"/>
<path d="M-0.702475 64.3331L77.4344 18.8762L74.2972 -24.1907L35.7939 -12.7824L8.98412 -0.5184L-6.70243 21.4428L-9.55469 44.83L-0.702475 64.3331Z" fill="#659AD3"/>
<path d="M67.5697 22.6555L42.4134 8.17635C41.9967 7.91593 41.4238 7.81177 40.7988 7.81177C40.1738 7.81177 39.6009 7.96802 39.1842 8.17635L14.1842 22.7076C13.2988 23.2284 12.6738 24.5305 12.6738 25.5201V54.5305C12.6738 55.1034 12.778 55.7805 13.1947 56.3534L68.8197 24.0618C68.5072 23.4368 68.0384 22.968 67.5697 22.6555Z" fill="#659AD3"/>
<path d="M13.0371 56.3014C13.2975 56.7181 13.6621 57.0827 14.0267 57.291L39.1309 71.8223C39.5475 72.0827 40.1204 72.1869 40.7454 72.1869C41.3704 72.1869 41.9434 72.0306 42.36 71.8223L67.36 57.291C68.2454 56.7702 68.8704 55.4681 68.8704 54.4785V25.4681C68.8704 24.9993 68.8184 24.4785 68.5579 24.0098L13.0371 56.3014Z" fill="#03599C"/>
<path d="M51.8913 46.3015C49.7038 50.1557 45.5371 52.7598 40.7975 52.7598C33.7663 52.7598 28.0371 47.0307 28.0371 39.9994C28.0371 32.9682 33.7663 27.239 40.7975 27.239C45.5371 27.239 49.7038 29.8432 51.8913 33.7494L58.6621 29.8432C55.1204 23.6453 48.4538 19.4265 40.7975 19.4265C29.4434 19.4265 20.2246 28.6453 20.2246 39.9994C20.2246 51.3536 29.4434 60.5723 40.7975 60.5723C48.4017 60.5723 55.0684 56.4057 58.61 50.2598L51.8913 46.3015Z" fill="white"/>
</g>
<defs>
<clipPath id="clip0_2154_7257">
<rect x="0.798828" width="80" height="80" rx="16" fill="white"/>
</clipPath>
</defs>
</svg>
