<svg width="80" height="80" viewBox="0 0 80 80" fill="none" xmlns="http://www.w3.org/2000/svg">
<rect width="80" height="80" rx="16" fill="#F0F0F0"/>
<g clip-path="url(#clip0_2154_3515)">
<path d="M18.4735 6.66749H61.5291C63.0798 6.66599 64.6156 6.97815 66.0486 7.58612C67.4816 8.19409 68.7836 9.08592 69.8801 10.2106C70.9767 11.3352 71.8462 12.6706 72.439 14.1403C73.0317 15.6101 73.3361 17.1852 73.3346 18.7757V61.2259C73.3361 62.8164 73.0317 64.3916 72.439 65.8613C71.8462 67.331 70.9767 68.6664 69.8801 69.7911C68.7836 70.9157 67.4816 71.8076 66.0486 72.4155C64.6156 73.0235 63.0798 73.3356 61.5291 73.3342H18.4735C16.9228 73.3356 15.387 73.0235 13.954 72.4155C12.521 71.8076 11.219 70.9157 10.1225 69.7911C9.02594 68.6664 8.15641 67.331 7.56364 65.8613C6.97087 64.3916 6.66651 62.8164 6.66797 61.2259V18.7757C6.66651 17.1852 6.97087 15.6101 7.56364 14.1403C8.15641 12.6706 9.02594 11.3352 10.1225 10.2106C11.219 9.08592 12.521 8.19409 13.954 7.58612C15.387 6.97815 16.9228 6.66599 18.4735 6.66749Z" fill="#F0F0F0"/>
<path d="M33.85 52.4536C33.85 52.4536 32.1061 53.4678 35.0912 53.811C38.7075 54.2235 40.5558 54.1644 44.5411 53.4101C44.5411 53.4101 45.5888 54.0671 47.0521 54.6361C38.1182 58.465 26.8329 54.4143 33.85 52.4536Z" fill="#5382A1"/>
<path d="M32.757 47.4568C32.757 47.4568 30.801 48.9047 33.7883 49.2137C37.6514 49.6122 40.7022 49.6448 45.9812 48.6283C45.9812 48.6283 46.7114 49.3685 47.8595 49.7734C37.0579 52.9319 25.0268 50.0224 32.757 47.4568Z" fill="#5382A1"/>
<path d="M41.9605 38.981C44.1618 41.5154 41.3821 43.7961 41.3821 43.7961C41.3821 43.7961 46.9716 40.9106 44.4046 37.2973C42.0071 33.9277 40.1685 32.2535 50.1218 26.481C50.1218 26.481 34.4985 30.3829 41.9605 38.981Z" fill="#E76F00"/>
<path d="M53.777 56.1489C53.777 56.1489 55.0676 57.2123 52.3557 58.035C47.1989 59.5971 30.8927 60.0689 26.3629 58.0972C24.7345 57.3888 27.7881 56.4058 28.7487 56.1995C29.7504 55.9823 30.3229 56.0227 30.3229 56.0227C28.512 54.747 18.6181 58.5276 25.2973 59.6103C43.5124 62.5643 58.5018 58.2801 53.777 56.1489Z" fill="#5382A1"/>
<path d="M34.6874 42.2799C34.6874 42.2799 26.393 44.2499 31.7502 44.9653C34.0121 45.2682 38.5213 45.1997 42.7214 44.8478C46.154 44.5582 49.6007 43.9426 49.6007 43.9426C49.6007 43.9426 48.3904 44.4609 47.5147 45.0588C39.0919 47.274 22.8206 46.2435 27.5049 43.9776C31.4664 42.0627 34.6874 42.2799 34.6874 42.2799Z" fill="#5382A1"/>
<path d="M49.5666 50.5967C58.1288 46.1474 54.17 41.8718 51.4068 42.4478C50.7295 42.5888 50.4275 42.7109 50.4275 42.7109C50.4275 42.7109 50.679 42.317 51.1592 42.1466C56.6257 40.2247 60.8298 47.8148 49.3945 50.8209C49.3945 50.821 49.527 50.7026 49.5666 50.5967Z" fill="#5382A1"/>
<path d="M44.4068 17.1599C44.4068 17.1599 49.1486 21.9034 39.9093 29.1975C32.5003 35.0486 38.2198 38.3848 39.9062 42.1965C35.5815 38.2945 32.4077 34.8596 34.5369 31.6626C37.6621 26.9699 46.32 24.6946 44.4068 17.1599Z" fill="#E76F00"/>
<path d="M35.5301 62.6531C43.7488 63.1792 56.3694 62.3612 56.6683 58.4724C56.6683 58.4724 56.0937 59.9466 49.876 61.1174C42.8613 62.4375 34.2096 62.2834 29.0781 61.4373C29.0782 61.4372 30.1286 62.3067 35.5301 62.6531Z" fill="#5382A1"/>
</g>
<defs>
<clipPath id="clip0_2154_3515">
<rect width="66.6667" height="66.6667" fill="white" transform="translate(6.66797 6.66724)"/>
</clipPath>
</defs>
</svg>
