<svg width="81" height="80" viewBox="0 0 81 80" fill="none" xmlns="http://www.w3.org/2000/svg">
<g clip-path="url(#clip0_2154_7229)">
<path d="M0.199219 85H23.1992V-7H0.199219V85Z" fill="#E44D26"/>
<path d="M80.1992 85H58.1992V-7H80.1992V85Z" fill="#33A9DC"/>
<path d="M21.834 84.9917H40.5577V-6.979H21.834V84.9917Z" fill="#F16529"/>
<path d="M58.9863 84.9707H40.1988V-7H58.9863V84.9707Z" fill="#1572B6"/>
<path d="M21.8542 35.3696H14.2659L13.7417 29.4971H21.8542V23.7629H7.47461L7.61211 25.3013L9.02128 41.1042H21.8542V35.3696ZM21.8542 50.2625L21.8288 50.2696L15.4425 48.5446L15.0346 43.9717H9.27753L10.0809 52.9754L21.8279 56.2363L21.8542 56.2292V50.2625Z" fill="#EBEBEB"/>
<path d="M21.834 35.3696V41.1042H28.8952L28.2298 48.5413L21.834 50.2675V56.2338L33.5902 52.9754L33.6765 52.0067L35.024 36.9096L35.1636 35.3696H33.6186H21.834ZM21.834 23.7629V29.4971H35.6857L35.8007 28.2088L36.0623 25.3013L36.1994 23.7629H21.834Z" fill="white"/>
<path d="M58.9925 23.6003V29.3633H45.0725L44.9571 28.0683L44.6946 25.1466L44.5566 23.6003H58.9925V23.6003ZM58.9729 35.2653V41.0283H52.6358L52.5204 39.7333L52.2575 36.8116L52.12 35.2653H58.9729V35.2653Z" fill="#EBEBEB"/>
<path d="M66.108 40.7839L65.4138 48.5014L58.9863 50.2364V56.2323L70.8005 52.9581L70.8872 51.9843L71.8897 40.7839H66.108Z" fill="white"/>
<path d="M59.0051 50.2313L58.9797 50.2388L52.5618 48.5059L52.1514 43.9097H46.3672L47.1743 52.9584L58.9789 56.2347L59.0051 56.2272V50.2313V50.2313Z" fill="#EBEBEB"/>
<path d="M58.9727 35.2645H66.5985L67.1252 29.3633H58.9727V23.6003H73.4235L73.2852 25.1466L71.8685 41.0274H58.9727V35.2645Z" fill="white"/>
</g>
<defs>
<clipPath id="clip0_2154_7229">
<rect x="0.199219" width="80" height="80" rx="16" fill="white"/>
</clipPath>
</defs>
</svg>
