<svg width="81" height="80" viewBox="0 0 81 80" fill="none" xmlns="http://www.w3.org/2000/svg">
<rect x="0.599609" width="80" height="80" rx="16" fill="#EAFBFF"/>
<path d="M40.5996 45.9368C43.8788 45.9368 46.5371 43.2785 46.5371 39.9993C46.5371 36.7201 43.8788 34.0618 40.5996 34.0618C37.3204 34.0618 34.6621 36.7201 34.6621 39.9993C34.6621 43.2785 37.3204 45.9368 40.5996 45.9368Z" fill="#61DAFB"/>
<path d="M63.1523 30.2077C62.0065 29.791 60.8086 29.3743 59.5586 29.0098C59.8711 27.7598 60.1315 26.5098 60.3398 25.3118C61.4336 18.4368 60.2357 13.5931 56.9023 11.7181C55.9128 11.1452 54.819 10.8848 53.569 10.8848C49.9232 10.8848 45.2878 13.5931 40.6003 18.1243C35.9128 13.5931 31.2773 10.8848 27.6315 10.8848C26.3815 10.8848 25.2878 11.1452 24.2982 11.7181C20.9648 13.6452 19.7669 18.4889 20.8607 25.3118C21.069 26.5098 21.3294 27.7598 21.6419 29.0098C20.3919 29.3743 19.194 29.7389 18.0482 30.2077C11.5378 32.7077 7.99609 36.1452 7.99609 39.9993C7.99609 43.8535 11.5898 47.291 18.0482 49.791C19.194 50.2077 20.3919 50.6243 21.6419 50.9889C21.3294 52.2389 21.069 53.4889 20.8607 54.6868C19.7669 61.5618 20.9648 66.4056 24.2982 68.2806C25.2878 68.8535 26.3815 69.1139 27.6315 69.1139C31.3294 69.1139 35.9648 66.4056 40.6003 61.8743C45.2878 66.4056 49.9232 69.1139 53.569 69.1139C54.819 69.1139 55.9128 68.8535 56.9023 68.2806C60.2357 66.3535 61.4336 61.5098 60.3398 54.6868C60.1315 53.4889 59.8711 52.2389 59.5586 50.9889C60.8086 50.6243 62.0065 50.2598 63.1523 49.791C69.6628 47.291 73.2044 43.8535 73.2044 39.9993C73.2044 36.1452 69.6628 32.7077 63.1523 30.2077ZM55.444 14.3223C57.5794 15.5723 58.3086 19.4264 57.4232 24.8952C57.2669 25.9889 57.0065 27.1348 56.694 28.3327C53.9857 27.7077 51.1211 27.291 48.1003 27.0306C46.3294 24.5306 44.5065 22.291 42.6836 20.2598C46.5378 16.4577 50.444 13.8535 53.6211 13.8535C54.2982 13.8535 54.9232 14.0098 55.444 14.3223ZM49.6107 45.2077C48.6732 46.8743 47.5794 48.541 46.4336 50.2077C44.5065 50.3639 42.5794 50.416 40.6003 50.416C38.569 50.416 36.6419 50.3639 34.7669 50.2077C33.6211 48.541 32.5794 46.8743 31.6419 45.2077C30.6523 43.4889 29.7148 41.7181 28.8815 39.9993C29.7148 38.2806 30.6523 36.5098 31.6419 34.791C32.5794 33.1243 33.6732 31.4577 34.819 29.791C36.7461 29.6348 38.6732 29.5827 40.6523 29.5827C42.6836 29.5827 44.6107 29.6348 46.4857 29.791C47.6315 31.4577 48.6732 33.1243 49.6107 34.791C50.6003 36.5098 51.5378 38.2806 52.3711 39.9993C51.4857 41.7181 50.6003 43.4368 49.6107 45.2077ZM53.9336 43.4889C54.7148 45.3118 55.3398 47.0827 55.9128 48.8535C54.1419 49.2702 52.2669 49.5827 50.2878 49.8431C50.9128 48.8535 51.5898 47.8118 52.1628 46.7181C52.7878 45.6243 53.3607 44.5306 53.9336 43.4889ZM40.6003 57.6035C39.3503 56.2494 38.1523 54.791 37.0065 53.2806C38.2044 53.3327 39.4023 53.3848 40.6003 53.3848C41.7982 53.3848 42.9961 53.3327 44.194 53.2806C43.0482 54.791 41.8503 56.2494 40.6003 57.6035ZM30.9128 49.791C28.9336 49.5306 27.0586 49.2181 25.2878 48.8014C25.8607 47.0827 26.4857 45.2598 27.2669 43.4368C27.8398 44.4785 28.4128 45.5723 29.0378 46.6139C29.6628 47.7598 30.2878 48.7494 30.9128 49.791ZM27.2669 36.5098C26.4857 34.6868 25.8607 32.916 25.2878 31.1452C27.0586 30.7285 28.9336 30.416 30.9128 30.1556C30.2878 31.1452 29.6107 32.1868 29.0378 33.2806C28.4128 34.3743 27.8398 35.4681 27.2669 36.5098ZM40.6003 22.3952C41.8503 23.7493 43.0482 25.2077 44.194 26.7181C42.9961 26.666 41.7982 26.6139 40.6003 26.6139C39.4023 26.6139 38.2044 26.666 37.0065 26.7181C38.1523 25.2077 39.3503 23.7493 40.6003 22.3952ZM52.1628 33.3327L50.2878 30.2077C52.2669 30.4681 54.1419 30.7806 55.9128 31.1973C55.3398 32.916 54.7148 34.7389 53.9336 36.5618C53.3607 35.4681 52.7878 34.3743 52.1628 33.3327ZM23.7773 24.8952C22.8919 19.4264 23.6211 15.5723 25.7565 14.3223C26.2773 14.0098 26.9023 13.8535 27.5794 13.8535C30.7044 13.8535 34.6107 16.4056 38.5169 20.2598C36.694 22.2389 34.8711 24.5306 33.1003 27.0306C30.0794 27.291 27.2148 27.7598 24.5065 28.3327C24.194 27.1348 23.9857 25.9889 23.7773 24.8952ZM10.9128 39.9993C10.9128 37.5514 13.8815 34.9473 19.0898 33.0202C20.1315 32.6035 21.2773 32.2389 22.4232 31.9264C23.2565 34.5306 24.2982 37.291 25.5482 40.0514C24.2982 42.8118 23.2044 45.5202 22.4232 48.1243C15.2357 46.041 10.9128 42.916 10.9128 39.9993ZM25.7565 65.6764C23.6211 64.4264 22.8919 60.5723 23.7773 55.1035C23.9336 54.0098 24.194 52.8639 24.5065 51.666C27.2148 52.291 30.0794 52.7077 33.1003 52.9681C34.8711 55.4681 36.694 57.7077 38.5169 59.7389C34.6628 63.541 30.7565 66.1452 27.5794 66.1452C26.9023 66.1452 26.2773 65.9889 25.7565 65.6764ZM57.4232 55.1035C58.3086 60.5723 57.5794 64.4264 55.444 65.6764C54.9232 65.9889 54.2982 66.1452 53.6211 66.1452C50.4961 66.1452 46.5898 63.5931 42.6836 59.7389C44.5065 57.7598 46.3294 55.4681 48.1003 52.9681C51.1211 52.7077 53.9857 52.2389 56.694 51.666C57.0065 52.8639 57.2148 54.0098 57.4232 55.1035ZM62.1107 46.9785C61.069 47.3952 59.9232 47.7598 58.7773 48.0723C57.944 45.4681 56.9023 42.7077 55.6523 39.9473C56.9023 37.1868 57.9961 34.4785 58.7773 31.8743C65.9648 33.9577 70.2878 37.0827 70.2878 39.9993C70.2878 42.4473 67.2669 45.0514 62.1107 46.9785Z" fill="#61DAFB"/>
</svg>
