<svg width="81" height="80" viewBox="0 0 81 80" fill="none" xmlns="http://www.w3.org/2000/svg">
<rect x="0.199219" width="80" height="80" rx="16" fill="#007ACC"/>
<path d="M18.6719 31.1453H70.5833V69.5151H18.6719V31.1453Z" fill="white"/>
<path d="M7.64648 39.9525V72.5046H72.7506V7.40039H7.64648V39.9525ZM60.11 37.3483C61.6693 37.7102 63.0866 38.5257 64.1829 39.6921C64.7865 40.3204 65.3112 41.02 65.7454 41.7754C65.7454 41.8587 62.9329 43.7598 61.2194 44.8223C61.1569 44.8639 60.9069 44.5931 60.6309 44.1816C60.3181 43.6419 59.8736 43.1902 59.339 42.8687C58.8043 42.5472 58.197 42.3664 57.5736 42.3431C55.5996 42.2077 54.3288 43.2441 54.3392 44.9473C54.3229 45.3713 54.42 45.792 54.6204 46.166C55.0527 47.0671 55.86 47.6035 58.3913 48.6973C63.0527 50.7025 65.0475 52.0254 66.2871 53.9056C67.6725 55.9889 67.9798 59.3535 67.0423 61.8431C66.0006 64.5514 63.4486 66.39 59.8392 66.9993C58.1907 67.1882 56.525 67.1707 54.8809 66.9473C52.3609 66.5319 50.0396 65.322 48.2559 63.4941C47.6569 62.8327 46.4902 61.1087 46.5631 60.9837C46.7533 60.8426 46.9535 60.7155 47.1621 60.6035L49.5736 59.2702L51.4434 58.1868L51.834 58.765C52.4932 59.708 53.3322 60.5116 54.3027 61.1296C56.3861 62.2233 59.2298 62.0723 60.6361 60.8066C61.1082 60.3429 61.4028 59.7282 61.4684 59.0696C61.5341 58.4111 61.3667 57.7503 60.9954 57.2025C60.4746 56.4785 59.4329 55.8691 56.5215 54.5983C53.1621 53.1504 51.7142 52.2546 50.3913 50.8275C49.5654 49.8857 48.9557 48.7747 48.6048 47.5723C48.3431 46.1985 48.3044 44.7916 48.4902 43.4056C49.1829 40.1608 51.6152 37.8952 55.1673 37.2233C56.8123 37.0198 58.4786 37.0654 60.11 37.3587V37.3483ZM44.8288 40.0775V42.7441H36.3757V66.8223H30.3809V42.7389H21.9069V40.1348C21.8805 39.2367 21.9014 38.3379 21.9694 37.4421C22.0111 37.3952 27.1777 37.3952 33.4277 37.3952H44.7975L44.8288 40.0775Z" fill="#007ACC"/>
</svg>
