<svg width="81" height="80" viewBox="0 0 81 80" fill="none" xmlns="http://www.w3.org/2000/svg">
<rect x="0.398438" width="80" height="80" rx="16" fill="#000B1D"/>
<g clip-path="url(#clip0_2154_6922)">
<path d="M18.872 6.66749H61.9275C63.4783 6.66599 65.0141 6.97815 66.447 7.58612C67.88 8.19409 69.182 9.08592 70.2786 10.2106C71.3751 11.3352 72.2446 12.6706 72.8374 14.1403C73.4302 15.6101 73.7345 17.1852 73.7331 18.7757V61.2259C73.7345 62.8164 73.4302 64.3916 72.8374 65.8613C72.2446 67.331 71.3751 68.6664 70.2786 69.7911C69.182 70.9157 67.88 71.8076 66.447 72.4155C65.0141 73.0235 63.4783 73.3356 61.9275 73.3342H18.872C17.3212 73.3356 15.7854 73.0235 14.3524 72.4155C12.9195 71.8076 11.6175 70.9157 10.5209 69.7911C9.42438 68.6664 8.55485 67.331 7.96208 65.8613C7.36931 64.3916 7.06495 62.8164 7.06641 61.2259V18.7757C7.06495 17.1852 7.36931 15.6101 7.96208 14.1403C8.55485 12.6706 9.42438 11.3352 10.5209 10.2106C11.6175 9.08592 12.9195 8.19409 14.3524 7.58612C15.7854 6.97815 17.3212 6.66599 18.872 6.66749Z" fill="#000B1D"/>
<path d="M40.3064 17.6675C28.7508 17.6675 29.4724 22.6787 29.4724 22.6787L29.4853 27.8702H40.5125V29.429H25.1053C25.1053 29.429 17.7109 28.5904 17.7109 40.25C17.7109 51.9097 24.1649 51.4962 24.1649 51.4962H28.0167V46.0857C28.0167 46.0857 27.8091 39.6317 34.3677 39.6317C40.9262 39.6317 45.3047 39.6317 45.3047 39.6317C45.3047 39.6317 51.4495 39.731 51.4495 33.693C51.4495 27.6549 51.4495 23.7093 51.4495 23.7093C51.4495 23.7092 52.3825 17.6675 40.3064 17.6675ZM34.226 21.1586C35.3231 21.1586 36.2098 22.0453 36.2098 23.1424C36.2098 24.2396 35.3231 25.1263 34.226 25.1263C33.1288 25.1263 32.2421 24.2396 32.2421 23.1424C32.2421 22.0453 33.1288 21.1586 34.226 21.1586Z" fill="url(#paint0_linear_2154_6922)"/>
<path d="M40.6345 62.9497C52.19 62.9497 51.4684 57.9385 51.4684 57.9385L51.4555 52.747H40.4283V51.1882H55.8355C55.8355 51.1882 63.2299 52.0268 63.2299 40.3671C63.2299 28.7075 56.7759 29.121 56.7759 29.121H52.9241V34.5315C52.9241 34.5315 53.1317 40.9855 46.5732 40.9855C40.0146 40.9855 35.6361 40.9855 35.6361 40.9855C35.6361 40.9855 29.4913 40.8862 29.4913 46.9242C29.4913 52.9622 29.4913 56.9079 29.4913 56.9079C29.4913 56.9079 28.5584 62.9497 40.6345 62.9497ZM46.7149 59.4586C45.6177 59.4586 44.731 58.5719 44.731 57.4748C44.731 56.3776 45.6177 55.4909 46.7149 55.4909C47.812 55.4909 48.6987 56.3776 48.6987 57.4748C48.6987 58.5719 47.812 59.4586 46.7149 59.4586Z" fill="url(#paint1_linear_2154_6922)"/>
</g>
<defs>
<linearGradient id="paint0_linear_2154_6922" x1="22.0854" y1="21.6255" x2="44.5933" y2="44.2087" gradientUnits="userSpaceOnUse">
<stop stop-color="#387EB8"/>
<stop offset="1" stop-color="#366994"/>
</linearGradient>
<linearGradient id="paint1_linear_2154_6922" x1="35.9312" y1="35.9921" x2="60.1047" y2="59.1516" gradientUnits="userSpaceOnUse">
<stop stop-color="#FFE052"/>
<stop offset="1" stop-color="#FFC331"/>
</linearGradient>
<clipPath id="clip0_2154_6922">
<rect width="66.6667" height="66.6667" fill="white" transform="translate(7.06641 6.66724)"/>
</clipPath>
</defs>
</svg>
