<svg width="24" height="25" viewBox="0 0 24 25" fill="none" xmlns="http://www.w3.org/2000/svg">
<path d="M4 8.72412C3.72386 8.72412 3.5 8.94798 3.5 9.22412C3.5 9.50026 3.72386 9.72412 4 9.72412L4 8.72412ZM20.3536 9.57768C20.5488 9.38241 20.5488 9.06583 20.3536 8.87057L17.1716 5.68859C16.9763 5.49333 16.6597 5.49333 16.4645 5.68859C16.2692 5.88385 16.2692 6.20043 16.4645 6.3957L19.2929 9.22412L16.4645 12.0525C16.2692 12.2478 16.2692 12.5644 16.4645 12.7597C16.6597 12.9549 16.9763 12.9549 17.1716 12.7597L20.3536 9.57768ZM4 9.72412L20 9.72412L20 8.72412L4 8.72412L4 9.72412Z" fill="black"/>
<path d="M20 14.7241C20.2761 14.7241 20.5 14.948 20.5 15.2241C20.5 15.5003 20.2761 15.7241 20 15.7241L20 14.7241ZM3.64645 15.5777C3.45119 15.3824 3.45119 15.0658 3.64645 14.8706L6.82843 11.6886C7.02369 11.4933 7.34027 11.4933 7.53553 11.6886C7.7308 11.8839 7.7308 12.2004 7.53553 12.3957L4.70711 15.2241L7.53553 18.0525C7.7308 18.2478 7.7308 18.5644 7.53553 18.7597C7.34027 18.9549 7.02369 18.9549 6.82843 18.7597L3.64645 15.5777ZM20 15.7241L4 15.7241L4 14.7241L20 14.7241L20 15.7241Z" fill="black"/>
</svg>
