<svg width="24" height="24" viewBox="0 0 24 24" fill="none" xmlns="http://www.w3.org/2000/svg">
<path d="M4 8.5C3.72386 8.5 3.5 8.72386 3.5 9C3.5 9.27614 3.72386 9.5 4 9.5L4 8.5ZM20.3536 9.35355C20.5488 9.15829 20.5488 8.84171 20.3536 8.64645L17.1716 5.46447C16.9763 5.26921 16.6597 5.26921 16.4645 5.46447C16.2692 5.65973 16.2692 5.97631 16.4645 6.17157L19.2929 9L16.4645 11.8284C16.2692 12.0237 16.2692 12.3403 16.4645 12.5355C16.6597 12.7308 16.9763 12.7308 17.1716 12.5355L20.3536 9.35355ZM4 9.5L20 9.5L20 8.5L4 8.5L4 9.5Z" fill="#253CE5"/>
<path d="M20 14.5C20.2761 14.5 20.5 14.7239 20.5 15C20.5 15.2761 20.2761 15.5 20 15.5L20 14.5ZM3.64645 15.3536C3.45118 15.1583 3.45118 14.8417 3.64645 14.6464L6.82843 11.4645C7.02369 11.2692 7.34027 11.2692 7.53553 11.4645C7.7308 11.6597 7.7308 11.9763 7.53553 12.1716L4.70711 15L7.53553 17.8284C7.7308 18.0237 7.7308 18.3403 7.53553 18.5355C7.34027 18.7308 7.02369 18.7308 6.82843 18.5355L3.64645 15.3536ZM20 15.5L4 15.5L4 14.5L20 14.5L20 15.5Z" fill="#253CE5"/>
</svg>
