<svg width="24" height="25" viewBox="0 0 24 25" fill="none" xmlns="http://www.w3.org/2000/svg">
<path d="M8.5 8.78474H13.5M8.5 12.2247H15.5M7.44365 17.7202L8.60481 19.0093C9.19374 19.6631 10.2164 19.6718 10.8164 19.0283L12.0538 17.7012C12.3375 17.3969 12.7348 17.2241 13.1509 17.2241H18.5C19.3284 17.2241 20 16.5525 20 15.7241V5.72412C20 4.89569 19.3284 4.22412 18.5 4.22412H5.5C4.67157 4.22412 4 4.89569 4 5.72412V15.7241C4 16.5525 4.67157 17.2241 5.5 17.2241H6.32914C6.75415 17.2241 7.1592 17.4044 7.44365 17.7202Z" stroke="black" stroke-linecap="round"/>
</svg>
