<svg width="24" height="24" viewBox="0 0 24 24" fill="none" xmlns="http://www.w3.org/2000/svg">
<g clip-path="url(#clip0_760_20108)">
<path d="M2.93778 13.9799V9.73188C2.90478 3.97188 5.81478 1.77588 12.0488 1.77588C18.2198 1.81188 21.0968 4.00788 21.0638 9.73188V13.9799C21.0308 19.7759 17.9318 22.2239 11.9528 22.2239C5.97378 22.2239 2.96778 19.7759 2.93778 13.9799Z" fill="#253CE5"/>
<path d="M9.10086 13.5599C10.8654 13.5599 12.2959 11.9266 12.2959 9.91188C12.2959 7.89714 10.8654 6.26387 9.10086 6.26387C7.33631 6.26387 5.90586 7.89714 5.90586 9.91188C5.90586 11.9266 7.33631 13.5599 9.10086 13.5599Z" fill="white"/>
<path d="M9.62215 11.1448C10.5815 11.1448 11.3592 10.257 11.3592 9.16183C11.3592 8.06664 10.5815 7.17881 9.62215 7.17881C8.66284 7.17881 7.88516 8.06664 7.88516 9.16183C7.88516 10.257 8.66284 11.1448 9.62215 11.1448Z" fill="#253CE5"/>
<path d="M14.9841 13.5599C16.7486 13.5599 18.1791 11.9266 18.1791 9.91188C18.1791 7.89714 16.7486 6.26387 14.9841 6.26387C13.2195 6.26387 11.7891 7.89714 11.7891 9.91188C11.7891 11.9266 13.2195 13.5599 14.9841 13.5599Z" fill="white"/>
<path d="M15.5061 11.1448C16.4655 11.1448 17.2431 10.257 17.2431 9.16183C17.2431 8.06664 16.4655 7.17881 15.5061 7.17881C14.5468 7.17881 13.7691 8.06664 13.7691 9.16183C13.7691 10.257 14.5468 11.1448 15.5061 11.1448Z" fill="#253CE5"/>
</g>
<defs>
<clipPath id="clip0_760_20108">
<rect width="24" height="24" rx="5" fill="white"/>
</clipPath>
</defs>
</svg>
