<svg width="18" height="17" viewBox="0 0 18 17" fill="none" xmlns="http://www.w3.org/2000/svg">
<path d="M5.5 5.56061H10.5M5.5 9.00062H12.5M4.44365 14.4961L5.60481 15.7851C6.19374 16.4389 7.21635 16.4477 7.81642 15.8041L9.05375 14.4771C9.33747 14.1728 9.73482 14 10.1509 14H15.5C16.3284 14 17 13.3284 17 12.5V2.5C17 1.67157 16.3284 1 15.5 1H2.5C1.67157 1 1 1.67157 1 2.5V12.5C1 13.3284 1.67157 14 2.5 14H3.32914C3.75415 14 4.1592 14.1803 4.44365 14.4961Z" stroke="#828F9B" stroke-linecap="round"/>
</svg>
