<svg width="91" height="103" viewBox="0 0 91 103" fill="none" xmlns="http://www.w3.org/2000/svg">
<path d="M0.00138728 61.0201V39.78C-0.163613 10.98 14.3864 0 45.5564 0C76.4114 0.18 90.7964 11.16 90.6314 39.78V61.0201C90.4664 90.0001 74.9714 102.24 45.0764 102.24C15.1814 102.24 0.151387 90.0001 0.00138728 61.0201Z" fill="#253CE5"/>
<path d="M30.8168 58.9204C39.6395 58.9204 46.7918 50.7542 46.7918 40.6805C46.7918 30.6068 39.6395 22.4404 30.8168 22.4404C21.994 22.4404 14.8418 30.6068 14.8418 40.6805C14.8418 50.7542 21.994 58.9204 30.8168 58.9204Z" fill="white"/>
<path d="M33.4233 46.8457C38.2199 46.8457 42.1083 42.4066 42.1083 36.9307C42.1083 31.4548 38.2199 27.0156 33.4233 27.0156C28.6267 27.0156 24.7383 31.4548 24.7383 36.9307C24.7383 42.4066 28.6267 46.8457 33.4233 46.8457Z" fill="#253CE5"/>
<path d="M60.2328 58.9204C69.0556 58.9204 76.2078 50.7542 76.2078 40.6805C76.2078 30.6068 69.0556 22.4404 60.2328 22.4404C51.4101 22.4404 44.2578 30.6068 44.2578 40.6805C44.2578 50.7542 51.4101 58.9204 60.2328 58.9204Z" fill="white"/>
<path d="M62.8432 46.8457C67.6398 46.8457 71.5282 42.4066 71.5282 36.9307C71.5282 31.4548 67.6398 27.0156 62.8432 27.0156C58.0466 27.0156 54.1582 31.4548 54.1582 36.9307C54.1582 42.4066 58.0466 46.8457 62.8432 46.8457Z" fill="#253CE5"/>
<ellipse cx="64.9991" cy="33.3321" rx="3" ry="3.5" transform="rotate(-20.6123 64.9991 33.3321)" fill="white"/>
<ellipse cx="61.0651" cy="40.2632" rx="3.7611" ry="4.38795" transform="rotate(-20.6123 61.0651 40.2632)" fill="white"/>
<path d="M33 64.5104C33 73.5713 27.8513 78 21.5 78C15.1487 78 10 73.5713 10 64.5104C10 55.4495 21.5 43 21.5 43C21.5 43 33 55.4495 33 64.5104Z" fill="#BBC3F7"/>
<ellipse cx="35.9991" cy="33.5001" rx="3" ry="3.5" transform="rotate(-20.6123 35.9991 33.5001)" fill="white"/>
<ellipse cx="32.0651" cy="40.4312" rx="3.7611" ry="4.38795" transform="rotate(-20.6123 32.0651 40.4312)" fill="white"/>
</svg>
