<svg width="180" height="180" viewBox="0 0 180 180" fill="none" xmlns="http://www.w3.org/2000/svg">
<rect width="180" height="180" rx="90" fill="#F5F6F7"/>
<path d="M45.0014 100.02V78.78C44.8364 49.98 59.3864 39 90.5564 39C121.411 39.18 135.796 50.16 135.631 78.78V100.02C135.466 129 119.971 141.24 90.0764 141.24C60.1814 141.24 45.1514 129 45.0014 100.02Z" fill="#9FA8B2"/>
<path d="M75.8168 97.9204C84.6395 97.9204 91.7918 89.7542 91.7918 79.6805C91.7918 69.6068 84.6395 61.4404 75.8168 61.4404C66.994 61.4404 59.8418 69.6068 59.8418 79.6805C59.8418 89.7542 66.994 97.9204 75.8168 97.9204Z" fill="white"/>
<path d="M78.4233 85.8457C83.2199 85.8457 87.1083 81.4066 87.1083 75.9307C87.1083 70.4548 83.2199 66.0156 78.4233 66.0156C73.6267 66.0156 69.7383 70.4548 69.7383 75.9307C69.7383 81.4066 73.6267 85.8457 78.4233 85.8457Z" fill="#9FA8B2"/>
<path d="M105.233 97.9204C114.056 97.9204 121.208 89.7542 121.208 79.6805C121.208 69.6068 114.056 61.4404 105.233 61.4404C96.4101 61.4404 89.2578 69.6068 89.2578 79.6805C89.2578 89.7542 96.4101 97.9204 105.233 97.9204Z" fill="white"/>
<path d="M107.843 85.8457C112.64 85.8457 116.528 81.4066 116.528 75.9307C116.528 70.4548 112.64 66.0156 107.843 66.0156C103.047 66.0156 99.1582 70.4548 99.1582 75.9307C99.1582 81.4066 103.047 85.8457 107.843 85.8457Z" fill="#9FA8B2"/>
</svg>
