<svg width="24" height="24" viewBox="0 0 24 24" fill="none" xmlns="http://www.w3.org/2000/svg">
<path fill-rule="evenodd" clip-rule="evenodd" d="M6.47352 8.59533C5.6371 9.29494 4.94926 10.0281 4.45783 10.6039L4.39811 10.6736C4.05659 11.0719 3.73828 11.4431 3.73828 12C3.73828 12.5569 4.05659 12.9281 4.39811 13.3264L4.45783 13.3961C5.12934 14.1829 6.16759 15.2635 7.45054 16.1509C8.73034 17.036 10.292 17.7551 11.9997 17.7551C13.0481 17.7551 14.0414 17.4841 14.9482 17.07L14.1866 16.3085C13.4863 16.5874 12.752 16.7551 11.9997 16.7551C10.5718 16.7551 9.20853 16.1509 8.01937 15.3284C6.83335 14.5081 5.85862 13.497 5.21845 12.7469C4.7818 12.2354 4.73828 12.1482 4.73828 12C4.73828 11.8518 4.7818 11.7646 5.21845 11.2531C5.70101 10.6877 6.37367 9.97395 7.18363 9.30543L6.47352 8.59533ZM8.70219 10.824C8.5711 11.1915 8.49971 11.5874 8.49971 12C8.49971 13.933 10.0667 15.5 11.9997 15.5C12.4123 15.5 12.8082 15.4286 13.1757 15.2975L12.3534 14.4752C12.2378 14.4915 12.1198 14.5 11.9997 14.5C10.619 14.5 9.49971 13.3807 9.49971 12C9.49971 11.88 9.50818 11.7619 9.52454 11.6463L8.70219 10.824ZM11.6457 9.52487L10.8234 8.70258C11.191 8.57142 11.587 8.5 11.9997 8.5C13.9327 8.5 15.4997 10.067 15.4997 12C15.4997 12.4127 15.4283 12.8087 15.2971 13.1763L14.4748 12.354C14.4912 12.2384 14.4997 12.1202 14.4997 12C14.4997 10.6193 13.3804 9.5 11.9997 9.5C11.8795 9.5 11.7613 9.50848 11.6457 9.52487ZM16.8156 14.6947C17.6256 14.0262 18.2984 13.3124 18.781 12.7469C19.2176 12.2354 19.2611 12.1482 19.2611 12C19.2611 11.8518 19.2176 11.7646 18.781 11.2531C18.1408 10.503 17.1661 9.49188 15.9801 8.6716C14.7909 7.84915 13.4276 7.24487 11.9997 7.24487C11.2474 7.24487 10.5129 7.41263 9.8125 7.69166L9.05092 6.93008C9.95785 6.51594 10.9513 6.24487 11.9997 6.24487C13.7074 6.24487 15.2691 6.964 16.5489 7.84915C17.8318 8.73647 18.8701 9.81712 19.5416 10.6039L19.6013 10.6736L19.6013 10.6736C19.9428 11.0719 20.2611 11.4431 20.2611 12C20.2611 12.5569 19.9428 12.9281 19.6013 13.3264L19.5416 13.3961C19.0501 13.972 18.3622 14.7052 17.5257 15.4049L16.8156 14.6947Z" fill="black"/>
<path fill-rule="evenodd" clip-rule="evenodd" d="M3.67184 3.67184C3.8671 3.47658 4.18368 3.47658 4.37894 3.67184L20.328 19.6209C20.5233 19.8162 20.5233 20.1328 20.328 20.328C20.1328 20.5233 19.8162 20.5233 19.6209 20.328L3.67184 4.37894C3.47658 4.18368 3.47658 3.8671 3.67184 3.67184Z" fill="black"/>
</svg>
