<svg width="24" height="24" viewBox="0 0 24 24" fill="none" xmlns="http://www.w3.org/2000/svg">
<path d="M14.9997 12C14.9997 13.6569 13.6566 15 11.9997 15C10.3429 15 8.99971 13.6569 8.99971 12C8.99971 10.3431 10.3429 9 11.9997 9C13.6566 9 14.9997 10.3431 14.9997 12Z" stroke="#525C66"/>
<path d="M19.1613 10.9285C19.5612 11.397 19.7611 11.6313 19.7611 12C19.7611 12.3687 19.5612 12.603 19.1613 13.0715C17.8496 14.6083 15.1353 17.2551 11.9997 17.2551C8.8641 17.2551 6.14983 14.6083 4.83814 13.0715C4.43823 12.603 4.23828 12.3687 4.23828 12C4.23828 11.6313 4.43823 11.397 4.83814 10.9285C6.14983 9.39168 8.8641 6.74487 11.9997 6.74487C15.1353 6.74487 17.8496 9.39168 19.1613 10.9285Z" stroke="#525C66"/>
</svg>
