<svg width="25" height="24" viewBox="0 0 25 24" fill="none" xmlns="http://www.w3.org/2000/svg">
<g clip-path="url(#clip0_1546_10308)">
<g clip-path="url(#clip1_1546_10308)">
<path d="M4.80835 4.208C5.55435 4.814 5.83435 4.768 7.23635 4.674L20.4513 3.881C20.7313 3.881 20.4983 3.601 20.4053 3.555L18.2093 1.968C17.7893 1.642 17.2283 1.268 16.1543 1.361L3.35935 2.295C2.89335 2.341 2.79935 2.575 2.98535 2.761L4.80835 4.208ZM5.60135 7.288V21.192C5.60135 21.939 5.97435 22.219 6.81535 22.172L21.3383 21.332C22.1793 21.286 22.2733 20.772 22.2733 20.165V6.354C22.2733 5.748 22.0403 5.421 21.5253 5.467L6.34835 6.354C5.78835 6.401 5.60135 6.681 5.60135 7.287V7.288ZM19.9383 8.033C20.0313 8.453 19.9383 8.873 19.5183 8.921L18.8183 9.061V19.325C18.2103 19.652 17.6503 19.839 17.1833 19.839C16.4353 19.839 16.2483 19.605 15.6883 18.906L11.1113 11.72V18.672L12.5593 19C12.5593 19 12.5593 19.84 11.3913 19.84L8.16935 20.026C8.07635 19.84 8.16935 19.373 8.49635 19.28L9.33635 19.047V9.854L8.17135 9.76C8.07735 9.34 8.31135 8.734 8.96435 8.687L12.4203 8.454L17.1843 15.733V9.293L15.9693 9.154C15.8763 8.64 16.2493 8.267 16.7163 8.221L19.9383 8.033ZM2.28535 1.035L15.5953 0.0549961C17.2293 -0.0850039 17.6503 0.0079961 18.6773 0.754996L22.9263 3.741C23.6263 4.254 23.8603 4.394 23.8603 4.954V21.332C23.8603 22.358 23.4873 22.966 22.1803 23.058L6.72235 23.992C5.74235 24.039 5.27435 23.899 4.76035 23.245L1.63135 19.185C1.07135 18.438 0.838348 17.879 0.838348 17.225V2.667C0.838348 1.828 1.21235 1.127 2.28535 1.035Z" fill="#2F3437"/>
<path d="M4.80835 4.208C5.55435 4.814 5.83435 4.768 7.23635 4.674L20.4513 3.881C20.7313 3.881 20.4983 3.601 20.4053 3.555L18.2093 1.968C17.7893 1.642 17.2283 1.268 16.1543 1.361L3.35935 2.295C2.89335 2.341 2.79935 2.575 2.98535 2.761L4.80835 4.208Z" fill="white"/>
<path fill-rule="evenodd" clip-rule="evenodd" d="M5.60135 7.288V21.192C5.60135 21.939 5.97435 22.219 6.81535 22.172L21.3383 21.332C22.1793 21.286 22.2733 20.772 22.2733 20.165V6.354C22.2733 5.748 22.0403 5.421 21.5253 5.467L6.34835 6.354C5.78835 6.401 5.60135 6.681 5.60135 7.287V7.288ZM19.5183 8.921C19.9383 8.873 20.0313 8.453 19.9383 8.033L16.7163 8.221C16.2493 8.267 15.8763 8.64 15.9693 9.154L17.1843 9.293V15.733L12.4203 8.454L8.96435 8.687C8.31135 8.734 8.07735 9.34 8.17135 9.76L9.33635 9.854V19.047L8.49635 19.28C8.16935 19.373 8.07635 19.84 8.16935 20.026L11.3913 19.84C12.5593 19.84 12.5593 19 12.5593 19L11.1113 18.672V11.72L15.6883 18.906L15.6894 18.9073C16.2486 19.6053 16.4358 19.839 17.1833 19.839C17.6503 19.839 18.2103 19.652 18.8183 19.325V9.061L19.5183 8.921Z" fill="white"/>
</g>
</g>
<defs>
<clipPath id="clip0_1546_10308">
<rect width="24" height="24" fill="white" transform="translate(0.349335)"/>
</clipPath>
<clipPath id="clip1_1546_10308">
<rect width="24" height="24" fill="white" transform="translate(0.349335)"/>
</clipPath>
</defs>
</svg>
