<svg width="25" height="24" viewBox="0 0 25 24" fill="none" xmlns="http://www.w3.org/2000/svg">
<rect x="0.349335" width="24" height="24" rx="12" fill="white"/>
<path d="M12.3493 0C18.9793 0 24.3493 5.37 24.3493 12C24.3487 14.5143 23.5596 16.9651 22.0931 19.0074C20.6266 21.0498 18.5566 22.5808 16.1743 23.385C15.5743 23.505 15.3493 23.13 15.3493 22.815C15.3493 22.41 15.3643 21.12 15.3643 19.515C15.3643 18.39 14.9893 17.67 14.5543 17.295C17.2243 16.995 20.0293 15.975 20.0293 11.37C20.0293 10.05 19.5643 8.985 18.7993 8.145C18.9193 7.845 19.3393 6.615 18.6793 4.965C18.6793 4.965 17.6743 4.635 15.3793 6.195C14.4193 5.925 13.3993 5.79 12.3793 5.79C11.3593 5.79 10.3393 5.925 9.37934 6.195C7.08434 4.65 6.07934 4.965 6.07934 4.965C5.41934 6.615 5.83934 7.845 5.95934 8.145C5.19434 8.985 4.72934 10.065 4.72934 11.37C4.72934 15.96 7.51934 16.995 10.1893 17.295C9.84434 17.595 9.52934 18.12 9.42434 18.9C8.73434 19.215 7.00934 19.725 5.92934 17.91C5.70434 17.55 5.02934 16.665 4.08434 16.68C3.07934 16.695 3.67934 17.25 4.09934 17.475C4.60934 17.76 5.19434 18.825 5.32934 19.17C5.56934 19.845 6.34934 21.135 9.36434 20.58C9.36434 21.585 9.37934 22.53 9.37934 22.815C9.37934 23.13 9.15434 23.49 8.55434 23.385C6.16429 22.5895 4.08544 21.0615 2.61267 19.018C1.1399 16.9744 0.348014 14.519 0.349336 12C0.349336 5.37 5.71934 0 12.3493 0Z" fill="#24292F"/>
</svg>
