<svg width="100" height="100" viewBox="0 0 100 100" fill="none" xmlns="http://www.w3.org/2000/svg">
<g clipPath="url(#clip0_826_4714)">
<path d="M97.4545 45.6078L54.3943 2.54995C51.9162 0.0702637 47.8943 0.0702637 45.4123 2.54995L36.4725 11.4921L47.8147 22.8343C50.4514 21.9445 53.4733 22.5414 55.574 24.6421C56.5752 25.6442 57.2742 26.9078 57.5909 28.2884C57.9077 29.669 57.8296 31.1109 57.3654 32.4492L68.2967 43.382C70.9412 42.4703 73.9936 43.0593 76.1045 45.1749C79.0576 48.1257 79.0576 52.9093 76.1045 55.8617C75.4027 56.5638 74.5695 57.1208 73.6524 57.5008C72.7353 57.8808 71.7523 58.0764 70.7596 58.0764C69.7669 58.0764 68.7839 57.8808 67.8668 57.5008C66.9497 57.1208 66.1164 56.5638 65.4147 55.8617C64.3603 54.8066 63.6415 53.4633 63.3489 52.0007C63.0563 50.5381 63.2028 49.0216 63.7701 47.6421L53.5764 37.4476L53.5748 64.2765C54.3144 64.6407 54.9897 65.1231 55.574 65.7046C58.5264 68.6554 58.5264 73.4374 55.574 76.3945C52.6217 79.3453 47.8365 79.3453 44.8873 76.3945C41.9358 73.4382 41.6936 68.6562 44.6444 65.7046C45.374 64.9757 46.0936 64.4249 46.8748 64.0562V36.9789C46.0936 36.6101 45.3748 36.0632 44.6436 35.3296C42.4084 33.0953 41.9904 29.814 43.1373 27.0671L32.0178 15.8851L2.52248 45.4085C0.0420107 47.8906 0.0576356 51.9124 2.5381 54.3929L45.6053 97.4507C48.0842 99.9304 52.1092 99.9304 54.592 97.4507L97.4514 54.5929C99.9318 52.1117 99.9342 48.0874 97.4545 45.6078Z" fill="#F34F29"/>
</g>
<defs>
<clipPath id="clip0_826_4714">
<rect width="100" height="100" rx="50" fill="white"/>
</clipPath>
</defs>
</svg>