<svg width="20" height="21" viewBox="0 0 20 21" fill="none" xmlns="http://www.w3.org/2000/svg">
<rect y="0.5" width="20" height="20" rx="3.07692" fill="#BBC2C9"/>
<path d="M10.8396 2.91452L17.8369 9.91141C18.2398 10.3144 18.2394 10.9683 17.8364 11.3715L10.8717 18.3359C10.4683 18.7388 9.81419 18.7388 9.41137 18.3359L2.41295 11.339C2.00988 10.9359 2.00734 10.2824 2.41042 9.87904L9.38001 2.91452C9.78334 2.51157 10.4369 2.51157 10.8396 2.91452Z" fill="white"/>
<path d="M17.8369 9.91141L10.8396 2.91452C10.4369 2.51157 9.78335 2.51157 9.38001 2.91452L7.92729 4.36762L9.7704 6.21073C10.1989 6.06613 10.6899 6.16312 11.0313 6.5045C11.194 6.66733 11.3076 6.87266 11.359 7.09701C11.4105 7.32136 11.3978 7.55567 11.3224 7.77314L13.0987 9.54972C13.5285 9.40157 14.0245 9.49729 14.3675 9.84108C14.8474 10.3206 14.8474 11.0979 14.3675 11.5777C14.2535 11.6918 14.1181 11.7823 13.969 11.844C13.82 11.9058 13.6603 11.9376 13.4989 11.9376C13.3376 11.9376 13.1779 11.9058 13.0289 11.844C12.8798 11.7823 12.7444 11.6918 12.6304 11.5777C12.4591 11.4062 12.3423 11.1879 12.2947 10.9503C12.2472 10.7126 12.271 10.4662 12.3632 10.242L10.7067 8.58539L10.7064 12.9451C10.8266 13.0043 10.9363 13.0827 11.0313 13.1772C11.5111 13.6567 11.5111 14.4337 11.0313 14.9143C10.5515 15.3938 9.77395 15.3938 9.2947 14.9143C8.81507 14.4339 8.77572 13.6568 9.25522 13.1772C9.37379 13.0587 9.49072 12.9692 9.61767 12.9093V8.50921C9.49072 8.44929 9.37392 8.36042 9.25509 8.24122C8.89188 7.87813 8.82396 7.34493 9.01033 6.89856L7.2034 5.08148L2.41042 9.87904C2.00734 10.2824 2.00988 10.9359 2.41295 11.339L9.41137 18.3359C9.81419 18.7388 10.4683 18.7388 10.8717 18.3359L17.8364 11.3715C18.2394 10.9683 18.2398 10.3144 17.8369 9.91141Z" fill="#D7DBDF"/>
</svg>
