<svg width="80" height="80" viewBox="0 0 80 80" fill="none" xmlns="http://www.w3.org/2000/svg">
<rect width="80" height="80" rx="16" fill="#FFE3DC"/>
<path d="M43.3564 9.65758L71.3455 37.6452C72.9573 39.257 72.9558 41.8727 71.3435 43.4855L43.4849 71.3431C41.8711 72.9549 39.2548 72.9549 37.6435 71.3431L9.64987 43.3555C8.03756 41.7432 8.0274 39.129 9.63971 37.5157L37.5181 9.65758C39.1314 8.04578 41.7456 8.04578 43.3564 9.65758Z" fill="white"/>
<path d="M71.3455 37.6452L43.3564 9.65758C41.7456 8.04578 39.1314 8.04578 37.5181 9.65758L31.7072 15.47L39.0796 22.8424C40.7935 22.264 42.7577 22.652 44.1232 24.0175C44.774 24.6688 45.2283 25.4902 45.4342 26.3876C45.6401 27.285 45.5893 28.2222 45.2876 29.0921L52.393 36.1984C54.1119 35.6058 56.0959 35.9887 57.468 37.3638C59.3876 39.2818 59.3876 42.3912 57.468 44.3102C57.0119 44.7666 56.4703 45.1286 55.8741 45.3756C55.278 45.6226 54.6391 45.7497 53.9938 45.7497C53.3486 45.7497 52.7096 45.6226 52.1135 45.3756C51.5174 45.1286 50.9758 44.7666 50.5196 44.3102C49.8343 43.6244 49.3671 42.7512 49.1769 41.8006C48.9867 40.8499 49.0819 39.8642 49.4507 38.9675L42.8247 32.3411L42.8237 49.7798C43.3045 50.0166 43.7434 50.3301 44.1232 50.7081C46.0422 52.6261 46.0422 55.7345 44.1232 57.6565C42.2042 59.5745 39.0939 59.5745 37.1769 57.6565C35.2583 55.735 35.1009 52.6266 37.0189 50.7081C37.4932 50.2343 37.9609 49.8763 38.4687 49.6366V32.0364C37.9609 31.7967 37.4937 31.4412 37.0184 30.9644C35.5656 29.512 35.2939 27.3792 36.0394 25.5938L28.8117 18.3254L9.63971 37.5157C8.0274 39.129 8.03756 41.7432 9.64987 43.3555L37.6435 71.3431C39.2548 72.9549 41.8711 72.9549 43.4849 71.3431L71.3435 43.4855C72.9558 41.8727 72.9573 39.257 71.3455 37.6452Z" fill="#F34F29"/>
</svg>
