<svg width="24" height="24" viewBox="0 0 24 24" fill="none" xmlns="http://www.w3.org/2000/svg">
<g opacity="0.8">
<g clipPath="url(#clip0_907_9418)">
<path d="M23.3894 10.9457L13.055 0.611871C12.4602 0.0167461 11.495 0.0167461 10.8993 0.611871L8.75375 2.758L11.4759 5.48012C12.1087 5.26656 12.8339 5.40981 13.3381 5.914C13.5784 6.15449 13.7461 6.45775 13.8222 6.78909C13.8982 7.12044 13.8795 7.4665 13.7681 7.78768L16.3916 10.4116C17.0262 10.1927 17.7588 10.3341 18.2654 10.8419C18.9742 11.5501 18.9742 12.6981 18.2654 13.4067C18.097 13.5752 17.897 13.7089 17.6769 13.8001C17.4568 13.8913 17.2209 13.9382 16.9827 13.9382C16.7444 13.9382 16.5085 13.8913 16.2884 13.8001C16.0683 13.7089 15.8683 13.5752 15.6999 13.4067C15.4468 13.1535 15.2743 12.8311 15.2041 12.48C15.1339 12.129 15.169 11.7651 15.3052 11.434L12.8587 8.98731L12.8583 15.4262C13.0358 15.5137 13.1979 15.6294 13.3381 15.769C14.0467 16.4772 14.0467 17.6249 13.3381 18.3346C12.6296 19.0427 11.4811 19.0427 10.7733 18.3346C10.0649 17.6251 10.0068 16.4774 10.715 15.769C10.8901 15.5941 11.0628 15.4619 11.2503 15.3734V8.87481C11.0628 8.78631 10.8903 8.65506 10.7148 8.479C10.1784 7.94275 10.0781 7.15525 10.3533 6.496L7.68462 3.81231L0.605747 10.8979C0.0104341 11.4936 0.0141841 12.4589 0.609497 13.0542L10.9456 23.3881C11.5406 23.9832 12.5066 23.9832 13.1024 23.3881L23.3887 13.1022C23.984 12.5067 23.9846 11.5409 23.3894 10.9457Z" fill="#D7DBDF"/>
</g>
</g>
<defs>
<clipPath id="clip0_907_9418">
<rect width="24" height="24" rx="12" fill="white"/>
</clipPath>
</defs>
</svg>