<svg width="26" height="27" viewBox="0 0 26 27" fill="none" xmlns="http://www.w3.org/2000/svg">
<rect y="0.75" width="25.5" height="25.5" rx="12.75" fill="white" />
<path d="M12.75 0.75C19.7944 0.75 25.5 6.45562 25.5 13.5C25.4993 16.1714 24.6609 18.7754 23.1027 20.9454C21.5446 23.1154 19.3452 24.7421 16.8141 25.5966C16.1766 25.7241 15.9375 25.3256 15.9375 24.9909C15.9375 24.5606 15.9534 23.19 15.9534 21.4847C15.9534 20.2894 15.555 19.5244 15.0928 19.1259C17.9297 18.8072 20.91 17.7234 20.91 12.8306C20.91 11.4281 20.4159 10.2966 19.6031 9.40406C19.7306 9.08531 20.1769 7.77844 19.4756 6.02531C19.4756 6.02531 18.4078 5.67469 15.9694 7.33219C14.9494 7.04531 13.8656 6.90187 12.7819 6.90187C11.6981 6.90187 10.6144 7.04531 9.59438 7.33219C7.15594 5.69062 6.08813 6.02531 6.08813 6.02531C5.38688 7.77844 5.83313 9.08531 5.96063 9.40406C5.14781 10.2966 4.65375 11.4441 4.65375 12.8306C4.65375 17.7075 7.61813 18.8072 10.455 19.1259C10.0884 19.4447 9.75375 20.0025 9.64219 20.8312C8.90907 21.1659 7.07625 21.7078 5.92875 19.7794C5.68969 19.3969 4.9725 18.4566 3.96844 18.4725C2.90063 18.4884 3.53813 19.0781 3.98438 19.3172C4.52625 19.62 5.14781 20.7516 5.29125 21.1181C5.54625 21.8353 6.375 23.2059 9.57844 22.6162C9.57844 23.6841 9.59438 24.6881 9.59438 24.9909C9.59438 25.3256 9.35531 25.7081 8.71781 25.5966C6.17839 24.7513 3.96961 23.1279 2.40479 20.9566C0.839981 18.7853 -0.00140326 16.1764 1.75681e-06 13.5C1.75681e-06 6.45562 5.70563 0.75 12.75 0.75Z" fill="#24292F"
/>
</svg>