<svg width="524" height="65" viewBox="0 0 524 65" fill="none" xmlns="http://www.w3.org/2000/svg">
<g clip-path="url(#clip0_1413_15976)">
<path d="M475.647 1.22672L475.637 1.22409C472.046 0.245605 468.341 2.36387 467.363 5.95537L454.527 53.0682C453.549 56.6597 455.667 60.3644 459.258 61.3428L459.268 61.3455C462.859 62.324 466.564 60.2057 467.543 56.6142L480.378 9.50139C481.357 5.90989 479.238 2.2052 475.647 1.22672Z" fill="#253CE5"/>
<path d="M520.61 25.4799L520.67 25.4199L497.54 2.28989C495.1 -0.150114 491.29 -0.720114 488.34 1.06989C483.95 3.73989 483.45 9.52989 486.83 12.9099L503.92 29.9999C505.16 31.2399 505.16 33.2599 503.92 34.4999L486.88 51.5399C484.44 53.9799 483.86 57.8099 485.66 60.7599C488.33 65.1299 494.12 65.6299 497.5 62.2499L520.06 39.6899C523.96 35.7899 524.13 29.5899 520.6 25.4799H520.61Z" fill="#253CE5"/>
<path d="M2.52005 25.48L2.46005 25.42L25.6 2.27003C27.9 -0.0299659 31.47 -0.709966 34.35 0.820034C39.13 3.36003 39.78 9.42003 36.29 12.91L19.2 30C17.96 31.24 17.96 33.26 19.2 34.5L36.24 51.54C38.68 53.98 39.26 57.81 37.46 60.76C34.79 65.13 29 65.63 25.62 62.25L3.06005 39.69C-0.839952 35.79 -1.00995 29.59 2.52005 25.48Z" fill="#253CE5"/>
<path d="M90.41 37.9901C90.41 25.9301 98.51 18.3101 112.73 18.3101C112.82 18.3101 112.91 18.3101 113.01 18.3101C123.07 18.3501 131.15 26.6301 131.15 36.6901C131.15 40.2901 128.15 43.1701 124.56 43.0101C119.42 42.7901 114.36 42.2701 109.41 41.3501C108.77 41.2301 108.17 41.7201 108.17 42.3701C108.17 42.8601 108.5 43.2901 108.98 43.4001C114.45 44.6301 120.96 45.0801 126.97 45.2101C129.3 45.2601 131.15 47.1701 131.15 49.5001C131.15 50.9501 130.44 52.3301 129.21 53.0901C124.23 56.1901 118.21 57.1301 110.69 57.1301C98.51 57.1301 90.41 50.1101 90.41 37.9901Z" fill="#253CE5"/>
<path d="M145.07 56.17C139.44 56.17 134.87 51.6 134.87 45.97V19.45C134.87 13.82 139.44 9.25 145.07 9.25C150.7 9.25 155.27 13.82 155.27 19.45V45.97C155.27 51.6 150.7 56.17 145.07 56.17Z" fill="#253CE5"/>
<path d="M169.79 56.17C164.16 56.17 159.59 51.6 159.59 45.97V19.45C159.59 13.82 164.16 9.25 169.79 9.25C175.42 9.25 179.99 13.82 179.99 19.45V45.97C179.99 51.6 175.42 56.17 169.79 56.17Z" fill="#253CE5"/>
<path d="M183.05 37.9901C183.05 26.0501 192.17 18.3101 204.35 18.3101C216.53 18.3101 225.65 26.0501 225.65 37.9901C225.65 49.9301 216.53 57.7301 204.35 57.7301C192.17 57.7301 183.05 50.0501 183.05 37.9901Z" fill="#253CE5"/>
<path d="M250.35 46.62L246.21 19.69C245.37 14.2 249.62 9.23999 255.17 9.23999C259.75 9.23999 263.62 12.66 264.17 17.21L265.12 25.02L267.03 14.55C267.59 11.47 270.27 9.23999 273.4 9.23999C276.53 9.23999 279.21 11.48 279.77 14.55L281.68 25.02L282.63 17.21C283.18 12.66 287.05 9.23999 291.63 9.23999C297.19 9.23999 301.44 14.19 300.59 19.69L296.45 46.62C295.61 52.08 290.92 56.1 285.4 56.1C280.14 56.1 275.6 52.44 274.48 47.3L273.4 42.36L272.32 47.3C271.2 52.44 266.65 56.1 261.4 56.1C255.88 56.1 251.19 52.07 250.35 46.62Z" fill="#253CE5"/>
<path d="M300.71 37.9901C300.71 26.0501 309.83 18.3101 322.01 18.3101C334.19 18.3101 343.31 26.0501 343.31 37.9901C343.31 49.9301 334.19 57.7301 322.01 57.7301C309.83 57.7301 300.71 50.0501 300.71 37.9901Z" fill="#253CE5"/>
<path d="M365.62 21.9701C366.97 21.0601 368.59 20.3101 370.32 19.7701C375.21 18.2201 380.2 21.8701 380.2 27.0001C380.2 30.8701 377.28 34.1101 373.43 34.5301C370.7 34.8301 367.93 35.4101 365.56 36.4901V46.5701C365.56 51.8701 361.26 56.1701 355.96 56.1701C350.66 56.1701 346.36 51.8701 346.36 46.5701V29.1101C346.36 23.8101 350.66 19.5101 355.96 19.5101H360.29C362.34 19.5101 364.29 20.4101 365.62 21.9701Z" fill="#253CE5"/>
<path d="M393.16 56.17C387.53 56.17 382.96 51.6 382.96 45.97V19.45C382.96 13.82 387.53 9.25 393.16 9.25C398.79 9.25 403.36 13.82 403.36 19.45V45.97C403.36 51.6 398.79 56.17 393.16 56.17Z" fill="#253CE5"/>
<path d="M448.96 37.75C448.96 47.92 440.71 56.17 430.54 56.17C413.38 56.17 406.54 51.25 406.54 36.97C406.54 24.25 414.28 17.59 428.56 18.31C428.56 13.31 432.62 9.25 437.62 9.25H439.9C444.9 9.25 448.96 13.31 448.96 18.31V37.75Z" fill="#253CE5"/>
<path d="M110.3 37.6001C114.238 37.6001 117.43 33.9602 117.43 29.4701C117.43 24.98 114.238 21.3401 110.3 21.3401C106.362 21.3401 103.17 24.98 103.17 29.4701C103.17 33.9602 106.362 37.6001 110.3 37.6001Z" fill="white"/>
<path d="M111.46 32.2301C113.597 32.2301 115.33 30.2512 115.33 27.8101C115.33 25.369 113.597 23.3901 111.46 23.3901C109.323 23.3901 107.59 25.369 107.59 27.8101C107.59 30.2512 109.323 32.2301 111.46 32.2301Z" fill="#253CE5"/>
<path d="M123.42 37.6001C127.358 37.6001 130.55 33.9602 130.55 29.4701C130.55 24.98 127.358 21.3401 123.42 21.3401C119.482 21.3401 116.29 24.98 116.29 29.4701C116.29 33.9602 119.482 37.6001 123.42 37.6001Z" fill="white"/>
<path d="M124.58 32.2301C126.717 32.2301 128.45 30.2512 128.45 27.8101C128.45 25.369 126.717 23.3901 124.58 23.3901C122.443 23.3901 120.71 25.369 120.71 27.8101C120.71 30.2512 122.443 32.2301 124.58 32.2301Z" fill="#253CE5"/>
<path d="M207.54 40.8401C211.478 40.8401 214.67 37.2002 214.67 32.7101C214.67 28.22 211.478 24.5801 207.54 24.5801C203.602 24.5801 200.41 28.22 200.41 32.7101C200.41 37.2002 203.602 40.8401 207.54 40.8401Z" fill="white"/>
<path d="M206.38 35.4601C208.517 35.4601 210.25 33.4812 210.25 31.0401C210.25 28.599 208.517 26.6201 206.38 26.6201C204.243 26.6201 202.51 28.599 202.51 31.0401C202.51 33.4812 204.243 35.4601 206.38 35.4601Z" fill="#253CE5"/>
<path d="M194.42 40.8401C198.358 40.8401 201.55 37.2002 201.55 32.7101C201.55 28.22 198.358 24.5801 194.42 24.5801C190.482 24.5801 187.29 28.22 187.29 32.7101C187.29 37.2002 190.482 40.8401 194.42 40.8401Z" fill="white"/>
<path d="M193.26 35.4601C195.397 35.4601 197.13 33.4812 197.13 31.0401C197.13 28.599 195.397 26.6201 193.26 26.6201C191.123 26.6201 189.39 28.599 189.39 31.0401C189.39 33.4812 191.123 35.4601 193.26 35.4601Z" fill="#253CE5"/>
<path d="M317.97 40.8401C321.908 40.8401 325.1 37.2002 325.1 32.7101C325.1 28.22 321.908 24.5801 317.97 24.5801C314.032 24.5801 310.84 28.22 310.84 32.7101C310.84 37.2002 314.032 40.8401 317.97 40.8401Z" fill="white"/>
<path d="M319.14 35.4601C321.277 35.4601 323.01 33.4812 323.01 31.0401C323.01 28.599 321.277 26.6201 319.14 26.6201C317.003 26.6201 315.27 28.599 315.27 31.0401C315.27 33.4812 317.003 35.4601 319.14 35.4601Z" fill="#253CE5"/>
<path d="M331.1 40.8401C335.038 40.8401 338.23 37.2002 338.23 32.7101C338.23 28.22 335.038 24.5801 331.1 24.5801C327.162 24.5801 323.97 28.22 323.97 32.7101C323.97 37.2002 327.162 40.8401 331.1 40.8401Z" fill="white"/>
<path d="M332.26 35.4601C334.397 35.4601 336.13 33.4812 336.13 31.0401C336.13 28.599 334.397 26.6201 332.26 26.6201C330.123 26.6201 328.39 28.599 328.39 31.0401C328.39 33.4812 330.123 35.4601 332.26 35.4601Z" fill="#253CE5"/>
<path d="M431.29 40.8401C435.228 40.8401 438.42 37.2002 438.42 32.7101C438.42 28.22 435.228 24.5801 431.29 24.5801C427.352 24.5801 424.16 28.22 424.16 32.7101C424.16 37.2002 427.352 40.8401 431.29 40.8401Z" fill="white"/>
<path d="M430.13 35.4601C432.267 35.4601 434 33.4812 434 31.0401C434 28.599 432.267 26.6201 430.13 26.6201C427.993 26.6201 426.26 28.599 426.26 31.0401C426.26 33.4812 427.993 35.4601 430.13 35.4601Z" fill="#253CE5"/>
<path d="M418.17 40.8401C422.108 40.8401 425.3 37.2002 425.3 32.7101C425.3 28.22 422.108 24.5801 418.17 24.5801C414.232 24.5801 411.04 28.22 411.04 32.7101C411.04 37.2002 414.232 40.8401 418.17 40.8401Z" fill="white"/>
<path d="M417 35.4601C419.137 35.4601 420.87 33.4812 420.87 31.0401C420.87 28.599 419.137 26.6201 417 26.6201C414.863 26.6201 413.13 28.599 413.13 31.0401C413.13 33.4812 414.863 35.4601 417 35.4601Z" fill="#253CE5"/>
<g clip-path="url(#clip1_1413_15976)">
<path d="M87.2249 20.1151V45.2551C87.2249 51.2651 82.3449 56.1451 76.3349 56.1451C70.3249 56.1451 65.4449 51.2651 65.4449 45.2551V38.4651H63.3449V45.2551C63.3449 51.2651 58.4649 56.1451 52.4549 56.1451C46.4449 56.1451 41.5649 51.2651 41.5649 45.2551V20.1151C41.5649 14.1051 46.4449 9.2251 52.4549 9.2251C58.4649 9.2251 63.3449 14.1051 63.3449 20.1151V26.9051H65.4449V20.1151C65.4449 14.1051 70.3249 9.2251 76.3349 9.2251C82.3449 9.2251 87.2249 14.1051 87.2249 20.1151Z" fill="#253CE5"/>
</g>
</g>
<defs>
<clipPath id="clip0_1413_15976">
<rect width="523.13" height="64.45" fill="white"/>
</clipPath>
<clipPath id="clip1_1413_15976">
<rect width="45.66" height="46.92" fill="white" transform="translate(41.5649 9.2251)"/>
</clipPath>
</defs>
</svg>
