<svg width="20" height="21" viewBox="0 0 20 21" fill="none" xmlns="http://www.w3.org/2000/svg">
<g clip-path="url(#clip0_2487_28840)">
<path d="M5.40625 21.748H10.0872V-1.24463H5.40625V21.748Z" fill="#D7DBDF"/>
<path d="M0 21.75H5.5V-1.25H0V21.75Z" fill="#BBC2C9"/>
<rect x="14.5" y="-1.24976" width="5.5" height="23" fill="#D7DBDF"/>
<path d="M14.6953 21.748H9.99843V-1.24463H14.6953V21.748Z" fill="#BBC2C9"/>
<path d="M5.41521 9.44244H3.51812L3.38708 7.97431H5.41521V6.54077H1.82031L1.85469 6.92535L2.20698 10.8761H5.41521V9.44244ZM5.41521 13.1657L5.40885 13.1674L3.81229 12.7362L3.71031 11.593H2.27104L2.47187 13.8439L5.40865 14.6591L5.41521 14.6573V13.1657Z" fill="#F5F6F7"/>
<path d="M5.41016 9.44244V10.8761H7.17547L7.00911 12.7354L5.41016 13.1669V14.6585L8.34922 13.8439L8.37078 13.6017L8.70766 9.82744L8.74255 9.44244H8.3563H5.41016ZM5.41016 6.54077V7.97431H8.87307L8.90182 7.65223L8.96724 6.92535L9.00151 6.54077H5.41016Z" fill="#F5F6F7"/>
<path d="M14.6988 6.5V7.94073H11.2188L11.1899 7.61698L11.1243 6.88656L11.0898 6.5H14.6988ZM14.6939 9.41625V10.857H13.1096L13.0808 10.5332L13.0151 9.80281L12.9807 9.41625H14.6939Z" fill="#F5F6F7"/>
<path d="M16.4757 10.7959L16.3022 12.7253L14.6953 13.159V14.658L17.6489 13.8394L17.6705 13.596L17.9211 10.7959H16.4757Z" fill="#F5F6F7"/>
<path d="M14.7024 13.1578L14.6961 13.1597L13.0916 12.7265L12.989 11.5774H11.543L11.7447 13.8396L14.6959 14.6586L14.7024 14.6568V13.1578Z" fill="#F5F6F7"/>
<path d="M14.6953 9.41604H16.6018L16.7334 7.94073H14.6953V6.5H18.308L18.2734 6.88656L17.9193 10.8568H14.6953V9.41604Z" fill="#F5F6F7"/>
</g>
<defs>
<clipPath id="clip0_2487_28840">
<rect y="0.5" width="20" height="20" rx="3.07692" fill="white"/>
</clipPath>
</defs>
</svg>
