<svg width="100" height="100" viewBox="0 0 100 100" fill="none" xmlns="http://www.w3.org/2000/svg">
<g clipPath="url(#clip0_826_8007)">
<path d="M-2.18557e-06 50C-9.78513e-07 77.6142 22.3858 100 50 100L50 -2.18557e-06C22.3858 -9.78513e-07 -3.39263e-06 22.3858 -2.18557e-06 50Z" fill="#E44D26"/>
<path d="M27.043 106.24H50.4477V-8.72388H27.043V106.24Z" fill="#F16529"/>
<path d="M100 50C100 77.6142 77.6142 100 50 100L50 -2.18557e-06C77.6142 -9.78513e-07 100 22.3858 100 50Z" fill="#33A9DC"/>
<path d="M73.4844 106.24H49.9999V-8.72388H73.4844V106.24Z" fill="#1572B6"/>
<path d="M27.0682 44.2124H17.5828L16.9276 36.8718H27.0682V29.7041H9.09375L9.26562 31.627L11.0271 51.3807H27.0682V44.2124ZM27.0682 62.8286L27.0365 62.8374L19.0536 60.6812L18.5437 54.965H11.3474L12.3516 66.2197L27.0354 70.2958L27.0682 70.2869V62.8286Z" fill="#EBEBEB"/>
<path d="M27.043 44.2124V51.3807H35.8695L35.0378 60.677L27.043 62.8348V70.2926L41.7383 66.2197L41.8461 65.0088L43.5305 46.1374L43.705 44.2124H41.7737H27.043ZM27.043 29.7041V36.8718H44.3576L44.5013 35.2614L44.8284 31.627L44.9997 29.7041H27.043Z" fill="white"/>
<path d="M73.4921 29.5V36.7036H56.0921L55.9478 35.0849L55.6197 31.4328L55.4473 29.5H73.4921ZM73.4676 44.0812V51.2849H65.5462L65.402 49.6661L65.0733 46.0141L64.9014 44.0812H73.4676Z" fill="#EBEBEB"/>
<path d="M82.3865 50.9795L81.5187 60.6264L73.4844 62.7951V70.2899L88.2521 66.1972L88.3604 64.98L89.6135 50.9795H82.3865Z" fill="white"/>
<path d="M73.5083 62.7888L73.4766 62.7982L65.4542 60.632L64.9411 54.8867H57.7109L58.7198 66.1977L73.4755 70.293L73.5083 70.2836V62.7888Z" fill="#EBEBEB"/>
<path d="M73.4668 44.0802H82.9991L83.6574 36.7036H73.4668V29.5H91.5303L91.3574 31.4328L89.5866 51.2839H73.4668V44.0802Z" fill="white"/>
</g>
<defs>
<clipPath id="clip0_826_8007">
<rect width="100" height="100" rx="50" fill="white"/>
</clipPath>
</defs>
</svg>