<svg width="24" height="24" viewBox="0 0 24 24" fill="none" xmlns="http://www.w3.org/2000/svg">
<g opacity="0.8">
<g clipPath="url(#clip0_907_9388)">
<path d="M-5.24537e-07 12C-2.34843e-07 18.6274 5.37258 24 12 24L12 -5.24537e-07C5.37258 -2.34843e-07 -8.1423e-07 5.37258 -5.24537e-07 12Z" fill="#9FA8B2"/>
<path d="M6.49023 25.4975H12.1074V-2.09375H6.49023V25.4975Z" fill="#BBC2C9"/>
<path d="M24 12C24 18.6274 18.6274 24 12 24L12 -5.24537e-07C18.6274 -2.34843e-07 24 5.37258 24 12Z" fill="#BBC2C9"/>
<path d="M17.6367 25.4975H12.0005V-2.09375H17.6367V25.4975Z" fill="#9FA8B2"/>
<path d="M6.49649 10.6109H4.21999L4.06274 8.84916H6.49649V7.12891H2.18262L2.22387 7.59041L2.64662 12.3313H6.49649V10.6109ZM6.49649 15.0788L6.48887 15.0809L4.57299 14.5634L4.45062 13.1915H2.72349L2.96449 15.8927L6.48862 16.8709L6.49649 16.8688V15.0788Z" fill="#BBC2C9"/>
<path d="M6.49023 10.6109V12.3313H8.60861L8.40898 14.5624L6.49023 15.0803V16.8702L10.0171 15.8927L10.043 15.602L10.4472 11.0729L10.4891 10.6109H10.0256H6.49023ZM6.49023 7.12891V8.84916H10.6457L10.6802 8.46266L10.7587 7.59041L10.7999 7.12891H6.49023Z" fill="#D7DBDF"/>
<path d="M17.6384 7.08008V8.80895H13.4624L13.4277 8.42045L13.349 7.54395L13.3076 7.08008H17.6384ZM17.6325 10.5796V12.3085H15.7314L15.6967 11.92L15.6179 11.0435L15.5766 10.5796H17.6325Z" fill="#BBC2C9"/>
<path d="M19.7732 12.2351L19.565 14.5504L17.6367 15.0709V16.8696L21.181 15.8874L21.207 15.5952L21.5077 12.2351H19.7732Z" fill="#D7DBDF"/>
<path d="M17.6429 15.0694L17.6353 15.0716L15.7099 14.5517L15.5868 13.1729H13.8516L14.0937 15.8875L17.6351 16.8704L17.6429 16.8681V15.0694Z" fill="#BBC2C9"/>
<path d="M17.6318 10.5793H19.9196L20.0776 8.80895H17.6318V7.08008H21.9671L21.9256 7.54395L21.5006 12.3082H17.6318V10.5793Z" fill="#D7DBDF"/>
</g>
</g>
<defs>
<clipPath id="clip0_907_9388">
<rect width="24" height="24" rx="12" fill="white"/>
</clipPath>
</defs>
</svg>