<svg width="80" height="80" viewBox="0 0 80 80" fill="none" xmlns="http://www.w3.org/2000/svg">
<g clip-path="url(#clip0_726_4058)">
<path d="M0 85H23V-7H0V85Z" fill="#E44D26"/>
<path d="M80 85H58V-7H80V85Z" fill="#33A9DC"/>
<path d="M21.6348 84.9917H40.3585V-6.979H21.6348V84.9917Z" fill="#F16529"/>
<path d="M58.7871 84.9707H39.9996V-7H58.7871V84.9707Z" fill="#1572B6"/>
<path d="M21.655 35.3696H14.0666L13.5425 29.4971H21.655V23.7629H7.27539L7.41289 25.3013L8.82206 41.1042H21.655V35.3696ZM21.655 50.2625L21.6296 50.2696L15.2433 48.5446L14.8354 43.9717H9.07831L9.88164 52.9754L21.6287 56.2363L21.655 56.2292V50.2625Z" fill="#EBEBEB"/>
<path d="M21.6348 35.3696V41.1042H28.696L28.0306 48.5413L21.6348 50.2675V56.2338L33.391 52.9754L33.4773 52.0067L34.8248 36.9096L34.9643 35.3696H33.4193H21.6348ZM21.6348 23.7629V29.4971H35.4864L35.6014 28.2088L35.8631 25.3013L36.0002 23.7629H21.6348Z" fill="white"/>
<path d="M58.7933 23.6003V29.3633H44.8733L44.7578 28.0683L44.4953 25.1466L44.3574 23.6003H58.7933ZM58.7737 35.2653V41.0283H52.4366L52.3212 39.7333L52.0583 36.8116L51.9208 35.2653H58.7737Z" fill="#EBEBEB"/>
<path d="M65.9088 40.7839L65.2146 48.5014L58.7871 50.2364V56.2323L70.6013 52.9581L70.6879 51.9844L71.6904 40.7839H65.9088Z" fill="white"/>
<path d="M58.8059 50.2313L58.7805 50.2388L52.3626 48.5059L51.9521 43.9097H46.168L46.9751 52.9584L58.7796 56.2347L58.8059 56.2272V50.2313Z" fill="#EBEBEB"/>
<path d="M58.7734 35.2645H66.3993L66.9259 29.3633H58.7734V23.6003H73.2243L73.0859 25.1466L71.6693 41.0274H58.7734V35.2645Z" fill="white"/>
</g>
<defs>
<clipPath id="clip0_726_4058">
<rect width="80" height="80" rx="16" fill="white"/>
</clipPath>
</defs>
</svg>
