<svg width="26" height="27" viewBox="0 0 103 105" fill="none" xmlns="http://www.w3.org/2000/svg">
<path d="M102.019 53.204C102.08 49.6257 101.711 46.053 100.919 42.563H52.0508V61.879H80.7358C80.1924 65.2658 78.9696 68.5078 77.1409 71.4099C75.3122 74.3119 72.9155 76.8141 70.0948 78.766L69.9948 79.413L85.4468 91.383L86.5168 91.49C96.3478 82.41 102.017 69.05 102.017 53.204" fill="#4285F4"
/>
<path d="M52.0488 104.1C66.1018 104.1 77.8998 99.473 86.5178 91.492L70.0928 78.768C65.6978 81.834 59.7988 83.974 52.0488 83.974C45.4668 83.9355 39.064 81.8253 33.7489 77.9427C28.4338 74.0602 24.4763 68.6025 22.4378 62.344L21.8278 62.396L5.76078 74.83L5.55078 75.414C9.87802 84.0381 16.5189 91.2885 24.7308 96.3544C32.9427 101.42 42.402 104.102 52.0508 104.1" fill="#34A853"
/>
<path d="M22.4388 62.3439C21.3003 59.0307 20.7129 55.5532 20.6998 52.0499C20.7208 48.5523 21.2866 45.0793 22.3768 41.7559L22.3478 41.0659L6.08381 28.4319L5.55181 28.6849C1.90142 35.9324 0 43.9345 0 52.0494C0 60.1643 1.90142 68.1664 5.55181 75.4139L22.4388 62.3439Z" fill="#FBBC05"
/>
<path d="M52.0508 20.126C59.5091 20.0101 66.7224 22.7878 72.1768 27.876L86.8668 13.533C77.4451 4.69427 64.9685 -0.155404 52.0508 -4.13142e-05C42.4021 -0.00233698 32.9429 2.67933 24.731 7.74511C16.5191 12.8109 9.87816 20.0611 5.55078 28.685L22.3818 41.756C24.4403 35.4985 28.411 30.045 33.7339 26.1644C39.0569 22.2837 45.4636 20.1717 52.0508 20.126Z" fill="#EB4335"
/>
</svg>