<svg width="100" height="100" viewBox="0 0 100 100" fill="none" xmlns="http://www.w3.org/2000/svg">
<rect width="100" height="100" rx="50" fill="#F7DF1E"/>
<g clipPath="url(#clip0_826_5191)">
<path d="M23.0909 8.3335H76.9104C78.8488 8.33163 80.7685 8.72184 82.5598 9.48179C84.351 10.2418 85.9785 11.3565 87.3492 12.7624C88.7198 14.1682 89.8068 15.8374 90.5477 17.6746C91.2887 19.5117 91.6691 21.4807 91.6673 23.4688V76.5315C91.6691 78.5196 91.2887 80.4886 90.5477 82.3258C89.8068 84.1629 88.7198 85.8322 87.3492 87.238C85.9785 88.6438 84.351 89.7586 82.5598 90.5185C80.7685 91.2785 78.8488 91.6687 76.9104 91.6668H23.0909C21.1525 91.6687 19.2328 91.2785 17.4415 90.5185C15.6503 89.7586 14.0228 88.6438 12.6521 87.238C11.2815 85.8322 10.1945 84.1629 9.45358 82.3258C8.71262 80.4886 8.33216 78.5196 8.33399 76.5315V23.4688C8.33216 21.4807 8.71262 19.5117 9.45358 17.6746C10.1945 15.8374 11.2815 14.1682 12.6521 12.7624C14.0228 11.3565 15.6503 10.2418 17.4415 9.48179C19.2328 8.72184 21.1525 8.33163 23.0909 8.3335Z" fill="#F7DF1E"/>
<path d="M64.455 73.5384C66.1336 76.2791 68.3174 78.2937 72.1799 78.2937C75.4246 78.2937 77.4973 76.672 77.4973 74.4312C77.4973 71.746 75.3677 70.795 71.7963 69.2328L69.8386 68.3929C64.1878 65.9854 60.4338 62.9696 60.4338 56.5939C60.4338 50.7209 64.9087 46.25 71.9021 46.25C76.8809 46.25 80.4603 47.9828 83.0397 52.5198L76.9418 56.4352C75.5992 54.0278 74.1508 53.0794 71.9021 53.0794C69.6084 53.0794 68.1547 54.5344 68.1547 56.4352C68.1547 58.7844 69.6098 59.7354 72.9696 61.1905L74.9272 62.0291C81.5807 64.8823 85.3373 67.791 85.3373 74.3307C85.3373 81.381 79.7989 85.2434 72.3611 85.2434C65.0886 85.2434 60.3902 81.7778 58.0912 77.2355L64.455 73.5384ZM36.7923 74.2169C38.0225 76.3995 39.1415 78.2447 41.832 78.2447C44.4047 78.2447 46.0278 77.2381 46.0278 73.3241V46.6971H53.8584V73.4299C53.8584 81.5384 49.1045 85.2288 42.1653 85.2288C35.8955 85.2288 32.2645 81.9841 30.418 78.0761L36.7923 74.2169Z" fill="black"/>
</g>
<defs>
<clipPath id="clip0_826_5191">
<rect width="83.3333" height="83.3333" fill="white" transform="translate(8.33398 8.3335)"/>
</clipPath>
</defs>
</svg>