<svg width="24" height="24" viewBox="0 0 24 24" fill="none" xmlns="http://www.w3.org/2000/svg">
<g opacity="0.8">
<rect width="24" height="24" rx="12" fill="#D7DBDF"/>
<g clipPath="url(#clip0_907_9797)">
<path d="M5.54167 2H18.4583C18.9236 1.99955 19.3843 2.0932 19.8142 2.27559C20.2441 2.45798 20.6347 2.72553 20.9636 3.06293C21.2926 3.40032 21.5535 3.80094 21.7313 4.24186C21.9091 4.68277 22.0004 5.15533 22 5.63248V18.3675C22.0004 18.8447 21.9091 19.3172 21.7313 19.7581C21.5535 20.1991 21.2926 20.5997 20.9636 20.9371C20.6347 21.2745 20.2441 21.542 19.8142 21.7244C19.3843 21.9068 18.9236 22.0004 18.4583 22H5.54167C5.07645 22.0004 4.61571 21.9068 4.18581 21.7244C3.75592 21.542 3.36532 21.2745 3.03635 20.9371C2.70739 20.5997 2.44653 20.1991 2.2687 19.7581C2.09087 19.3172 1.99956 18.8447 2 18.3675V5.63248C1.99956 5.15533 2.09087 4.68277 2.2687 4.24186C2.44653 3.80094 2.70739 3.40032 3.03635 3.06293C3.36532 2.72553 3.75592 2.45798 4.18581 2.27559C4.61571 2.0932 5.07645 1.99955 5.54167 2Z" fill="#D7DBDF"/>
<path d="M10.1542 15.7356C10.1542 15.7356 9.63103 16.0399 10.5266 16.1428C11.6115 16.2666 12.166 16.2488 13.3615 16.0225C13.3615 16.0225 13.6759 16.2196 14.1148 16.3903C11.4347 17.539 8.0491 16.3238 10.1542 15.7356Z" fill="#BBC2C9"/>
<path d="M9.82671 14.2366C9.82671 14.2366 9.2399 14.6709 10.1361 14.7636C11.295 14.8832 12.2103 14.893 13.794 14.588C13.794 14.588 14.013 14.8101 14.3575 14.9315C11.117 15.8791 7.50766 15.0063 9.82671 14.2366Z" fill="#BBC2C9"/>
<path d="M12.5881 11.6939C13.2485 12.4542 12.4146 13.1384 12.4146 13.1384C12.4146 13.1384 14.0915 12.2727 13.3214 11.1888C12.6021 10.1779 12.0506 9.67561 15.0365 7.94385C15.0365 7.94385 10.3495 9.11444 12.5881 11.6939Z" fill="#BBC2C9"/>
<path d="M16.1325 16.8441C16.1325 16.8441 16.5197 17.1631 15.7061 17.4099C14.1591 17.8785 9.26722 18.0201 7.90828 17.4286C7.41977 17.216 8.33586 16.9211 8.62402 16.8592C8.92455 16.7941 9.09629 16.8062 9.09629 16.8062C8.55302 16.4235 5.58483 17.5577 7.5886 17.8825C13.0531 18.7687 17.55 17.4834 16.1325 16.8441Z" fill="#BBC2C9"/>
<path d="M10.406 12.6834C10.406 12.6834 7.91771 13.2744 9.52486 13.489C10.2034 13.5799 11.5562 13.5593 12.8162 13.4537C13.846 13.3669 14.88 13.1822 14.88 13.1822C14.88 13.1822 14.5169 13.3377 14.2542 13.5171C11.7274 14.1816 6.84598 13.8725 8.25127 13.1927C9.43972 12.6182 10.406 12.6834 10.406 12.6834Z" fill="#BBC2C9"/>
<path d="M14.87 15.1786C17.4386 13.8438 16.251 12.5611 15.422 12.7339C15.2189 12.7762 15.1283 12.8129 15.1283 12.8129C15.1283 12.8129 15.2037 12.6947 15.3478 12.6436C16.9877 12.067 18.2489 14.344 14.8184 15.2459C14.8184 15.2459 14.8581 15.2104 14.87 15.1786Z" fill="#BBC2C9"/>
<path d="M13.3211 5.14746C13.3211 5.14746 14.7436 6.5705 11.9718 8.75873C9.74912 10.5141 11.465 11.5149 11.9709 12.6584C10.6735 11.4878 9.72133 10.4574 10.3601 9.49828C11.2977 8.09045 13.895 7.40787 13.3211 5.14746Z" fill="#BBC2C9"/>
<path d="M10.6583 18.7955C13.1238 18.9533 16.91 18.7079 16.9997 17.5413C16.9997 17.5413 16.8273 17.9835 14.962 18.3348C12.8576 18.7308 10.2621 18.6845 8.72266 18.4307C8.72269 18.4307 9.0378 18.6916 10.6583 18.7955Z" fill="#BBC2C9"/>
</g>
</g>
<defs>
<clipPath id="clip0_907_9797">
<rect width="20" height="20" fill="white" transform="translate(2 2)"/>
</clipPath>
</defs>
</svg>