<svg width="24" height="24" viewBox="0 0 24 24" fill="none" xmlns="http://www.w3.org/2000/svg">
<g opacity="0.8">
<rect width="24" height="24" rx="12" fill="#D7DBDF"/>
<g clipPath="url(#clip0_907_9401)">
<path d="M5.54167 2H18.4583C18.9236 1.99955 19.3843 2.0932 19.8142 2.27559C20.2441 2.45798 20.6347 2.72553 20.9636 3.06293C21.2926 3.40032 21.5535 3.80094 21.7313 4.24186C21.9091 4.68277 22.0004 5.15533 22 5.63248V18.3675C22.0004 18.8447 21.9091 19.3172 21.7313 19.7581C21.5535 20.1991 21.2926 20.5997 20.9636 20.9371C20.6347 21.2745 20.2441 21.542 19.8142 21.7244C19.3843 21.9068 18.9236 22.0004 18.4583 22H5.54167C5.07645 22.0004 4.6157 21.9068 4.18581 21.7244C3.75592 21.542 3.36532 21.2745 3.03635 20.9371C2.70739 20.5997 2.44653 20.1991 2.2687 19.7581C2.09087 19.3172 1.99956 18.8447 2 18.3675V5.63248C1.99956 5.15533 2.09087 4.68277 2.2687 4.24186C2.44653 3.80094 2.70739 3.40032 3.03635 3.06293C3.36532 2.72553 3.75592 2.45798 4.18581 2.27559C4.6157 2.0932 5.07645 1.99955 5.54167 2Z" fill="#D7DBDF"/>
<path d="M15.4687 17.6491C15.8716 18.3068 16.3957 18.7903 17.3227 18.7903C18.1014 18.7903 18.5989 18.4011 18.5989 17.8633C18.5989 17.2189 18.0877 16.9906 17.2306 16.6157L16.7608 16.4141C15.4046 15.8364 14.5036 15.1126 14.5036 13.5824C14.5036 12.1729 15.5776 11.0999 17.256 11.0999C18.4509 11.0999 19.31 11.5157 19.929 12.6046L18.4655 13.5443C18.1433 12.9665 17.7957 12.7389 17.256 12.7389C16.7055 12.7389 16.3566 13.0881 16.3566 13.5443C16.3566 14.1081 16.7058 14.3364 17.5122 14.6856L17.982 14.8868C19.5789 15.5716 20.4804 16.2697 20.4804 17.8392C20.4804 19.5313 19.1512 20.4583 17.3662 20.4583C15.6208 20.4583 14.4931 19.6265 13.9414 18.5364L15.4687 17.6491ZM8.82965 17.8119C9.12488 18.3357 9.39346 18.7786 10.0392 18.7786C10.6566 18.7786 11.0462 18.537 11.0462 17.5976V11.2072H12.9255V17.623C12.9255 19.5691 11.7846 20.4548 10.1192 20.4548C8.61441 20.4548 7.74298 19.676 7.2998 18.7381L8.82965 17.8119Z" fill="#BBC2C9"/>
</g>
</g>
<defs>
<clipPath id="clip0_907_9401">
<rect width="20" height="20" fill="white" transform="translate(2 2)"/>
</clipPath>
</defs>
</svg>