<svg width="20" height="21" viewBox="0 0 20 21" fill="none" xmlns="http://www.w3.org/2000/svg">
<rect y="0.5" width="20" height="20" rx="3.07692" fill="#BBC2C9"/>
<g clip-path="url(#clip0_2487_28459)">
<path d="M4.61936 2.16699H15.3832C15.7709 2.16662 16.1549 2.24466 16.5131 2.39665C16.8714 2.54864 17.1969 2.7716 17.471 3.05276C17.7451 3.33393 17.9625 3.66778 18.1107 4.03521C18.2589 4.40264 18.335 4.79643 18.3346 5.19406V15.8066C18.335 16.2042 18.2589 16.598 18.1107 16.9654C17.9625 17.3329 17.7451 17.6667 17.471 17.9479C17.1969 18.2291 16.8714 18.452 16.5131 18.604C16.1549 18.756 15.7709 18.834 15.3832 18.8337H4.61936C4.23167 18.834 3.84772 18.756 3.48948 18.604C3.13124 18.452 2.80573 18.2291 2.5316 17.9479C2.25746 17.6667 2.04008 17.3329 1.89189 16.9654C1.7437 16.598 1.6676 16.2042 1.66797 15.8066V5.19406C1.6676 4.79643 1.7437 4.40264 1.89189 4.03521C2.04008 3.66778 2.25746 3.33393 2.5316 3.05276C2.80573 2.7716 3.13124 2.54864 3.48948 2.39665C3.84772 2.24466 4.23167 2.16662 4.61936 2.16699Z" fill="#BBC2C9"/>
<path d="M12.8933 15.2077C13.2291 15.7558 13.6658 16.1587 14.4383 16.1587C15.0873 16.1587 15.5018 15.8344 15.5018 15.3862C15.5018 14.8492 15.0759 14.659 14.3616 14.3466L13.9701 14.1786C12.8399 13.6971 12.0891 13.0939 12.0891 11.8188C12.0891 10.6442 12.9841 9.75 14.3828 9.75C15.3785 9.75 16.0944 10.0966 16.6103 11.004L15.3907 11.787C15.1222 11.3056 14.8325 11.1159 14.3828 11.1159C13.924 11.1159 13.6333 11.4069 13.6333 11.787C13.6333 12.2569 13.9243 12.4471 14.5963 12.7381L14.9878 12.9058C16.3185 13.4765 17.0698 14.0582 17.0698 15.3661C17.0698 16.7762 15.9621 17.5487 14.4746 17.5487C13.0201 17.5487 12.0804 16.8556 11.6206 15.9471L12.8933 15.2077ZM7.36081 15.3434C7.60684 15.7799 7.83065 16.1489 8.36874 16.1489C8.88329 16.1489 9.2079 15.9476 9.2079 15.1648V9.83942H10.774V15.186C10.774 16.8077 9.82324 17.5458 8.43541 17.5458C7.18144 17.5458 6.45525 16.8968 6.08594 16.1152L7.36081 15.3434Z" fill="#F5F6F7"/>
</g>
<defs>
<clipPath id="clip0_2487_28459">
<rect width="16.6667" height="16.6667" fill="white" transform="translate(1.66797 2.16699)"/>
</clipPath>
</defs>
</svg>
