<svg width="100" height="100" viewBox="0 0 100 100" fill="none" xmlns="http://www.w3.org/2000/svg">
<rect width="100" height="100" rx="50" fill="#F0F0F0"/>
<g clipPath="url(#clip0_826_3960)">
<path d="M23.0909 8.3335H76.9104C78.8488 8.33163 80.7685 8.72184 82.5598 9.48179C84.351 10.2418 85.9785 11.3565 87.3492 12.7624C88.7198 14.1682 89.8068 15.8374 90.5477 17.6746C91.2887 19.5117 91.6692 21.4807 91.6673 23.4688V76.5315C91.6692 78.5196 91.2887 80.4886 90.5477 82.3258C89.8068 84.1629 88.7198 85.8322 87.3492 87.238C85.9785 88.6438 84.351 89.7586 82.5598 90.5185C80.7685 91.2785 78.8488 91.6687 76.9104 91.6668H23.0909C21.1525 91.6687 19.2328 91.2785 17.4415 90.5185C15.6503 89.7586 14.0228 88.6438 12.6521 87.238C11.2815 85.8322 10.1945 84.1629 9.45358 82.3258C8.71262 80.4886 8.33216 78.5196 8.33399 76.5315V23.4688C8.33216 21.4807 8.71262 19.5117 9.45358 17.6746C10.1945 15.8374 11.2815 14.1682 12.6521 12.7624C14.0228 11.3565 15.6503 10.2418 17.4415 9.48179C19.2328 8.72184 21.1525 8.33163 23.0909 8.3335Z" fill="#F0F0F0"/>
<path d="M42.3125 65.5649C42.3125 65.5649 40.1326 66.8327 43.8639 67.2617C48.3844 67.7774 50.6948 67.7034 55.6763 66.7606C55.6763 66.7606 56.986 67.5818 58.8151 68.2931C47.6477 73.0792 33.5412 68.0158 42.3125 65.5649Z" fill="#5382A1"/>
<path d="M40.9453 59.3193C40.9453 59.3193 38.5002 61.1292 42.2344 61.5154C47.0633 62.0136 50.8767 62.0544 57.4755 60.7837C57.4755 60.7837 58.3882 61.709 59.8234 62.215C46.3214 66.1632 31.2826 62.5264 40.9453 59.3193Z" fill="#5382A1"/>
<path d="M52.4496 48.7247C55.2013 51.8927 51.7267 54.7435 51.7267 54.7435C51.7267 54.7435 58.7135 51.1367 55.5048 46.6201C52.5079 42.4081 50.2097 40.3153 62.6512 33.0996C62.6512 33.0996 43.1221 37.9771 52.4496 48.7247Z" fill="#E76F00"/>
<path d="M67.2208 70.1841C67.2208 70.1841 68.834 71.5134 65.4441 72.5417C58.9982 74.4944 38.6154 75.0841 32.9531 72.6195C30.9177 71.734 34.7347 70.5052 35.9354 70.2473C37.1876 69.9758 37.9032 70.0264 37.9032 70.0264C35.6395 68.4318 23.2721 73.1575 31.6211 74.5109C54.3901 78.2033 73.1267 72.8481 67.2208 70.1841Z" fill="#5382A1"/>
<path d="M43.3588 52.8482C43.3588 52.8482 32.9908 55.3107 39.6872 56.205C42.5147 56.5835 48.1511 56.4979 53.4013 56.058C57.692 55.696 62.0004 54.9265 62.0004 54.9265C62.0004 54.9265 60.4875 55.5744 59.3929 56.3218C48.8644 59.0908 28.5252 57.8027 34.3806 54.9703C39.3325 52.5766 43.3588 52.8482 43.3588 52.8482Z" fill="#5382A1"/>
<path d="M61.9573 63.2441C72.66 57.6826 67.7115 52.338 64.2575 53.058C63.4109 53.2342 63.0334 53.3869 63.0334 53.3869C63.0334 53.3869 63.3477 52.8946 63.948 52.6815C70.7811 50.2792 76.0362 59.7668 61.7422 63.5244C61.7422 63.5246 61.9078 63.3765 61.9573 63.2441Z" fill="#5382A1"/>
<path d="M55.507 21.4482C55.507 21.4482 61.4343 27.3776 49.8852 36.4952C40.6239 43.8091 47.7733 47.9793 49.8813 52.744C44.4754 47.8665 40.5082 43.5728 43.1697 39.5767C47.0762 33.7107 57.8985 30.8666 55.507 21.4482Z" fill="#E76F00"/>
<path d="M44.4127 78.3148C54.686 78.9724 70.4617 77.9499 70.8354 73.0889C70.8354 73.0889 70.1172 74.9316 62.3451 76.3951C53.5766 78.0452 42.7619 77.8526 36.3477 76.795C36.3478 76.7949 37.6607 77.8818 44.4127 78.3148Z" fill="#5382A1"/>
</g>
<defs>
<clipPath id="clip0_826_3960">
<rect width="83.3333" height="83.3333" fill="white" transform="translate(8.33398 8.3335)"/>
</clipPath>
</defs>
</svg>