<svg width="80" height="80" viewBox="0 0 80 80" fill="none" xmlns="http://www.w3.org/2000/svg">
<rect width="80" height="80" rx="16" fill="#F7DF1E"/>
<g clip-path="url(#clip0_726_4055)">
<path d="M18.4735 6.66749H61.5291C63.0798 6.66599 64.6156 6.97815 66.0486 7.58612C67.4816 8.19409 68.7836 9.08592 69.8801 10.2106C70.9767 11.3352 71.8462 12.6706 72.439 14.1403C73.0317 15.6101 73.3361 17.1852 73.3346 18.7757V61.2259C73.3361 62.8164 73.0317 64.3916 72.439 65.8613C71.8462 67.331 70.9767 68.6664 69.8801 69.7911C68.7836 70.9157 67.4816 71.8076 66.0486 72.4155C64.6156 73.0235 63.0798 73.3356 61.5291 73.3342H18.4735C16.9228 73.3356 15.387 73.0235 13.954 72.4155C12.521 71.8076 11.219 70.9157 10.1225 69.7911C9.02594 68.6664 8.15641 67.331 7.56364 65.8613C6.97087 64.3916 6.66651 62.8164 6.66797 61.2259V18.7757C6.66651 17.1852 6.97087 15.6101 7.56364 14.1403C8.15641 12.6706 9.02594 11.3352 10.1225 10.2106C11.219 9.08592 12.521 8.19409 13.954 7.58612C15.387 6.97815 16.9228 6.66599 18.4735 6.66749Z" fill="#F7DF1E"/>
<path d="M51.5636 58.8309C52.9065 61.0235 54.6536 62.6352 57.7435 62.6352C60.3393 62.6352 61.9975 61.3378 61.9975 59.5452C61.9975 57.3971 60.2938 56.6362 57.4366 55.3865L55.8705 54.7145C51.3499 52.7886 48.3467 50.3759 48.3467 45.2754C48.3467 40.577 51.9266 37.0002 57.5213 37.0002C61.5044 37.0002 64.3678 38.3865 66.4313 42.0161L61.553 45.1484C60.479 43.2225 59.3202 42.4637 57.5213 42.4637C55.6864 42.4637 54.5234 43.6278 54.5234 45.1484C54.5234 47.0278 55.6874 47.7886 58.3753 48.9526L59.9414 49.6235C65.2641 51.9061 68.2694 54.233 68.2694 59.4648C68.2694 65.105 63.8387 68.195 57.8885 68.195C52.0705 68.195 48.3118 65.4225 46.4726 61.7886L51.5636 58.8309ZM29.4335 59.3738C30.4176 61.1198 31.3128 62.596 33.4652 62.596C35.5234 62.596 36.8218 61.7907 36.8218 58.6595V37.3579H43.0864V58.7442C43.0864 65.2309 39.2832 68.1833 33.7319 68.1833C28.716 68.1833 25.8112 65.5875 24.334 62.4611L29.4335 59.3738Z" fill="black"/>
</g>
<defs>
<clipPath id="clip0_726_4055">
<rect width="66.6667" height="66.6667" fill="white" transform="translate(6.66797 6.66724)"/>
</clipPath>
</defs>
</svg>
