<svg width="20" height="21" viewBox="0 0 20 21" fill="none" xmlns="http://www.w3.org/2000/svg">
<g clip-path="url(#clip0_2487_17229)">
<rect y="0.5" width="20" height="20" rx="3.07692" fill="#D7DBDF"/>
<g clip-path="url(#clip1_2487_17229)">
<path d="M3.54167 0.500002H16.4583C16.9236 0.499552 17.3843 0.593202 17.8142 0.775592C18.2441 0.957981 18.6347 1.22553 18.9636 1.56293C19.2926 1.90032 19.5535 2.30094 19.7313 2.74186C19.9091 3.18277 20.0004 3.65533 20 4.13248V16.8675C20.0004 17.3447 19.9091 17.8172 19.7313 18.2581C19.5535 18.6991 19.2926 19.0997 18.9636 19.4371C18.6347 19.7745 18.2441 20.042 17.8142 20.2244C17.3843 20.4068 16.9236 20.5004 16.4583 20.5H3.54167C3.07645 20.5004 2.6157 20.4068 2.18581 20.2244C1.75592 20.042 1.36532 19.7745 1.03635 19.4371C0.707392 19.0997 0.446532 18.6991 0.268702 18.2581C0.0908717 17.8172 -0.000436903 17.3447 1.57173e-06 16.8675V4.13248C-0.000436903 3.65533 0.0908717 3.18277 0.268702 2.74186C0.446532 2.30094 0.707392 1.90032 1.03635 1.56293C1.36532 1.22553 1.75592 0.957981 2.18581 0.775592C2.6157 0.593202 3.07645 0.499552 3.54167 0.500002Z" fill="#D7DBDF"/>
<path d="M8.15423 14.2361C8.15423 14.2361 7.63103 14.5403 8.52656 14.6433C9.61147 14.7671 10.166 14.7493 11.3615 14.523C11.3615 14.523 11.6759 14.7201 12.1148 14.8908C9.43468 16.0395 6.0491 14.8243 8.15423 14.2361Z" fill="#BBC2C9"/>
<path d="M7.82671 12.7373C7.82671 12.7373 7.2399 13.1717 8.13609 13.2644C9.29503 13.3839 10.2103 13.3937 11.794 13.0888C11.794 13.0888 12.013 13.3108 12.3575 13.4323C9.11698 14.3798 5.50766 13.507 7.82671 12.7373Z" fill="#BBC2C9"/>
<path d="M10.5901 10.1944C11.2505 10.9547 10.4166 11.6389 10.4166 11.6389C10.4166 11.6389 12.0934 10.7732 11.3233 9.68925C10.6041 8.67836 10.0525 8.1761 13.0385 6.44434C13.0385 6.44434 8.35149 7.61493 10.5901 10.1944Z" fill="#BBC2C9"/>
<path d="M14.1325 15.3446C14.1325 15.3446 14.5197 15.6636 13.7061 15.9104C12.1591 16.379 7.26722 16.5205 5.90828 15.929C5.41977 15.7165 6.33586 15.4216 6.62402 15.3597C6.92455 15.2946 7.09629 15.3067 7.09629 15.3067C6.55302 14.924 3.58483 16.0582 5.5886 16.383C11.0531 17.2692 15.55 15.9839 14.1325 15.3446Z" fill="#BBC2C9"/>
<path d="M8.40798 11.1839C8.40798 11.1839 5.91967 11.7749 7.52681 11.9895C8.20539 12.0804 9.55814 12.0598 10.8182 11.9542C11.848 11.8674 12.882 11.6827 12.882 11.6827C12.882 11.6827 12.5189 11.8382 12.2562 12.0176C9.72932 12.6821 4.84793 12.373 6.25322 11.6932C7.44168 11.1187 8.40798 11.1839 8.40798 11.1839Z" fill="#BBC2C9"/>
<path d="M12.8719 13.6791C15.4406 12.3443 14.2529 11.0616 13.424 11.2344C13.2208 11.2767 13.1302 11.3134 13.1302 11.3134C13.1302 11.3134 13.2056 11.1952 13.3497 11.1441C14.9897 10.5675 16.2509 12.8445 12.8203 13.7464C12.8203 13.7464 12.8601 13.7109 12.8719 13.6791Z" fill="#BBC2C9"/>
<path d="M11.3211 3.64795C11.3211 3.64795 12.7436 5.07099 9.97182 7.25922C7.74912 9.01456 9.46498 10.0154 9.9709 11.1589C8.67347 9.98832 7.72133 8.95785 8.3601 7.99877C9.29766 6.59093 11.895 5.90836 11.3211 3.64795Z" fill="#BBC2C9"/>
<path d="M8.65826 17.2962C11.1238 17.454 14.91 17.2086 14.9997 16.042C14.9997 16.042 14.8273 16.4843 12.962 16.8355C10.8576 17.2315 8.26208 17.1853 6.72266 16.9315C6.72269 16.9314 7.0378 17.1923 8.65826 17.2962Z" fill="#BBC2C9"/>
</g>
</g>
<defs>
<clipPath id="clip0_2487_17229">
<rect y="0.5" width="20" height="20" rx="3.07692" fill="white"/>
</clipPath>
<clipPath id="clip1_2487_17229">
<rect width="20" height="20" fill="white" transform="translate(0 0.5)"/>
</clipPath>
</defs>
</svg>
