<svg width="120" height="40" viewBox="0 0 120 40" fill="none" xmlns="http://www.w3.org/2000/svg">
<path d="M35.447 25.6125H39.1849V23.8728C39.1849 22.6014 40.2154 21.569 41.4888 21.569C42.7602 21.569 43.7926 22.5994 43.7926 23.8728V25.6125H51.48C52.5065 25.6125 53.3372 26.4432 53.3372 27.4697C53.3372 28.4963 52.5065 29.3269 51.48 29.3269H35.447C34.4205 29.3269 33.5898 28.4963 33.5898 27.4697C33.5898 26.4432 34.4205 25.6125 35.447 25.6125ZM35.1179 14.4927V12.9C35.1179 11.7285 36.0681 10.7783 37.2396 10.7783H48.2475C50.1498 10.7783 51.6916 12.3201 51.6916 14.2224V21.1693C51.6916 22.4408 50.6611 23.4732 49.3877 23.4732C48.1163 23.4732 47.0839 22.4427 47.0839 21.1693V20.3935H37.1632C36.1366 20.3935 35.306 19.5629 35.306 18.5363C35.306 17.5097 36.1366 16.6791 37.1632 16.6791H47.0839" fill="#253CE5"/>
<path d="M57.532 21.8511H73.5884C74.6071 21.8511 75.4339 22.6778 75.4339 23.6966C75.4339 24.7153 74.6071 25.542 73.5884 25.542H72.3777V26.9643C72.3777 28.3083 71.2885 29.3975 69.9446 29.3975C68.6007 29.3975 67.5114 28.3083 67.5114 26.9643V25.542H63.5855V26.9643C63.5855 28.3083 62.4962 29.3975 61.1523 29.3975C59.8084 29.3975 58.7191 28.3083 58.7191 26.9643V25.542H57.532C56.5132 25.542 55.6865 24.7153 55.6865 23.6966C55.6865 22.6778 56.5132 21.8511 57.532 21.8511ZM61.932 15.6447L72.4287 16.5733C73.4102 16.6595 74.1624 17.4824 74.1624 18.4678C74.1624 19.5178 73.3102 20.37 72.2602 20.37H60.5019C58.6858 20.37 57.2146 18.8988 57.2146 17.0827V14.2087C57.2146 12.3927 58.6858 10.9214 60.5019 10.9214H71.2787C72.8068 10.9214 74.0449 12.1595 74.0449 13.6876V14.5653" fill="#253CE5"/>
<path d="M43.0542 18.138C44.2065 18.138 45.1406 17.0715 45.1406 15.7558C45.1406 14.4401 44.2065 13.3735 43.0542 13.3735C41.9019 13.3735 40.9678 14.4401 40.9678 15.7558C40.9678 17.0715 41.9019 18.138 43.0542 18.138Z" fill="white"/>
<path d="M43.396 16.5628C44.0225 16.5628 44.5303 15.983 44.5303 15.2679C44.5303 14.5527 44.0225 13.9729 43.396 13.9729C42.7696 13.9729 42.2617 14.5527 42.2617 15.2679C42.2617 15.983 42.7696 16.5628 43.396 16.5628Z" fill="#253CE5"/>
<path d="M46.8969 18.138C48.0492 18.138 48.9833 17.0715 48.9833 15.7558C48.9833 14.4401 48.0492 13.3735 46.8969 13.3735C45.7447 13.3735 44.8105 14.4401 44.8105 15.7558C44.8105 17.0715 45.7447 18.138 46.8969 18.138Z" fill="white"/>
<path d="M47.2368 16.5628C47.8633 16.5628 48.3711 15.983 48.3711 15.2679C48.3711 14.5527 47.8633 13.9729 47.2368 13.9729C46.6104 13.9729 46.1025 14.5527 46.1025 15.2679C46.1025 15.983 46.6104 16.5628 47.2368 16.5628Z" fill="#253CE5"/>
<path d="M64.4653 17.5389C65.6176 17.5389 66.5517 16.4723 66.5517 15.1567C66.5517 13.841 65.6176 12.7744 64.4653 12.7744C63.313 12.7744 62.3789 13.841 62.3789 15.1567C62.3789 16.4723 63.313 17.5389 64.4653 17.5389Z" fill="white"/>
<path d="M64.1235 15.9637C64.75 15.9637 65.2578 15.3839 65.2578 14.6687C65.2578 13.9536 64.75 13.3738 64.1235 13.3738C63.4971 13.3738 62.9893 13.9536 62.9893 14.6687C62.9893 15.3839 63.4971 15.9637 64.1235 15.9637Z" fill="#253CE5"/>
<path d="M60.6225 17.5389C61.7748 17.5389 62.7089 16.4723 62.7089 15.1567C62.7089 13.841 61.7748 12.7744 60.6225 12.7744C59.4703 12.7744 58.5361 13.841 58.5361 15.1567C58.5361 16.4723 59.4703 17.5389 60.6225 17.5389Z" fill="white"/>
<path d="M60.2827 15.9635C60.9092 15.9635 61.417 15.3837 61.417 14.6685C61.417 13.9533 60.9092 13.3735 60.2827 13.3735C59.6563 13.3735 59.1484 13.9533 59.1484 14.6685C59.1484 15.3837 59.6563 15.9635 60.2827 15.9635Z" fill="#253CE5"/>
<path d="M85.2871 9.35108L85.1699 9.31915C83.9548 8.9881 82.7014 9.70478 82.3703 10.9199L77.8839 27.3872C77.5529 28.6024 78.2696 29.8558 79.4847 30.1869L79.6019 30.2188C80.817 30.5498 82.0704 29.8332 82.4014 28.618L86.8878 12.1507C87.2189 10.9356 86.5022 9.68213 85.2871 9.35108Z" fill="#253CE5"/>
<path d="M100.825 17.7507L100.847 17.7292L92.8183 9.70083C91.972 8.8545 90.6496 8.65664 89.627 9.27767C88.1048 10.2024 87.9304 12.2143 89.1039 13.3878L95.034 19.318C95.465 19.749 95.465 20.4484 95.034 20.8794L89.1215 26.7919C88.2733 27.6402 88.0734 28.9684 88.6984 29.993C89.625 31.5113 91.633 31.6837 92.8065 30.5122L100.637 22.6817C101.989 21.33 102.049 19.1769 100.825 17.7488V17.7507Z" fill="#253CE5"/>
<path d="M19.1751 17.7505L19.1535 17.729L27.1857 9.69671C27.9869 8.89544 29.2231 8.66231 30.2242 9.19322C31.8835 10.0748 32.1088 12.1789 30.8981 13.3896L24.968 19.3197C24.537 19.7507 24.537 20.4501 24.968 20.8811L30.8804 26.7936C31.7287 27.6419 31.9285 28.9702 31.3036 29.9948C30.377 31.5131 28.3689 31.6855 27.1954 30.5139L19.3651 22.6835C18.0133 21.3317 17.9526 19.1787 19.177 17.7505H19.1751Z" fill="#253CE5"/>
</svg>
