<svg width="20" height="22" viewBox="0 0 20 22" fill="none" xmlns="http://www.w3.org/2000/svg">
<path d="M0.937777 12.9799V8.73188C0.904777 2.97188 3.81478 0.775879 10.0488 0.775879C16.2198 0.811879 19.0968 3.00788 19.0638 8.73188V12.9799C19.0308 18.7759 15.9318 21.2239 9.95278 21.2239C3.97378 21.2239 0.967777 18.7759 0.937777 12.9799Z" fill="#253CE5"/>
<path d="M7.10086 12.5599C8.86541 12.5599 10.2959 10.9266 10.2959 8.91188C10.2959 6.89714 8.86541 5.26387 7.10086 5.26387C5.33631 5.26387 3.90586 6.89714 3.90586 8.91188C3.90586 10.9266 5.33631 12.5599 7.10086 12.5599Z" fill="white"/>
<path d="M7.62215 10.1448C8.58147 10.1448 9.35916 9.25701 9.35916 8.16183C9.35916 7.06664 8.58147 6.17881 7.62215 6.17881C6.66284 6.17881 5.88516 7.06664 5.88516 8.16183C5.88516 9.25701 6.66284 10.1448 7.62215 10.1448Z" fill="#253CE5"/>
<path d="M12.9841 12.5599C14.7486 12.5599 16.1791 10.9266 16.1791 8.91188C16.1791 6.89714 14.7486 5.26387 12.9841 5.26387C11.2195 5.26387 9.78906 6.89714 9.78906 8.91188C9.78906 10.9266 11.2195 12.5599 12.9841 12.5599Z" fill="white"/>
<path d="M13.5061 10.1448C14.4655 10.1448 15.2431 9.25701 15.2431 8.16183C15.2431 7.06664 14.4655 6.17881 13.5061 6.17881C12.5468 6.17881 11.7691 7.06664 11.7691 8.16183C11.7691 9.25701 12.5468 10.1448 13.5061 10.1448Z" fill="#253CE5"/>
</svg>
