<svg width="120" height="40" viewBox="0 0 120 40" fill="none" xmlns="http://www.w3.org/2000/svg">
<path d="M2.38623 17.6016L2.36434 17.5797L10.4708 9.47321C11.5058 8.43826 13.2035 8.36064 14.2584 9.37569C15.3132 10.3907 15.3451 12.1203 14.2942 13.1712L8.31335 19.152C7.8516 19.6138 7.8516 20.3641 8.31335 20.8259L14.2265 26.7391C15.2655 27.778 15.3451 29.4837 14.3241 30.5366C13.2891 31.6054 11.5814 31.6153 10.5345 30.5664L2.57929 22.6112C1.20598 21.2379 1.14428 19.0505 2.38822 17.5996L2.38623 17.6016Z" fill="#253CE5"/>
<path d="M102.187 12.3198C102.532 11.0525 101.785 9.74514 100.517 9.39985C99.2501 9.05457 97.9427 9.80206 97.5975 11.0694L93.072 27.6801C92.7267 28.9475 93.4742 30.2548 94.7416 30.6001C96.0089 30.9453 97.3162 30.1979 97.6615 28.9305L102.187 12.3198Z" fill="#253CE5"/>
<path d="M30.9032 22.4722C32.4278 22.4722 33.5682 23.8972 33.208 25.378C33.0428 26.0567 32.8239 26.6597 32.5472 27.1872C31.3291 29.4501 29.2274 30.3398 25.621 30.3398C20.2949 30.3398 17.2139 27.5096 17.1901 21.9328V19.2658C17.1423 13.8223 19.9605 11.1016 25.621 11.1016C29.4145 11.1016 31.8586 12.451 32.9512 15.4524C33.5165 17.0028 32.382 18.6468 30.7321 18.6468H30.6743C29.7329 18.6468 28.8652 18.0935 28.5049 17.2237C28.0233 16.0594 27.1356 15.4942 25.5732 15.4942C23.161 15.4942 22.2056 16.6525 22.2295 19.6439V21.6641C22.2534 24.763 23.4237 25.9751 25.812 25.9751C27.4202 25.9751 28.2601 25.4417 28.6323 24.1739C28.9288 23.1668 29.8523 22.4722 30.9032 22.4722Z" fill="#253CE5"/>
<path d="M34.7853 24.8724V22.0542C34.7634 18.2328 36.694 16.7759 40.8299 16.7759C44.9239 16.7998 46.8326 18.2567 46.8107 22.0542V24.8724C46.7888 28.7177 44.7329 30.3418 40.7662 30.3418C36.7995 30.3418 34.8052 28.7177 34.7853 24.8724Z" fill="#253CE5"/>
<path d="M48.0215 25.2304V21.8866C48.0215 20.6686 48.2126 19.6894 48.5708 18.949C49.2873 17.5159 50.8397 16.8472 53.5864 16.8472H55.712V15.7366C55.712 14.4509 56.7549 13.408 58.0407 13.408C59.3264 13.408 60.3693 14.4509 60.3693 15.7366V26.6236C60.3693 28.4925 58.8547 30.0071 56.9858 30.0071H52.9654C49.4545 30.0071 48.0215 28.5741 48.0215 25.2304Z" fill="#253CE5"/>
<path d="M68.2236 30.3398C63.9485 30.3398 61.584 28.5247 61.584 24.966V22.5776C61.584 18.4935 63.8052 16.7739 68.2236 16.7739C72.6421 16.7739 74.8155 18.8279 74.8155 22.7687C74.8294 24.0704 73.7766 25.1332 72.4749 25.1332H66.6115C66.0562 25.1332 65.6999 25.7641 66.0263 26.2139C66.4025 26.7314 67.1051 26.9742 68.2236 26.9742C69.2068 26.9742 69.9034 26.813 70.2876 26.407C70.618 26.0567 71.0558 25.8278 71.5375 25.8278H72.8053C73.9318 25.8278 74.6642 27.0678 74.0691 28.0251C73.0959 29.5875 71.0439 30.3418 68.2256 30.3418L68.2236 30.3398ZM69.4696 22.1736C70.1423 22.1736 70.4428 21.3317 69.9253 20.9018C69.5054 20.5535 68.9063 20.3604 68.1978 20.3604C67.3658 20.3604 66.719 20.5475 66.307 20.9396C65.8393 21.3835 66.1597 22.1756 66.8045 22.1756H69.4696V22.1736Z" fill="#253CE5"/>
<path d="M87.0711 23.7519V13.7407C87.0711 12.2818 88.2534 11.1016 89.7103 11.1016H89.7919C91.2508 11.1016 92.431 12.2838 92.431 13.7407V22.8981C92.431 27.9694 89.8735 30.3398 84.2389 30.3398C78.6044 30.3398 76.0469 27.9972 76.0469 22.8981V13.7407C76.0469 12.2818 77.2291 11.1016 78.686 11.1016C80.1449 11.1016 81.3252 12.2838 81.3252 13.7407V23.7798C81.3252 25.1849 82.3044 25.9014 84.237 25.9014C86.1695 25.9014 87.0672 25.1849 87.0672 23.7519H87.0711Z" fill="#253CE5"/>
<path d="M38.8755 24.5941C40.0462 24.5941 40.9952 23.5105 40.9952 22.1739C40.9952 20.8372 40.0462 19.7537 38.8755 19.7537C37.7049 19.7537 36.7559 20.8372 36.7559 22.1739C36.7559 23.5105 37.7049 24.5941 38.8755 24.5941Z" fill="white"/>
<path d="M39.2188 22.9918C39.8552 22.9918 40.3712 22.4028 40.3712 21.6762C40.3712 20.9496 39.8552 20.3606 39.2188 20.3606C38.5823 20.3606 38.0664 20.9496 38.0664 21.6762C38.0664 22.4028 38.5823 22.9918 39.2188 22.9918Z" fill="#253CE5"/>
<path d="M42.7798 24.5941C43.9505 24.5941 44.8995 23.5105 44.8995 22.1739C44.8995 20.8372 43.9505 19.7537 42.7798 19.7537C41.6092 19.7537 40.6602 20.8372 40.6602 22.1739C40.6602 23.5105 41.6092 24.5941 42.7798 24.5941Z" fill="white"/>
<path d="M43.125 22.9918C43.7615 22.9918 44.2774 22.4028 44.2774 21.6762C44.2774 20.9496 43.7615 20.3606 43.125 20.3606C42.4886 20.3606 41.9727 20.9496 41.9727 21.6762C41.9727 22.4028 42.4886 22.9918 43.125 22.9918Z" fill="#253CE5"/>
<path d="M55.5494 24.5941C56.72 24.5941 57.669 23.5105 57.669 22.1739C57.669 20.8372 56.72 19.7537 55.5494 19.7537C54.3787 19.7537 53.4297 20.8372 53.4297 22.1739C53.4297 23.5105 54.3787 24.5941 55.5494 24.5941Z" fill="white"/>
<path d="M55.2012 22.992C55.8377 22.992 56.3536 22.403 56.3536 21.6764C56.3536 20.9499 55.8377 20.3608 55.2012 20.3608C54.5648 20.3608 54.0488 20.9499 54.0488 21.6764C54.0488 22.403 54.5648 22.992 55.2012 22.992Z" fill="#253CE5"/>
<path d="M51.6451 24.5941C52.8157 24.5941 53.7647 23.5105 53.7647 22.1739C53.7647 20.8372 52.8157 19.7537 51.6451 19.7537C50.4744 19.7537 49.5254 20.8372 49.5254 22.1739C49.5254 23.5105 50.4744 24.5941 51.6451 24.5941Z" fill="white"/>
<path d="M51.2989 22.9918C51.9353 22.9918 52.4513 22.4028 52.4513 21.6762C52.4513 20.9496 51.9353 20.3606 51.2989 20.3606C50.6624 20.3606 50.1465 20.9496 50.1465 21.6762C50.1465 22.4028 50.6624 22.9918 51.2989 22.9918Z" fill="#253CE5"/>
<path d="M117.615 17.6016L117.637 17.5797L109.531 9.47321C108.496 8.43826 106.798 8.36064 105.743 9.37569C104.688 10.3907 104.657 12.1203 105.707 13.1712L111.688 19.152C112.15 19.6138 112.15 20.3641 111.688 20.8259L105.775 26.7391C104.736 27.778 104.657 29.4837 105.678 30.5366C106.713 31.6054 108.42 31.6153 109.467 30.5664L117.422 22.6112C118.796 21.2379 118.857 19.0505 117.613 17.5996L117.615 17.6016Z" fill="#253CE5"/>
</svg>
