<svg width="24" height="25" viewBox="0 0 24 25" fill="none" xmlns="http://www.w3.org/2000/svg">
<path d="M12.2536 6.69899L9.77877 9.17387L5.17441 13.7782C4.95175 14.0009 4.81748 14.2968 4.79653 14.611L4.5743 17.9445C4.52198 18.7293 5.1731 19.3804 5.95789 19.3281L9.29139 19.1059C9.60559 19.0849 9.9015 18.9506 10.1242 18.728L14.7285 14.1236L17.2034 11.6487M12.2536 6.69899L13.8093 5.14336C14.317 4.63568 15.1401 4.63568 15.6478 5.14336L18.759 8.25463C19.2667 8.76231 19.2667 9.58543 18.759 10.0931L17.2034 11.6487M12.2536 6.69899L17.2034 11.6487" stroke="black"/>
<path d="M18.759 8.25463L15.6478 5.14336C15.1401 4.63568 14.317 4.63568 13.8093 5.14336L13.1729 5.77976C12.6652 6.28744 12.6652 7.11055 13.1729 7.61823L16.2842 10.7295C16.7918 11.2372 17.6149 11.2372 18.1226 10.7295L18.759 10.0931C19.2667 9.58543 19.2667 8.76231 18.759 8.25463Z" fill="black" stroke="black"/>
</svg>
