<svg width="80" height="80" viewBox="0 0 80 80" fill="none" xmlns="http://www.w3.org/2000/svg">
<rect width="80" height="80" rx="16" fill="#000B1D"/>
<g clip-path="url(#clip0_726_4054)">
<path d="M18.4735 6.66749H61.5291C63.0798 6.66599 64.6156 6.97815 66.0486 7.58612C67.4816 8.19409 68.7836 9.08592 69.8801 10.2106C70.9767 11.3352 71.8462 12.6706 72.439 14.1403C73.0317 15.6101 73.3361 17.1852 73.3346 18.7757V61.2259C73.3361 62.8164 73.0317 64.3916 72.439 65.8613C71.8462 67.331 70.9767 68.6664 69.8801 69.7911C68.7836 70.9157 67.4816 71.8076 66.0486 72.4155C64.6156 73.0235 63.0798 73.3356 61.5291 73.3342H18.4735C16.9228 73.3356 15.387 73.0235 13.954 72.4155C12.521 71.8076 11.219 70.9157 10.1225 69.7911C9.02594 68.6664 8.15641 67.331 7.56364 65.8613C6.97087 64.3916 6.66651 62.8164 6.66797 61.2259V18.7757C6.66651 17.1852 6.97087 15.6101 7.56364 14.1403C8.15641 12.6706 9.02594 11.3352 10.1225 10.2106C11.219 9.08592 12.521 8.19409 13.954 7.58612C15.387 6.97815 16.9228 6.66599 18.4735 6.66749Z" fill="#000B1D"/>
<path d="M39.9079 17.6675C28.3524 17.6675 29.074 22.6787 29.074 22.6787L29.0869 27.8702H40.1141V29.429H24.7069C24.7069 29.429 17.3125 28.5904 17.3125 40.25C17.3125 51.9097 23.7665 51.4962 23.7665 51.4962H27.6183V46.0857C27.6183 46.0857 27.4107 39.6317 33.9692 39.6317C40.5278 39.6317 44.9062 39.6317 44.9062 39.6317C44.9062 39.6317 51.0511 39.731 51.0511 33.693C51.0511 27.6549 51.0511 23.7093 51.0511 23.7093C51.0511 23.7092 51.984 17.6675 39.9079 17.6675ZM33.8275 21.1586C34.9247 21.1586 35.8114 22.0453 35.8114 23.1424C35.8114 24.2396 34.9247 25.1263 33.8275 25.1263C32.7304 25.1263 31.8437 24.2396 31.8437 23.1424C31.8437 22.0453 32.7304 21.1586 33.8275 21.1586Z" fill="url(#paint0_linear_726_4054)"/>
<path d="M40.236 62.9497C51.7916 62.9497 51.07 57.9385 51.07 57.9385L51.0571 52.747H40.0299V51.1882H55.4371C55.4371 51.1882 62.8315 52.0268 62.8315 40.3671C62.8315 28.7075 56.3775 29.121 56.3775 29.121H52.5257V34.5315C52.5257 34.5315 52.7333 40.9855 46.1747 40.9855C39.6162 40.9855 35.2377 40.9855 35.2377 40.9855C35.2377 40.9855 29.0929 40.8862 29.0929 46.9242C29.0929 52.9622 29.0929 56.9079 29.0929 56.9079C29.0929 56.9079 28.1599 62.9497 40.236 62.9497ZM46.3164 59.4586C45.2193 59.4586 44.3326 58.5719 44.3326 57.4748C44.3326 56.3776 45.2193 55.4909 46.3164 55.4909C47.4136 55.4909 48.3003 56.3776 48.3003 57.4748C48.3003 58.5719 47.4136 59.4586 46.3164 59.4586Z" fill="url(#paint1_linear_726_4054)"/>
</g>
<defs>
<linearGradient id="paint0_linear_726_4054" x1="21.687" y1="21.6255" x2="44.1948" y2="44.2087" gradientUnits="userSpaceOnUse">
<stop stop-color="#387EB8"/>
<stop offset="1" stop-color="#366994"/>
</linearGradient>
<linearGradient id="paint1_linear_726_4054" x1="35.5327" y1="35.9921" x2="59.7062" y2="59.1516" gradientUnits="userSpaceOnUse">
<stop stop-color="#FFE052"/>
<stop offset="1" stop-color="#FFC331"/>
</linearGradient>
<clipPath id="clip0_726_4054">
<rect width="66.6667" height="66.6667" fill="white" transform="translate(6.66797 6.66724)"/>
</clipPath>
</defs>
</svg>
