<svg width="20" height="21" viewBox="0 0 20 21" fill="none" xmlns="http://www.w3.org/2000/svg">
<rect y="0.5" width="20" height="20" rx="3.07692" fill="#BBC2C9"/>
<g clip-path="url(#clip0_2487_29041)">
<path d="M4.61936 2.16699H15.3832C15.7709 2.16662 16.1549 2.24466 16.5131 2.39665C16.8714 2.54864 17.1969 2.7716 17.471 3.05276C17.7451 3.33393 17.9625 3.66778 18.1107 4.03521C18.2589 4.40264 18.335 4.79643 18.3346 5.19406V15.8066C18.335 16.2042 18.2589 16.598 18.1107 16.9654C17.9625 17.3329 17.7451 17.6667 17.471 17.9479C17.1969 18.2291 16.8714 18.452 16.5131 18.604C16.1549 18.756 15.7709 18.834 15.3832 18.8337H4.61936C4.23167 18.834 3.84772 18.756 3.48948 18.604C3.13124 18.452 2.80573 18.2291 2.5316 17.9479C2.25746 17.6667 2.04008 17.3329 1.89189 16.9654C1.7437 16.598 1.6676 16.2042 1.66797 15.8066V5.19406C1.6676 4.79643 1.7437 4.40264 1.89189 4.03521C2.04008 3.66778 2.25746 3.33393 2.5316 3.05276C2.80573 2.7716 3.13124 2.54864 3.48948 2.39665C3.84772 2.24466 4.23167 2.16662 4.61936 2.16699Z" fill="#BBC2C9"/>
<path d="M9.97699 4.91699C7.08809 4.91699 7.2685 6.16979 7.2685 6.16979L7.27172 7.46768H10.0285V7.85736H6.17673C6.17673 7.85736 4.32813 7.64772 4.32813 10.5626C4.32812 13.4776 5.94163 13.3742 5.94163 13.3742H6.90457V12.0215C6.90457 12.0215 6.85267 10.408 8.49231 10.408C10.1319 10.408 11.2266 10.408 11.2266 10.408C11.2266 10.408 12.7628 10.4329 12.7628 8.92337C12.7628 7.41386 12.7628 6.42743 12.7628 6.42743C12.7628 6.42743 12.996 4.91699 9.97699 4.91699ZM8.45688 5.78976C8.73116 5.78976 8.95285 6.01145 8.95285 6.28573C8.95285 6.56001 8.73116 6.7817 8.45688 6.7817C8.1826 6.7817 7.96092 6.56001 7.96092 6.28573C7.96092 6.01145 8.1826 5.78976 8.45688 5.78976Z" fill="#D7DBDF"/>
<path d="M10.0595 16.2374C12.9484 16.2374 12.768 14.9846 12.768 14.9846L12.7648 13.6867H10.008V13.2971H13.8598C13.8598 13.2971 15.7084 13.5067 15.7084 10.5918C15.7084 7.67687 14.0949 7.78024 14.0949 7.78024H13.1319V9.13287C13.1319 9.13287 13.1838 10.7464 11.5442 10.7464C9.90453 10.7464 8.80992 10.7464 8.80992 10.7464C8.80992 10.7464 7.27371 10.7215 7.27371 12.2311C7.27371 13.7406 7.27371 14.727 7.27371 14.727C7.27371 14.727 7.04047 16.2374 10.0595 16.2374ZM11.5796 15.3647C11.3053 15.3647 11.0836 15.143 11.0836 14.8687C11.0836 14.5944 11.3053 14.3727 11.5796 14.3727C11.8539 14.3727 12.0756 14.5944 12.0756 14.8687C12.0756 15.143 11.8539 15.3647 11.5796 15.3647Z" fill="#D7DBDF"/>
</g>
<defs>
<clipPath id="clip0_2487_29041">
<rect width="16.6667" height="16.6667" fill="white" transform="translate(1.66797 2.16699)"/>
</clipPath>
</defs>
</svg>
