<svg width="24" height="24" viewBox="0 0 24 24" fill="none" xmlns="http://www.w3.org/2000/svg">
<g opacity="0.8">
<rect width="24" height="24" rx="12" fill="#D7DBDF"/>
<g clipPath="url(#clip0_907_9405)">
<path d="M5.54167 2H18.4583C18.9236 1.99955 19.3843 2.0932 19.8142 2.27559C20.2441 2.45798 20.6347 2.72553 20.9636 3.06293C21.2926 3.40032 21.5535 3.80094 21.7313 4.24186C21.9091 4.68277 22.0004 5.15533 22 5.63248V18.3675C22.0004 18.8447 21.9091 19.3172 21.7313 19.7581C21.5535 20.1991 21.2926 20.5997 20.9636 20.9371C20.6347 21.2745 20.2441 21.542 19.8142 21.7244C19.3843 21.9068 18.9236 22.0004 18.4583 22H5.54167C5.07645 22.0004 4.61571 21.9068 4.18581 21.7244C3.75592 21.542 3.36532 21.2745 3.03635 20.9371C2.70739 20.5997 2.44653 20.1991 2.2687 19.7581C2.09087 19.3172 1.99956 18.8447 2 18.3675V5.63248C1.99956 5.15533 2.09087 4.68277 2.2687 4.24186C2.44653 3.80094 2.70739 3.40032 3.03635 3.06293C3.36532 2.72553 3.75592 2.45798 4.18581 2.27559C4.61571 2.0932 5.07645 1.99955 5.54167 2Z" fill="#D7DBDF"/>
<path d="M11.972 5.30005C8.50532 5.30005 8.7218 6.80341 8.7218 6.80341L8.72567 8.36087H12.0338V8.82849H7.41168C7.41168 8.82849 5.19336 8.57692 5.19336 12.0748C5.19336 15.5727 7.12956 15.4487 7.12956 15.4487H8.2851V13.8255C8.2851 13.8255 8.22281 11.8893 10.1904 11.8893C12.1579 11.8893 13.4715 11.8893 13.4715 11.8893C13.4715 11.8893 15.3149 11.9191 15.3149 10.1077C15.3149 8.29629 15.3149 7.11258 15.3149 7.11258C15.3149 7.11258 15.5948 5.30005 11.972 5.30005ZM10.1479 6.34737C10.477 6.34737 10.743 6.6134 10.743 6.94253C10.743 7.27167 10.477 7.53769 10.1479 7.53769C9.81873 7.53769 9.55271 7.27167 9.55271 6.94253C9.55271 6.6134 9.81873 6.34737 10.1479 6.34737Z" fill="#BBC2C9"/>
<path d="M12.0706 18.8845C15.5373 18.8845 15.3208 17.3812 15.3208 17.3812L15.3169 15.8237H12.0088V15.3561H16.6309C16.6309 15.3561 18.8492 15.6077 18.8492 12.1098C18.8492 8.61185 16.913 8.7359 16.913 8.7359H15.7575V10.3591C15.7575 10.3591 15.8198 12.2953 13.8522 12.2953C11.8847 12.2953 10.5711 12.2953 10.5711 12.2953C10.5711 12.2953 8.72767 12.2655 8.72767 14.0769C8.72767 15.8883 8.72767 17.072 8.72767 17.072C8.72767 17.072 8.44778 18.8845 12.0706 18.8845ZM13.8947 17.8372C13.5656 17.8372 13.2996 17.5712 13.2996 17.242C13.2996 16.9129 13.5656 16.6469 13.8947 16.6469C14.2239 16.6469 14.4899 16.9129 14.4899 17.242C14.4899 17.5712 14.2239 17.8372 13.8947 17.8372Z" fill="#BBC2C9"/>
</g>
</g>
<defs>
<clipPath id="clip0_907_9405">
<rect width="20" height="20" fill="white" transform="translate(2 2)"/>
</clipPath>
</defs>
</svg>