<svg width="100" height="100" viewBox="0 0 100 100" fill="none" xmlns="http://www.w3.org/2000/svg">
<rect width="100" height="100" rx="50" fill="#000B1D"/>
<g clipPath="url(#clip0_826_6605)">
<path d="M23.0909 8.3335H76.9104C78.8488 8.33163 80.7685 8.72184 82.5598 9.48179C84.351 10.2418 85.9785 11.3565 87.3492 12.7624C88.7198 14.1682 89.8068 15.8374 90.5477 17.6746C91.2887 19.5117 91.6692 21.4807 91.6673 23.4688V76.5315C91.6692 78.5196 91.2887 80.4886 90.5477 82.3258C89.8068 84.1629 88.7198 85.8322 87.3492 87.238C85.9785 88.6438 84.351 89.7586 82.5598 90.5185C80.7685 91.2785 78.8488 91.6687 76.9104 91.6668H23.0909C21.1525 91.6687 19.2328 91.2785 17.4415 90.5185C15.6503 89.7586 14.0228 88.6438 12.6521 87.238C11.2815 85.8322 10.1945 84.1629 9.45358 82.3258C8.71262 80.4886 8.33216 78.5196 8.33399 76.5315V23.4688C8.33216 21.4807 8.71262 19.5117 9.45358 17.6746C10.1945 15.8374 11.2815 14.1682 12.6521 12.7624C14.0228 11.3565 15.6503 10.2418 17.4415 9.48179C19.2328 8.72184 21.1525 8.33163 23.0909 8.3335Z" fill="#000B1D"/>
<path d="M49.883 22.0833C35.4385 22.0833 36.3405 28.3472 36.3405 28.3472L36.3566 34.8367H50.1406V36.7851H30.8817C30.8817 36.7851 21.6387 35.7369 21.6387 50.3115C21.6387 64.886 29.7062 64.3692 29.7062 64.3692H34.5209V57.606C34.5209 57.606 34.2614 49.5385 42.4596 49.5385C50.6578 49.5385 56.1309 49.5385 56.1309 49.5385C56.1309 49.5385 63.8119 49.6627 63.8119 42.1151C63.8119 34.5676 63.8119 29.6355 63.8119 29.6355C63.8119 29.6355 64.9781 22.0833 49.883 22.0833ZM42.2825 26.4471C43.6539 26.4471 44.7623 27.5555 44.7623 28.9269C44.7623 30.2983 43.6539 31.4068 42.2825 31.4068C40.9111 31.4068 39.8026 30.2983 39.8026 28.9269C39.8026 27.5555 40.9111 26.4471 42.2825 26.4471Z" fill="url(#paint0_linear_826_6605)"/>
<path d="M50.2936 78.6854C64.738 78.6854 63.836 72.4214 63.836 72.4214L63.8199 65.932H50.0359V63.9836H69.2949C69.2949 63.9836 78.5379 65.0318 78.5379 50.4572C78.5379 35.8826 70.4704 36.3995 70.4704 36.3995H65.6556V43.1627C65.6556 43.1627 65.9152 51.2302 57.7169 51.2302C49.5187 51.2302 44.0457 51.2302 44.0457 51.2302C44.0457 51.2302 36.3646 51.106 36.3646 58.6536C36.3646 66.2011 36.3646 71.1332 36.3646 71.1332C36.3646 71.1332 35.1984 78.6854 50.2936 78.6854ZM57.8941 74.3216C56.5227 74.3216 55.4142 73.2132 55.4142 71.8417C55.4142 70.4703 56.5227 69.3619 57.8941 69.3619C59.2655 69.3619 60.3739 70.4703 60.3739 71.8417C60.3739 73.2132 59.2655 74.3216 57.8941 74.3216Z" fill="url(#paint1_linear_826_6605)"/>
</g>
<defs>
<linearGradient id="paint0_linear_826_6605" x1="27.1068" y1="27.0308" x2="55.2416" y2="55.2597" gradientUnits="userSpaceOnUse">
<stop stop-color="#387EB8"/>
<stop offset="1" stop-color="#366994"/>
</linearGradient>
<linearGradient id="paint1_linear_826_6605" x1="44.4144" y1="44.9884" x2="74.6313" y2="73.9377" gradientUnits="userSpaceOnUse">
<stop stop-color="#FFE052"/>
<stop offset="1" stop-color="#FFC331"/>
</linearGradient>
<clipPath id="clip0_826_6605">
<rect width="83.3333" height="83.3333" fill="white" transform="translate(8.33398 8.3335)"/>
</clipPath>
</defs>
</svg>