<svg width="1200" height="160" viewBox="0 0 1200 160" fill="none" xmlns="http://www.w3.org/2000/svg">
<rect width="1200" height="160" rx="16" fill="url(#paint0_radial_2637_38366)"/>
<g filter="url(#filter0_f_2637_38366)">
<path d="M456.713 108.984L461.775 90.0845C462.863 86.027 467.933 84.6694 470.91 87.6394L484.748 101.477C487.718 104.447 486.36 109.524 482.303 110.612L463.403 115.674C459.345 116.762 455.633 113.049 456.72 108.992L456.713 108.984Z" fill="#E9ECFC"/>
<path d="M513.9 114.565C474.19 114.565 441.998 93.172 441.998 66.7825C441.998 40.393 474.19 19 513.9 19C553.611 19 585.803 40.393 585.803 66.7825C585.803 93.172 553.611 114.565 513.9 114.565Z" fill="#E9ECFC"/>
<path d="M529.857 43.6925C523.306 44.6046 518.843 51.4249 519.888 58.926C520.932 66.4272 527.089 71.7687 533.639 70.8566C540.19 69.9445 544.653 63.1242 543.609 55.623C542.564 48.1218 536.407 42.7803 529.857 43.6925Z" fill="white"/>
<path d="M533.035 52.4043C529.474 52.9002 527.047 56.6076 527.615 60.6852C528.182 64.7627 531.53 67.6662 535.091 67.1703C538.652 66.6744 541.079 62.967 540.511 58.8894C539.943 54.8119 536.596 51.9084 533.035 52.4043Z" fill="#E9ECFC"/>
<path d="M551.697 40.6514C545.146 41.5635 540.683 48.3839 541.727 55.885C542.772 63.3862 548.929 68.7277 555.479 67.8156C562.03 66.9035 566.493 60.0832 565.449 52.582C564.404 45.0808 558.247 39.7393 551.697 40.6514Z" fill="white"/>
<path d="M554.875 49.3633C551.313 49.8592 548.887 53.5666 549.455 57.6442C550.022 61.7217 553.369 64.6252 556.931 64.1293C560.492 63.6334 562.919 59.926 562.351 55.8484C561.783 51.7709 558.436 48.8674 554.875 49.3633Z" fill="#E9ECFC"/>
</g>
<g filter="url(#filter1_f_2637_38366)">
<path d="M744.09 129.985L739.027 111.085C737.94 107.027 732.87 105.67 729.892 108.64L716.055 122.477C713.085 125.447 714.442 130.525 718.5 131.612L737.4 136.675C741.457 137.762 745.17 134.05 744.082 129.992L744.09 129.985Z" fill="#BBC3F7"/>
<path d="M686.903 135.565C726.613 135.565 758.805 114.172 758.805 87.7825C758.805 61.393 726.613 40 686.903 40C647.192 40 615 61.393 615 87.7825C615 114.172 647.192 135.565 686.903 135.565Z" fill="#BBC3F7"/>
<path d="M670.426 92.2958C676.923 93.5305 683.336 88.4997 684.75 81.0593C686.164 73.6189 682.043 66.5864 675.546 65.3518C669.048 64.1171 662.635 69.1478 661.221 76.5882C659.807 84.0286 663.928 91.0612 670.426 92.2958Z" fill="white"/>
<path d="M670.208 83.0256C673.741 83.6968 677.227 80.9623 677.996 76.9178C678.765 72.8733 676.524 69.0504 672.992 68.3792C669.459 67.708 665.973 70.4425 665.204 74.487C664.436 78.5315 666.676 82.3544 670.208 83.0256Z" fill="#9BA5F3"/>
<path d="M648.764 88.1796C655.261 89.4143 661.674 84.3835 663.088 76.9431C664.502 69.5027 660.381 62.4702 653.884 61.2355C647.386 60.0009 640.973 65.0316 639.559 72.472C638.145 79.9124 642.266 86.945 648.764 88.1796Z" fill="white"/>
<path d="M648.544 78.9089C652.077 79.5801 655.563 76.8456 656.332 72.8011C657.1 68.7566 654.86 64.9337 651.328 64.2625C647.795 63.5913 644.309 66.3258 643.54 70.3703C642.772 74.4148 645.012 78.2377 648.544 78.9089Z" fill="#9BA5F3"/>
</g>
<g filter="url(#filter2_f_2637_38366)">
<path d="M450.07 46.3817C450.826 44.2652 452.14 42.0178 453.788 39.9895C454.815 38.8288 455.47 37.679 454.866 35.9775C454.407 34.6834 453.702 34.7446 452.651 35.1177C451.599 35.4908 451.103 36.3281 451.37 37.4207C451.733 39.7338 449.818 43.2465 445.446 44.7983C439.962 46.7444 436.796 44.306 435.486 40.6154C432.846 33.1741 437.595 25.6332 448.109 21.9021C459.662 17.8021 466.59 21.2126 469.226 28.6418C470.91 33.387 470.882 37.5525 468.848 41.1077C467.953 42.68 466.265 45.1272 465.85 46.1921C465.549 46.8248 465.389 48.7977 465.37 49.4654C465.275 52.7236 463.699 55.3336 459.673 56.7625C455.647 58.1913 452.491 57.0714 450.89 54.6042C449.982 53.1455 449.005 49.6738 450.074 46.3937L450.07 46.3817ZM460.673 59.4296C465.464 57.7294 469.6 59.756 471.344 64.6689C472.756 68.6471 470.541 72.7926 465.989 74.408C461.437 76.0234 457.224 74.159 455.812 70.1808C454.068 65.2679 456.121 61.045 460.673 59.4296Z" fill="#BBC3F7"/>
</g>
<g filter="url(#filter3_f_2637_38366)">
<path d="M722.895 64.0317C725.21 62.7657 728.117 61.8213 731.146 61.3291C732.953 61.1136 734.425 60.6166 735.224 58.653C735.832 57.1596 735.166 56.6631 733.953 56.1693C732.739 55.6756 731.65 56.0221 731.031 57.1885C729.544 59.5006 725.122 61.0859 720.076 59.0325C713.747 56.4572 712.875 51.8473 714.608 47.5883C718.103 39.0013 728.156 36.097 740.288 41.0343C753.621 46.4597 757.032 54.8593 753.544 63.4325C751.315 68.9083 748.038 72.5389 743.479 74.0682C741.466 74.7482 738.076 75.5766 736.88 76.1859C736.122 76.5063 734.441 78.1108 733.903 78.6818C731.276 81.4648 727.857 82.5231 723.21 80.6324C718.564 78.7416 716.672 75.296 717.193 71.8818C717.536 69.8938 719.391 66.0872 722.889 64.0455L722.895 64.0317ZM722.005 83.7522C727.534 86.0021 729.578 91.0085 727.271 96.6779C725.403 101.269 720.224 103.175 714.971 101.037C709.718 98.8994 707.479 93.9751 709.348 89.3842C711.655 83.7148 716.752 81.6146 722.005 83.7522Z" fill="#E9ECFC"/>
</g>
<path d="M587.308 83.768C587.812 82.88 588.172 81.488 588.172 80.36C588.172 76.28 585.652 73.544 581.908 73.544C578.164 73.544 575.668 76.28 575.668 80.36C575.668 84.416 578.164 87.152 581.908 87.152C583.324 87.152 584.884 86.576 585.796 85.736L583.372 83.168L585.172 81.464L587.308 83.768ZM591.004 87.656L589.204 89.36L587.38 87.416C586.084 88.568 583.828 89.384 581.908 89.384C576.748 89.384 573.1 85.664 573.1 80.36C573.1 75.056 576.748 71.312 581.908 71.312C587.092 71.312 590.74 75.056 590.74 80.36C590.692 82.112 590.044 84.296 589.108 85.664L591.004 87.656ZM609.356 89.168H605.732L604.268 87.56C602.996 88.712 601.364 89.552 599.324 89.552C593.804 89.552 593.468 85.016 593.468 84.32C593.468 83.696 593.756 80.96 596.444 79.208C595.604 78.344 594.716 77.312 594.716 75.68C594.716 73.88 596.228 71.312 599.324 71.312C602.348 71.312 604.004 73.736 604.004 75.68C604.004 77.48 602.828 78.752 600.836 79.904L604.172 83.576C604.7 82.76 605.18 81.848 605.612 81.032L607.916 82.304C607.436 83.24 606.836 84.416 606.02 85.568L609.356 89.168ZM596.108 84.32C596.108 84.848 596.276 86.912 599.324 86.912C600.572 86.912 601.604 86.408 602.468 85.64L598.364 81.152C596.324 82.184 596.108 83.888 596.108 84.32ZM597.356 75.68C597.356 76.52 598.124 77.072 598.988 77.936C600.716 77.096 601.364 76.52 601.364 75.68C601.364 74.792 600.74 73.952 599.324 73.952C597.836 73.952 597.356 74.84 597.356 75.68ZM620.596 71.48L627.172 89.192H624.46L622.684 84.368H615.412L613.564 89.192H610.852L617.548 71.48H620.596ZM616.228 82.16H621.844L619.084 74.696L616.228 82.16Z" fill="black"/>
<defs>
<filter id="filter0_f_2637_38366" x="439.998" y="17" width="147.805" height="100.866" filterUnits="userSpaceOnUse" color-interpolation-filters="sRGB">
<feFlood flood-opacity="0" result="BackgroundImageFix"/>
<feBlend mode="normal" in="SourceGraphic" in2="BackgroundImageFix" result="shape"/>
<feGaussianBlur stdDeviation="1" result="effect1_foregroundBlur_2637_38366"/>
</filter>
<filter id="filter1_f_2637_38366" x="612" y="37" width="149.805" height="102.866" filterUnits="userSpaceOnUse" color-interpolation-filters="sRGB">
<feFlood flood-opacity="0" result="BackgroundImageFix"/>
<feBlend mode="normal" in="SourceGraphic" in2="BackgroundImageFix" result="shape"/>
<feGaussianBlur stdDeviation="1.5" result="effect1_foregroundBlur_2637_38366"/>
</filter>
<filter id="filter2_f_2637_38366" x="430.77" y="16.1445" width="44.9961" height="62.8442" filterUnits="userSpaceOnUse" color-interpolation-filters="sRGB">
<feFlood flood-opacity="0" result="BackgroundImageFix"/>
<feBlend mode="normal" in="SourceGraphic" in2="BackgroundImageFix" result="shape"/>
<feGaussianBlur stdDeviation="2" result="effect1_foregroundBlur_2637_38366"/>
</filter>
<filter id="filter3_f_2637_38366" x="704.697" y="34.6306" width="54.125" height="71.2808" filterUnits="userSpaceOnUse" color-interpolation-filters="sRGB">
<feFlood flood-opacity="0" result="BackgroundImageFix"/>
<feBlend mode="normal" in="SourceGraphic" in2="BackgroundImageFix" result="shape"/>
<feGaussianBlur stdDeviation="2" result="effect1_foregroundBlur_2637_38366"/>
</filter>
<radialGradient id="paint0_radial_2637_38366" cx="0" cy="0" r="1" gradientUnits="userSpaceOnUse" gradientTransform="translate(600 80) rotate(90) scale(80 600)">
<stop stop-color="#E9ECFC" stop-opacity="0.1"/>
<stop offset="1" stop-color="#BBC3F7" stop-opacity="0.2"/>
</radialGradient>
</defs>
</svg>
