<svg width="100" height="100" viewBox="0 0 100 100" fill="none" xmlns="http://www.w3.org/2000/svg">
<rect width="100" height="100" rx="50" fill="#EAFBFF"/>
<path d="M50 57.4219C54.099 57.4219 57.4219 54.099 57.4219 50C57.4219 45.901 54.099 42.5781 50 42.5781C45.901 42.5781 42.5781 45.901 42.5781 50C42.5781 54.099 45.901 57.4219 50 57.4219Z" fill="#61DAFB"/>
<path d="M78.1895 37.7603C76.7572 37.2395 75.2598 36.7187 73.6973 36.2629C74.0879 34.7004 74.4134 33.1379 74.6738 31.6405C76.041 23.0468 74.5436 16.9921 70.377 14.6484C69.14 13.9322 67.7728 13.6067 66.2103 13.6067C61.653 13.6067 55.8587 16.9921 49.9993 22.6562C44.14 16.9921 38.3457 13.6067 33.7884 13.6067C32.2259 13.6067 30.8587 13.9322 29.6217 14.6484C25.4551 17.0572 23.9577 23.1119 25.3249 31.6405C25.5853 33.1379 25.9108 34.7004 26.3014 36.2629C24.7389 36.7187 23.2415 37.1744 21.8092 37.7603C13.6712 40.8853 9.24414 45.1822 9.24414 49.9999C9.24414 54.8176 13.7363 59.1145 21.8092 62.2395C23.2415 62.7603 24.7389 63.2812 26.3014 63.7369C25.9108 65.2994 25.5853 66.8619 25.3249 68.3593C23.9577 76.953 25.4551 83.0077 29.6217 85.3515C30.8587 86.0676 32.2259 86.3931 33.7884 86.3931C38.4108 86.3931 44.2051 83.0077 49.9993 77.3437C55.8587 83.0077 61.653 86.3931 66.2103 86.3931C67.7728 86.3931 69.14 86.0676 70.377 85.3515C74.5436 82.9426 76.041 76.8879 74.6738 68.3593C74.4134 66.8619 74.0879 65.2994 73.6973 63.7369C75.2598 63.2812 76.7572 62.8254 78.1895 62.2395C86.3275 59.1145 90.7546 54.8176 90.7546 49.9999C90.7546 45.1822 86.3275 40.8853 78.1895 37.7603ZM68.554 17.9036C71.2233 19.4661 72.1348 24.2838 71.028 31.1197C70.8327 32.4869 70.5072 33.9192 70.1165 35.4166C66.7311 34.6353 63.1504 34.1145 59.3744 33.789C57.1608 30.664 54.8822 27.8645 52.6035 25.3254C57.4212 20.5728 62.304 17.3176 66.2754 17.3176C67.1217 17.3176 67.903 17.5129 68.554 17.9036ZM61.2624 56.5103C60.0905 58.5937 58.7233 60.677 57.291 62.7603C54.8822 62.9556 52.4733 63.0207 49.9993 63.0207C47.4603 63.0207 45.0514 62.9556 42.7077 62.7603C41.2754 60.677 39.9733 58.5937 38.8014 56.5103C37.5645 54.3619 36.3926 52.1484 35.3509 49.9999C36.3926 47.8515 37.5645 45.6379 38.8014 43.4895C39.9733 41.4062 41.3405 39.3228 42.7728 37.2395C45.1816 37.0442 47.5905 36.9791 50.0645 36.9791C52.6035 36.9791 55.0124 37.0442 57.3561 37.2395C58.7884 39.3228 60.0905 41.4062 61.2624 43.4895C62.4994 45.6379 63.6712 47.8515 64.7129 49.9999C63.6061 52.1484 62.4994 54.2968 61.2624 56.5103ZM66.666 54.3619C67.6426 56.6405 68.4238 58.8541 69.14 61.0676C66.9264 61.5885 64.5827 61.9791 62.1087 62.3046C62.89 61.0676 63.7363 59.7655 64.4525 58.3984C65.2337 57.0312 65.9499 55.664 66.666 54.3619ZM49.9993 72.0051C48.4368 70.3124 46.9395 68.4895 45.5072 66.6015C47.0046 66.6666 48.502 66.7317 49.9993 66.7317C51.4967 66.7317 52.9941 66.6666 54.4915 66.6015C53.0592 68.4895 51.5618 70.3124 49.9993 72.0051ZM37.89 62.2395C35.416 61.914 33.0723 61.5234 30.8587 61.0025C31.5749 58.8541 32.3561 56.5754 33.3327 54.2968C34.0488 55.5989 34.765 56.9661 35.5462 58.2681C36.3275 59.7004 37.1087 60.9374 37.89 62.2395ZM33.3327 45.6379C32.3561 43.3593 31.5749 41.1458 30.8587 38.9322C33.0723 38.4114 35.416 38.0208 37.89 37.6952C37.1087 38.9322 36.2624 40.2343 35.5462 41.6015C34.765 42.9687 34.0488 44.3359 33.3327 45.6379ZM49.9993 27.9947C51.5618 29.6874 53.0592 31.5103 54.4915 33.3984C52.9941 33.3333 51.4967 33.2681 49.9993 33.2681C48.502 33.2681 47.0046 33.3333 45.5072 33.3984C46.9395 31.5103 48.4368 29.6874 49.9993 27.9947ZM64.4525 41.6666L62.1087 37.7603C64.5827 38.0859 66.9264 38.4765 69.14 38.9973C68.4238 41.1458 67.6426 43.4244 66.666 45.703C65.9499 44.3359 65.2337 42.9687 64.4525 41.6666ZM28.9707 31.1197C27.8639 24.2838 28.7754 19.4661 31.4447 17.9036C32.0957 17.5129 32.877 17.3176 33.7233 17.3176C37.6296 17.3176 42.5124 20.5077 47.3952 25.3254C45.1165 27.7994 42.8379 30.664 40.6243 33.789C36.8483 34.1145 33.2676 34.7004 29.8822 35.4166C29.4915 33.9192 29.2311 32.4869 28.9707 31.1197ZM12.89 49.9999C12.89 46.94 16.6009 43.6848 23.1113 41.276C24.4134 40.7551 25.8457 40.2994 27.278 39.9088C28.3197 43.164 29.6217 46.6145 31.1842 50.065C29.6217 53.5155 28.2546 56.901 27.278 60.1562C18.2936 57.552 12.89 53.6458 12.89 49.9999ZM31.4447 82.0963C28.7754 80.5338 27.8639 75.7161 28.9707 68.8801C29.166 67.5129 29.4915 66.0806 29.8822 64.5833C33.2676 65.3645 36.8483 65.8853 40.6243 66.2109C42.8379 69.3359 45.1165 72.1353 47.3952 74.6744C42.5775 79.427 37.6947 82.6822 33.7233 82.6822C32.877 82.6822 32.0957 82.4869 31.4447 82.0963ZM71.028 68.8801C72.1348 75.7161 71.2233 80.5338 68.554 82.0963C67.903 82.4869 67.1217 82.6822 66.2754 82.6822C62.3691 82.6822 57.4863 79.4921 52.6035 74.6744C54.8822 72.2004 57.1608 69.3359 59.3744 66.2109C63.1504 65.8853 66.7311 65.2994 70.1165 64.5833C70.5072 66.0806 70.7676 67.5129 71.028 68.8801ZM76.8874 58.7239C75.5853 59.2447 74.153 59.7004 72.7207 60.0911C71.679 56.8359 70.377 53.3853 68.8145 49.9348C70.377 46.4843 71.7441 43.0989 72.7207 39.8437C81.7051 42.4478 87.1087 46.3541 87.1087 49.9999C87.1087 53.0598 83.3327 56.315 76.8874 58.7239Z" fill="#61DAFB"/>
</svg>