<svg width="20" height="21" viewBox="0 0 20 21" fill="none" xmlns="http://www.w3.org/2000/svg">
<rect y="0.5" width="20" height="20" rx="3.07692" fill="#D7DBDF"/>
<path d="M10 11.9841C10.8198 11.9841 11.4844 11.3196 11.4844 10.4998C11.4844 9.67996 10.8198 9.01538 10 9.01538C9.1802 9.01538 8.51562 9.67996 8.51562 10.4998C8.51562 11.3196 9.1802 11.9841 10 11.9841Z" fill="#BBC2C9"/>
<path d="M15.6367 8.05192C15.3503 7.94775 15.0508 7.84359 14.7383 7.75244C14.8164 7.43994 14.8815 7.12744 14.9336 6.82796C15.207 5.10921 14.9076 3.89827 14.0742 3.42952C13.8268 3.2863 13.5534 3.22119 13.2409 3.22119C12.3294 3.22119 11.1706 3.89827 9.9987 5.03109C8.82682 3.89827 7.66797 3.22119 6.75651 3.22119C6.44401 3.22119 6.17057 3.2863 5.92318 3.42952C5.08984 3.9113 4.79036 5.12223 5.0638 6.82796C5.11589 7.12744 5.18099 7.43994 5.25911 7.75244C4.94661 7.84359 4.64714 7.93473 4.36068 8.05192C2.73307 8.67692 1.84766 9.5363 1.84766 10.4998C1.84766 11.4634 2.74609 12.3228 4.36068 12.9478C4.64714 13.0519 4.94661 13.1561 5.25911 13.2472C5.18099 13.5597 5.11589 13.8722 5.0638 14.1717C4.79036 15.8905 5.08984 17.1014 5.92318 17.5701C6.17057 17.7134 6.44401 17.7785 6.75651 17.7785C7.68099 17.7785 8.83984 17.1014 9.9987 15.9686C11.1706 17.1014 12.3294 17.7785 13.2409 17.7785C13.5534 17.7785 13.8268 17.7134 14.0742 17.5701C14.9076 17.0884 15.207 15.8774 14.9336 14.1717C14.8815 13.8722 14.8164 13.5597 14.7383 13.2472C15.0508 13.1561 15.3503 13.0649 15.6367 12.9478C17.2643 12.3228 18.1497 11.4634 18.1497 10.4998C18.1497 9.5363 17.2643 8.67692 15.6367 8.05192ZM13.7096 4.08057C14.2435 4.39307 14.4258 5.35661 14.2044 6.7238C14.1654 6.99723 14.1003 7.28369 14.0221 7.58317C13.3451 7.42692 12.6289 7.32275 11.8737 7.25765C11.431 6.63265 10.9753 6.07275 10.5195 5.56494C11.4831 4.61442 12.4596 3.96338 13.2539 3.96338C13.4232 3.96338 13.5794 4.00244 13.7096 4.08057ZM12.2513 11.8019C12.0169 12.2186 11.7435 12.6353 11.457 13.0519C10.9753 13.091 10.4935 13.104 9.9987 13.104C9.49089 13.104 9.00911 13.091 8.54036 13.0519C8.25391 12.6353 7.99349 12.2186 7.75911 11.8019C7.51172 11.3722 7.27734 10.9295 7.06901 10.4998C7.27734 10.0701 7.51172 9.62744 7.75911 9.19775C7.99349 8.78109 8.26693 8.36442 8.55339 7.94775C9.03516 7.90869 9.51693 7.89567 10.0117 7.89567C10.5195 7.89567 11.0013 7.90869 11.4701 7.94775C11.7565 8.36442 12.0169 8.78109 12.2513 9.19775C12.4987 9.62744 12.7331 10.0701 12.9414 10.4998C12.7201 10.9295 12.4987 11.3592 12.2513 11.8019ZM13.332 11.3722C13.5273 11.828 13.6836 12.2707 13.8268 12.7134C13.3841 12.8175 12.9154 12.8957 12.4206 12.9608C12.5768 12.7134 12.7461 12.453 12.8893 12.1795C13.0456 11.9061 13.1888 11.6326 13.332 11.3722ZM9.9987 14.9009C9.6862 14.5623 9.38672 14.1978 9.10026 13.8201C9.39974 13.8332 9.69922 13.8462 9.9987 13.8462C10.2982 13.8462 10.5977 13.8332 10.8971 13.8201C10.6107 14.1978 10.3112 14.5623 9.9987 14.9009ZM7.57682 12.9478C7.08203 12.8827 6.61328 12.8045 6.17057 12.7004C6.3138 12.2707 6.47005 11.8149 6.66536 11.3592C6.80859 11.6196 6.95182 11.8931 7.10807 12.1535C7.26432 12.4399 7.42057 12.6873 7.57682 12.9478ZM6.66536 9.62744C6.47005 9.17171 6.3138 8.729 6.17057 8.2863C6.61328 8.18213 7.08203 8.104 7.57682 8.0389C7.42057 8.2863 7.2513 8.54671 7.10807 8.82015C6.95182 9.09359 6.80859 9.36702 6.66536 9.62744ZM9.9987 6.0988C10.3112 6.43734 10.6107 6.80192 10.8971 7.17952C10.5977 7.1665 10.2982 7.15348 9.9987 7.15348C9.69922 7.15348 9.39974 7.1665 9.10026 7.17952C9.38672 6.80192 9.6862 6.43734 9.9987 6.0988ZM12.8893 8.83317L12.4206 8.05192C12.9154 8.11702 13.3841 8.19515 13.8268 8.29932C13.6836 8.729 13.5273 9.18473 13.332 9.64046C13.1888 9.36702 13.0456 9.09359 12.8893 8.83317ZM5.79297 6.7238C5.57161 5.35661 5.75391 4.39307 6.28776 4.08057C6.41797 4.00244 6.57422 3.96338 6.74349 3.96338C7.52474 3.96338 8.5013 4.6014 9.47786 5.56494C9.02214 6.05973 8.56641 6.63265 8.1237 7.25765C7.36849 7.32275 6.65234 7.43994 5.97526 7.58317C5.89714 7.28369 5.84505 6.99723 5.79297 6.7238ZM2.57682 10.4998C2.57682 9.88786 3.31901 9.23682 4.62109 8.75505C4.88151 8.65088 5.16797 8.55973 5.45443 8.48161C5.66276 9.13265 5.92318 9.82275 6.23568 10.5129C5.92318 11.203 5.64974 11.88 5.45443 12.5311C3.65755 12.0103 2.57682 11.229 2.57682 10.4998ZM6.28776 16.9191C5.75391 16.6066 5.57161 15.6431 5.79297 14.2759C5.83203 14.0024 5.89714 13.716 5.97526 13.4165C6.65234 13.5728 7.36849 13.6769 8.1237 13.742C8.56641 14.367 9.02214 14.9269 9.47786 15.4347C8.51432 16.3853 7.53776 17.0363 6.74349 17.0363C6.57422 17.0363 6.41797 16.9972 6.28776 16.9191ZM14.2044 14.2759C14.4258 15.6431 14.2435 16.6066 13.7096 16.9191C13.5794 16.9972 13.4232 17.0363 13.2539 17.0363C12.4727 17.0363 11.4961 16.3983 10.5195 15.4347C10.9753 14.9399 11.431 14.367 11.8737 13.742C12.6289 13.6769 13.3451 13.5597 14.0221 13.4165C14.1003 13.716 14.1523 14.0024 14.2044 14.2759ZM15.3763 12.2446C15.1159 12.3488 14.8294 12.4399 14.543 12.5181C14.3346 11.867 14.0742 11.1769 13.7617 10.4868C14.0742 9.79671 14.3477 9.11963 14.543 8.46859C16.3398 8.98942 17.4206 9.77067 17.4206 10.4998C17.4206 11.1118 16.6654 11.7629 15.3763 12.2446Z" fill="#BBC2C9"/>
</svg>
