<svg width="80" height="80" viewBox="0 0 80 80" fill="none" xmlns="http://www.w3.org/2000/svg">
<rect width="80" height="80" rx="16" fill="#EAFBFF"/>
<path d="M40 45.9368C43.2792 45.9368 45.9375 43.2785 45.9375 39.9993C45.9375 36.7201 43.2792 34.0618 40 34.0618C36.7208 34.0618 34.0625 36.7201 34.0625 39.9993C34.0625 43.2785 36.7208 45.9368 40 45.9368Z" fill="#61DAFB"/>
<path d="M62.5518 30.2077C61.4059 29.791 60.208 29.3743 58.958 29.0098C59.2705 27.7598 59.5309 26.5098 59.7393 25.3118C60.833 18.4368 59.6351 13.5931 56.3018 11.7181C55.3122 11.1452 54.2184 10.8848 52.9684 10.8848C49.3226 10.8848 44.6872 13.5931 39.9997 18.1243C35.3122 13.5931 30.6768 10.8848 27.0309 10.8848C25.7809 10.8848 24.6872 11.1452 23.6976 11.7181C20.3643 13.6452 19.1663 18.4889 20.2601 25.3118C20.4684 26.5098 20.7288 27.7598 21.0413 29.0098C19.7913 29.3743 18.5934 29.7389 17.4476 30.2077C10.9372 32.7077 7.39551 36.1452 7.39551 39.9993C7.39551 43.8535 10.9893 47.291 17.4476 49.791C18.5934 50.2077 19.7913 50.6243 21.0413 50.9889C20.7288 52.2389 20.4684 53.4889 20.2601 54.6868C19.1663 61.5618 20.3643 66.4056 23.6976 68.2806C24.6872 68.8535 25.7809 69.1139 27.0309 69.1139C30.7288 69.1139 35.3643 66.4056 39.9997 61.8743C44.6872 66.4056 49.3226 69.1139 52.9684 69.1139C54.2184 69.1139 55.3122 68.8535 56.3018 68.2806C59.6351 66.3535 60.833 61.5098 59.7393 54.6868C59.5309 53.4889 59.2705 52.2389 58.958 50.9889C60.208 50.6243 61.4059 50.2598 62.5518 49.791C69.0622 47.291 72.6038 43.8535 72.6038 39.9993C72.6038 36.1452 69.0622 32.7077 62.5518 30.2077ZM54.8434 14.3223C56.9788 15.5723 57.708 19.4264 56.8226 24.8952C56.6663 25.9889 56.4059 27.1348 56.0934 28.3327C53.3851 27.7077 50.5205 27.291 47.4997 27.0306C45.7288 24.5306 43.9059 22.291 42.083 20.2598C45.9372 16.4577 49.8434 13.8535 53.0205 13.8535C53.6976 13.8535 54.3226 14.0098 54.8434 14.3223ZM49.0101 45.2077C48.0726 46.8743 46.9788 48.541 45.833 50.2077C43.9059 50.3639 41.9788 50.416 39.9997 50.416C37.9684 50.416 36.0413 50.3639 34.1663 50.2077C33.0205 48.541 31.9788 46.8743 31.0413 45.2077C30.0518 43.4889 29.1143 41.7181 28.2809 39.9993C29.1143 38.2806 30.0518 36.5098 31.0413 34.791C31.9788 33.1243 33.0726 31.4577 34.2184 29.791C36.1455 29.6348 38.0726 29.5827 40.0518 29.5827C42.083 29.5827 44.0101 29.6348 45.8851 29.791C47.0309 31.4577 48.0726 33.1243 49.0101 34.791C49.9997 36.5098 50.9372 38.2806 51.7705 39.9993C50.8851 41.7181 49.9997 43.4368 49.0101 45.2077ZM53.333 43.4889C54.1143 45.3118 54.7393 47.0827 55.3122 48.8535C53.5413 49.2702 51.6663 49.5827 49.6872 49.8431C50.3122 48.8535 50.9893 47.8118 51.5622 46.7181C52.1872 45.6243 52.7601 44.5306 53.333 43.4889ZM39.9997 57.6035C38.7497 56.2494 37.5518 54.791 36.4059 53.2806C37.6038 53.3327 38.8018 53.3848 39.9997 53.3848C41.1976 53.3848 42.3955 53.3327 43.5934 53.2806C42.4476 54.791 41.2497 56.2494 39.9997 57.6035ZM30.3122 49.791C28.333 49.5306 26.458 49.2181 24.6872 48.8014C25.2601 47.0827 25.8851 45.2598 26.6663 43.4368C27.2393 44.4785 27.8122 45.5723 28.4372 46.6139C29.0622 47.7598 29.6872 48.7494 30.3122 49.791ZM26.6663 36.5098C25.8851 34.6868 25.2601 32.916 24.6872 31.1452C26.458 30.7285 28.333 30.416 30.3122 30.1556C29.6872 31.1452 29.0101 32.1868 28.4372 33.2806C27.8122 34.3743 27.2393 35.4681 26.6663 36.5098ZM39.9997 22.3952C41.2497 23.7493 42.4476 25.2077 43.5934 26.7181C42.3955 26.666 41.1976 26.6139 39.9997 26.6139C38.8018 26.6139 37.6038 26.666 36.4059 26.7181C37.5518 25.2077 38.7497 23.7493 39.9997 22.3952ZM51.5622 33.3327L49.6872 30.2077C51.6663 30.4681 53.5413 30.7806 55.3122 31.1973C54.7393 32.916 54.1143 34.7389 53.333 36.5618C52.7601 35.4681 52.1872 34.3743 51.5622 33.3327ZM23.1768 24.8952C22.2913 19.4264 23.0205 15.5723 25.1559 14.3223C25.6768 14.0098 26.3018 13.8535 26.9788 13.8535C30.1038 13.8535 34.0101 16.4056 37.9163 20.2598C36.0934 22.2389 34.2705 24.5306 32.4997 27.0306C29.4788 27.291 26.6143 27.7598 23.9059 28.3327C23.5934 27.1348 23.3851 25.9889 23.1768 24.8952ZM10.3122 39.9993C10.3122 37.5514 13.2809 34.9473 18.4893 33.0202C19.5309 32.6035 20.6768 32.2389 21.8226 31.9264C22.6559 34.5306 23.6976 37.291 24.9476 40.0514C23.6976 42.8118 22.6038 45.5202 21.8226 48.1243C14.6351 46.041 10.3122 42.916 10.3122 39.9993ZM25.1559 65.6764C23.0205 64.4264 22.2913 60.5723 23.1768 55.1035C23.333 54.0098 23.5934 52.8639 23.9059 51.666C26.6143 52.291 29.4788 52.7077 32.4997 52.9681C34.2705 55.4681 36.0934 57.7077 37.9163 59.7389C34.0622 63.541 30.1559 66.1452 26.9788 66.1452C26.3018 66.1452 25.6768 65.9889 25.1559 65.6764ZM56.8226 55.1035C57.708 60.5723 56.9788 64.4264 54.8434 65.6764C54.3226 65.9889 53.6976 66.1452 53.0205 66.1452C49.8955 66.1452 45.9893 63.5931 42.083 59.7389C43.9059 57.7598 45.7288 55.4681 47.4997 52.9681C50.5205 52.7077 53.3851 52.2389 56.0934 51.666C56.4059 52.8639 56.6143 54.0098 56.8226 55.1035ZM61.5101 46.9785C60.4684 47.3952 59.3226 47.7598 58.1768 48.0723C57.3434 45.4681 56.3018 42.7077 55.0518 39.9473C56.3018 37.1868 57.3955 34.4785 58.1768 31.8743C65.3643 33.9577 69.6872 37.0827 69.6872 39.9993C69.6872 42.4473 66.6663 45.0514 61.5101 46.9785Z" fill="#61DAFB"/>
</svg>
