<svg width="24" height="24" viewBox="0 0 24 24" fill="none" xmlns="http://www.w3.org/2000/svg">
<g opacity="0.8">
<rect width="24" height="24" rx="12" fill="#D7DBDF"/>
<path d="M12 13.7813C12.9838 13.7813 13.7813 12.9838 13.7813 12C13.7813 11.0162 12.9838 10.2188 12 10.2188C11.0162 10.2188 10.2188 11.0162 10.2188 12C10.2188 12.9838 11.0162 13.7813 12 13.7813Z" fill="#BBC2C9"/>
<path d="M18.7656 9.0625C18.4219 8.9375 18.0625 8.8125 17.6875 8.70312C17.7812 8.32812 17.8594 7.95312 17.9219 7.59375C18.25 5.53125 17.8906 4.07812 16.8906 3.51562C16.5937 3.34375 16.2656 3.26562 15.8906 3.26562C14.7969 3.26562 13.4062 4.07812 12 5.4375C10.5937 4.07812 9.20312 3.26562 8.10937 3.26562C7.73437 3.26562 7.40625 3.34375 7.10937 3.51562C6.10937 4.09375 5.75 5.54687 6.07812 7.59375C6.14062 7.95312 6.21875 8.32812 6.3125 8.70312C5.9375 8.8125 5.57812 8.92187 5.23438 9.0625C3.28125 9.8125 2.21875 10.8437 2.21875 12C2.21875 13.1562 3.29688 14.1875 5.23438 14.9375C5.57812 15.0625 5.9375 15.1875 6.3125 15.2969C6.21875 15.6719 6.14062 16.0469 6.07812 16.4062C5.75 18.4687 6.10937 19.9219 7.10937 20.4844C7.40625 20.6562 7.73437 20.7344 8.10937 20.7344C9.21875 20.7344 10.6094 19.9219 12 18.5625C13.4062 19.9219 14.7969 20.7344 15.8906 20.7344C16.2656 20.7344 16.5937 20.6562 16.8906 20.4844C17.8906 19.9062 18.25 18.4531 17.9219 16.4062C17.8594 16.0469 17.7812 15.6719 17.6875 15.2969C18.0625 15.1875 18.4219 15.0781 18.7656 14.9375C20.7187 14.1875 21.7812 13.1562 21.7812 12C21.7812 10.8437 20.7187 9.8125 18.7656 9.0625ZM16.4531 4.29687C17.0937 4.67187 17.3125 5.82812 17.0469 7.46875C17 7.79687 16.9219 8.14062 16.8281 8.5C16.0156 8.3125 15.1562 8.1875 14.25 8.10937C13.7187 7.35937 13.1719 6.6875 12.625 6.07812C13.7812 4.9375 14.9531 4.15625 15.9062 4.15625C16.1094 4.15625 16.2969 4.20312 16.4531 4.29687ZM14.7031 13.5625C14.4219 14.0625 14.0937 14.5625 13.75 15.0625C13.1719 15.1094 12.5937 15.125 12 15.125C11.3906 15.125 10.8125 15.1094 10.25 15.0625C9.90625 14.5625 9.59375 14.0625 9.3125 13.5625C9.01562 13.0469 8.73437 12.5156 8.48437 12C8.73437 11.4844 9.01562 10.9531 9.3125 10.4375C9.59375 9.9375 9.92187 9.4375 10.2656 8.9375C10.8437 8.89062 11.4219 8.875 12.0156 8.875C12.625 8.875 13.2031 8.89062 13.7656 8.9375C14.1094 9.4375 14.4219 9.9375 14.7031 10.4375C15 10.9531 15.2812 11.4844 15.5312 12C15.2656 12.5156 15 13.0312 14.7031 13.5625ZM16 13.0469C16.2344 13.5937 16.4219 14.125 16.5937 14.6562C16.0625 14.7812 15.5 14.875 14.9062 14.9531C15.0937 14.6562 15.2969 14.3437 15.4687 14.0156C15.6562 13.6875 15.8281 13.3594 16 13.0469ZM12 17.2812C11.625 16.875 11.2656 16.4375 10.9219 15.9844C11.2812 16 11.6406 16.0156 12 16.0156C12.3594 16.0156 12.7187 16 13.0781 15.9844C12.7344 16.4375 12.375 16.875 12 17.2812ZM9.09375 14.9375C8.5 14.8594 7.9375 14.7656 7.40625 14.6406C7.57812 14.125 7.76562 13.5781 8 13.0312C8.17187 13.3437 8.34375 13.6719 8.53125 13.9844C8.71875 14.3281 8.90625 14.625 9.09375 14.9375ZM8 10.9531C7.76562 10.4062 7.57812 9.875 7.40625 9.34375C7.9375 9.21875 8.5 9.125 9.09375 9.04687C8.90625 9.34375 8.70312 9.65625 8.53125 9.98437C8.34375 10.3125 8.17187 10.6406 8 10.9531ZM12 6.71875C12.375 7.125 12.7344 7.5625 13.0781 8.01562C12.7187 8 12.3594 7.98437 12 7.98437C11.6406 7.98437 11.2812 8 10.9219 8.01562C11.2656 7.5625 11.625 7.125 12 6.71875ZM15.4687 10L14.9062 9.0625C15.5 9.14062 16.0625 9.23437 16.5937 9.35937C16.4219 9.875 16.2344 10.4219 16 10.9687C15.8281 10.6406 15.6562 10.3125 15.4687 10ZM6.95312 7.46875C6.6875 5.82812 6.90625 4.67187 7.54687 4.29687C7.70312 4.20312 7.89062 4.15625 8.09375 4.15625C9.03125 4.15625 10.2031 4.92187 11.375 6.07812C10.8281 6.67187 10.2812 7.35937 9.75 8.10937C8.84375 8.1875 7.98437 8.32812 7.17187 8.5C7.07812 8.14062 7.01562 7.79687 6.95312 7.46875ZM3.09375 12C3.09375 11.2656 3.98438 10.4844 5.54687 9.90625C5.85937 9.78125 6.20312 9.67187 6.54687 9.57812C6.79687 10.3594 7.10937 11.1875 7.48437 12.0156C7.10937 12.8437 6.78125 13.6562 6.54687 14.4375C4.39062 13.8125 3.09375 12.875 3.09375 12ZM7.54687 19.7031C6.90625 19.3281 6.6875 18.1719 6.95312 16.5312C7 16.2031 7.07812 15.8594 7.17187 15.5C7.98437 15.6875 8.84375 15.8125 9.75 15.8906C10.2812 16.6406 10.8281 17.3125 11.375 17.9219C10.2187 19.0625 9.04687 19.8437 8.09375 19.8437C7.89062 19.8437 7.70312 19.7969 7.54687 19.7031ZM17.0469 16.5312C17.3125 18.1719 17.0937 19.3281 16.4531 19.7031C16.2969 19.7969 16.1094 19.8437 15.9062 19.8437C14.9687 19.8437 13.7969 19.0781 12.625 17.9219C13.1719 17.3281 13.7187 16.6406 14.25 15.8906C15.1562 15.8125 16.0156 15.6719 16.8281 15.5C16.9219 15.8594 16.9844 16.2031 17.0469 16.5312ZM18.4531 14.0937C18.1406 14.2187 17.7969 14.3281 17.4531 14.4219C17.2031 13.6406 16.8906 12.8125 16.5156 11.9844C16.8906 11.1562 17.2187 10.3438 17.4531 9.5625C19.6094 10.1875 20.9062 11.125 20.9062 12C20.9062 12.7344 20 13.5156 18.4531 14.0937Z" fill="#BBC2C9"/>
</g>
</svg>