<svg width="24" height="24" viewBox="0 0 24 24" fill="none" xmlns="http://www.w3.org/2000/svg">
<path d="M4 12C4 9.23858 6.23858 7 9 7H15C17.7614 7 20 9.23858 20 12V12C20 14.7614 17.7614 17 15 17H11.2376C9.95033 17 8.78296 17.7556 8.25584 18.93V18.93C8.12057 19.2314 7.75032 19.3439 7.47018 19.1689L6.82001 18.7625C5.06572 17.6661 4 15.7433 4 13.6745V12Z" stroke="black"/>
<path d="M10 12C10 12.5523 9.55228 13 9 13C8.44772 13 8 12.5523 8 12C8 11.4477 8.44772 11 9 11C9.55228 11 10 11.4477 10 12Z" fill="black"/>
<path d="M13 12C13 12.5523 12.5523 13 12 13C11.4477 13 11 12.5523 11 12C11 11.4477 11.4477 11 12 11C12.5523 11 13 11.4477 13 12Z" fill="black"/>
<path d="M16 12C16 12.5523 15.5523 13 15 13C14.4477 13 14 12.5523 14 12C14 11.4477 14.4477 11 15 11C15.5523 11 16 11.4477 16 12Z" fill="black"/>
</svg>
