<svg width="16" height="16" viewBox="0 0 16 16" fill="none" xmlns="http://www.w3.org/2000/svg">
<path d="M7.44315 3.23268C7.67931 2.78507 8.32036 2.78507 8.55652 3.23268L9.77922 5.55012C9.87029 5.72273 10.0363 5.84334 10.2286 5.87661L12.8104 6.32334C13.3091 6.40962 13.5072 7.0193 13.1545 7.38222L11.3283 9.2612C11.1923 9.40116 11.1289 9.59629 11.1567 9.78947L11.5296 12.383C11.6017 12.8839 11.0831 13.2607 10.6289 13.0374L8.27757 11.8813C8.10243 11.7951 7.89725 11.7951 7.72211 11.8813L5.37077 13.0374C4.91661 13.2607 4.39799 12.8839 4.47003 12.383L4.843 9.78947C4.87078 9.59629 4.80738 9.40116 4.67136 9.2612L2.84517 7.38222C2.49245 7.0193 2.69055 6.40962 3.18922 6.32334L5.77108 5.87661C5.96339 5.84334 6.12938 5.72274 6.22045 5.55012L7.44315 3.23268Z" fill="#FFC805" stroke="#FFC805" stroke-width="0.666667"/>
</svg>
