<svg width="24" height="25" viewBox="0 0 24 25" fill="none" xmlns="http://www.w3.org/2000/svg">
<path d="M5 6.22412H10M10 6.22412H14.5M10 6.22412V5.22412C10 4.67184 10.4477 4.22412 11 4.22412H13.5C14.0523 4.22412 14.5 4.67184 14.5 5.22412V6.22412M14.5 6.22412H19M9 11.2241L9 16.2241M12 11.2241V16.2241M15 11.2241V16.2241M10 20.2241H14C16.2091 20.2241 18 18.4333 18 16.2241V9.22412C18 8.67184 17.5523 8.22412 17 8.22412H7C6.44772 8.22412 6 8.67184 6 9.22412V16.2241C6 18.4333 7.79086 20.2241 10 20.2241Z" stroke="white" stroke-linecap="round"/>
</svg>
