<svg width="80" height="80" viewBox="0 0 80 80" fill="none" xmlns="http://www.w3.org/2000/svg">
<rect width="80" height="80" rx="16" fill="#007ACC"/>
<path d="M18.4727 31.1453H70.3841V69.5151H18.4727V31.1453Z" fill="white"/>
<path d="M7.44727 39.9525V72.5046H72.5514V7.40039H7.44727V39.9525ZM59.9108 37.3483C61.4701 37.7102 62.8874 38.5257 63.9837 39.6921C64.5873 40.3204 65.112 41.02 65.5462 41.7754C65.5462 41.8587 62.7337 43.7598 61.0202 44.8223C60.9577 44.8639 60.7077 44.5931 60.4316 44.1816C60.1188 43.6419 59.6744 43.1902 59.1397 42.8687C58.6051 42.5472 57.9978 42.3664 57.3743 42.3431C55.4004 42.2077 54.1296 43.2441 54.14 44.9473C54.1236 45.3713 54.2207 45.792 54.4212 46.166C54.8535 47.0671 55.6608 47.6035 58.1921 48.6973C62.8535 50.7025 64.8483 52.0254 66.0879 53.9056C67.4733 55.9889 67.7806 59.3535 66.8431 61.8431C65.8014 64.5514 63.2493 66.39 59.64 66.9993C57.9915 67.1882 56.3258 67.1707 54.6816 66.9473C52.1617 66.5319 49.8404 65.322 48.0566 63.4941C47.4577 62.8327 46.291 61.1087 46.3639 60.9837C46.5541 60.8426 46.7542 60.7155 46.9629 60.6035L49.3743 59.2702L51.2441 58.1868L51.6348 58.765C52.294 59.708 53.133 60.5116 54.1035 61.1296C56.1868 62.2233 59.0306 62.0723 60.4368 60.8066C60.909 60.3429 61.2035 59.7282 61.2692 59.0696C61.3349 58.4111 61.1675 57.7503 60.7962 57.2025C60.2754 56.4785 59.2337 55.8691 56.3223 54.5983C52.9629 53.1504 51.515 52.2546 50.1921 50.8275C49.3662 49.8857 48.7564 48.7747 48.4056 47.5723C48.1439 46.1985 48.1052 44.7916 48.291 43.4056C48.9837 40.1608 51.416 37.8952 54.9681 37.2233C56.6131 37.0198 58.2794 37.0654 59.9108 37.3587V37.3483ZM44.6296 40.0775V42.7441H36.1764V66.8223H30.1816V42.7389H21.7077V40.1348C21.6813 39.2367 21.7021 38.3379 21.7702 37.4421C21.8118 37.3952 26.9785 37.3952 33.2285 37.3952H44.5983L44.6296 40.0775Z" fill="#007ACC"/>
</svg>
