<svg width="100" height="100" viewBox="0 0 100 100" fill="none" xmlns="http://www.w3.org/2000/svg">
<rect width="100" height="100" rx="50" fill="#007ACC"/>
<path d="M23.0918 38.9321H87.9811V86.8944H23.0918V38.9321Z" fill="white"/>
<path d="M9.30859 49.9413V90.6314H90.6888V9.25122H9.30859V49.9413ZM74.888 46.6861C76.8372 47.1384 78.6087 48.1579 79.9792 49.6158C80.7336 50.4012 81.3895 51.2758 81.9323 52.22C81.9323 52.3241 78.4167 54.7004 76.2747 56.0286C76.1966 56.0806 75.8841 55.7421 75.5391 55.2278C75.148 54.5531 74.5925 53.9884 73.9242 53.5866C73.2559 53.1847 72.4967 52.9587 71.7174 52.9296C69.25 52.7603 67.6615 54.0559 67.6745 56.1848C67.6541 56.7149 67.7754 57.2407 68.026 57.7082C68.5664 58.8345 69.5755 59.5051 72.7396 60.8723C78.5664 63.3788 81.0599 65.0325 82.6094 67.3827C84.3411 69.9869 84.7253 74.1926 83.5534 77.3046C82.2513 80.69 79.0612 82.9882 74.5495 83.7499C72.4888 83.9859 70.4068 83.9641 68.3516 83.6848C65.2016 83.1656 62.3 81.6532 60.0703 79.3684C59.3216 78.5416 57.8633 76.3866 57.9544 76.2304C58.1921 76.0539 58.4423 75.8951 58.7031 75.7551L61.7174 74.0885L64.0547 72.7343L64.543 73.4569C65.367 74.6357 66.4157 75.6402 67.6289 76.4127C70.2331 77.7799 73.7878 77.5911 75.5456 76.009C76.1358 75.4293 76.5039 74.661 76.586 73.8378C76.6681 73.0146 76.4589 72.1887 75.9948 71.5038C75.3437 70.5989 74.0417 69.8372 70.4023 68.2486C66.2031 66.4387 64.3932 65.3189 62.7396 63.5351C61.7072 62.3579 60.9451 60.9691 60.5065 59.4661C60.1794 57.7489 60.131 55.9903 60.3633 54.2577C61.2292 50.2017 64.2695 47.3697 68.7096 46.5299C70.7659 46.2754 72.8488 46.3325 74.888 46.6991V46.6861ZM55.7865 50.0976V53.4309H45.2201V83.5286H37.7266V53.4244H27.1341V50.1692C27.1011 49.0466 27.1272 47.9231 27.2122 46.8033C27.2643 46.7447 33.7227 46.7447 41.5352 46.7447H55.7474L55.7865 50.0976Z" fill="#007ACC"/>
</svg>