<svg width="20" height="21" viewBox="0 0 20 21" fill="none" xmlns="http://www.w3.org/2000/svg">
<rect y="0.5" width="20" height="20" rx="3.07692" fill="#BBC2C9"/>
<path d="M4.54688 8.31738H17.9436V18.2194H4.54688V8.31738Z" fill="#F5F6F7"/>
<path d="M1.70312 10.5901V18.9908H18.5045V2.18945H1.70312V10.5901ZM15.2423 9.91808C15.6447 10.0115 16.0105 10.2219 16.2934 10.5229C16.4492 10.6851 16.5846 10.8656 16.6967 11.0606C16.6967 11.0821 15.9708 11.5727 15.5286 11.8469C15.5125 11.8576 15.448 11.7877 15.3767 11.6815C15.296 11.5423 15.1813 11.4257 15.0433 11.3427C14.9054 11.2597 14.7486 11.2131 14.5877 11.2071C14.0783 11.1721 13.7504 11.4396 13.7531 11.8791C13.7488 11.9886 13.7739 12.0971 13.8256 12.1937C13.9372 12.4262 14.1455 12.5646 14.7988 12.8469C16.0018 13.3644 16.5165 13.7058 16.8364 14.191C17.194 14.7286 17.2733 15.5969 17.0313 16.2394C16.7625 16.9384 16.1039 17.4128 15.1724 17.5701C14.747 17.6188 14.3172 17.6143 13.8928 17.5566C13.2425 17.4494 12.6435 17.1372 12.1831 16.6655C12.0286 16.4948 11.7275 16.0499 11.7463 16.0176C11.7954 15.9812 11.847 15.9484 11.9009 15.9195L12.5232 15.5754L13.0057 15.2959L13.1065 15.4451C13.2767 15.6884 13.4932 15.8958 13.7436 16.0553C14.2813 16.3375 15.0152 16.2986 15.3781 15.9719C15.4999 15.8523 15.5759 15.6936 15.5929 15.5237C15.6098 15.3537 15.5666 15.1832 15.4708 15.0418C15.3364 14.855 15.0676 14.6977 14.3162 14.3698C13.4493 13.9961 13.0756 13.7649 12.7342 13.3966C12.5211 13.1536 12.3637 12.8669 12.2732 12.5566C12.2057 12.202 12.1957 11.839 12.2436 11.4813C12.4224 10.6439 13.0501 10.0592 13.9668 9.88582C14.3913 9.83329 14.8213 9.84507 15.2423 9.92077V9.91808ZM11.2987 10.6224V11.3106H9.11723V17.5244H7.57016V11.3092H5.38329V10.6372C5.37648 10.4054 5.38187 10.1735 5.39942 9.94227C5.41018 9.93017 6.74353 9.93017 8.35646 9.93017H11.2907L11.2987 10.6224Z" fill="#BBC2C9"/>
</svg>
