<svg width="24" height="24" viewBox="0 0 24 24" fill="none" xmlns="http://www.w3.org/2000/svg">
<g opacity="0.8">
<rect width="24" height="24" rx="12" fill="#D7DBDF"/>
<path d="M5.54199 9.34375H21.1154V20.8547H5.54199V9.34375Z" fill="#BBC2C9"/>
<path d="M2.23438 11.9858V21.7515H21.7656V2.22021H2.23438V11.9858ZM17.9734 11.2046C18.4412 11.3131 18.8664 11.5578 19.1953 11.9077C19.3764 12.0962 19.5338 12.3061 19.6641 12.5327C19.6641 12.5577 18.8203 13.128 18.3062 13.4468C18.2875 13.4593 18.2125 13.378 18.1297 13.2546C18.0358 13.0927 17.9025 12.9571 17.7421 12.8607C17.5817 12.7642 17.3995 12.71 17.2125 12.703C16.6203 12.6624 16.2391 12.9733 16.2422 13.4843C16.2373 13.6115 16.2664 13.7377 16.3266 13.8499C16.4562 14.1202 16.6984 14.2811 17.4578 14.6093C18.8562 15.2108 19.4547 15.6077 19.8266 16.1718C20.2422 16.7968 20.3344 17.8062 20.0531 18.553C19.7406 19.3655 18.975 19.9171 17.8922 20.0999C17.3976 20.1565 16.8979 20.1513 16.4047 20.0843C15.6487 19.9597 14.9523 19.5967 14.4172 19.0483C14.2375 18.8499 13.8875 18.3327 13.9094 18.2952C13.9664 18.2529 14.0265 18.2147 14.0891 18.1811L14.8125 17.7811L15.3734 17.4562L15.4906 17.6296C15.6884 17.9125 15.9401 18.1536 16.2312 18.339C16.8562 18.6671 17.7094 18.6218 18.1312 18.2421C18.2729 18.103 18.3613 17.9186 18.381 17.721C18.4007 17.5234 18.3504 17.3252 18.2391 17.1608C18.0828 16.9437 17.7703 16.7608 16.8969 16.3796C15.8891 15.9452 15.4547 15.6765 15.0578 15.2483C14.8101 14.9658 14.6271 14.6325 14.5219 14.2718C14.4434 13.8597 14.4318 13.4376 14.4875 13.0218C14.6953 12.0483 15.425 11.3687 16.4906 11.1671C16.9841 11.106 17.484 11.1197 17.9734 11.2077V11.2046ZM13.3891 12.0233V12.8233H10.8531V20.0468H9.05469V12.8218H6.5125V12.0405C6.50458 11.7711 6.51084 11.5015 6.53125 11.2327C6.54375 11.2187 8.09375 11.2187 9.96875 11.2187H13.3797L13.3891 12.0233Z" fill="#D7DBDF"/>
</g>
</svg>